<svg width="24" height="24" viewBox="0 0 24 24" fill="none" xmlns="http://www.w3.org/2000/svg">
<path d="M19.4967 7.98903L11.9997 15.297L4.50275 7.98903C4.3688 7.85819 4.18899 7.78495 4.00175 7.78495C3.81451 7.78495 3.63469 7.85819 3.50075 7.98903C3.43589 8.05257 3.38437 8.12842 3.34919 8.21213C3.31402 8.29584 3.2959 8.38573 3.2959 8.47653C3.2959 8.56733 3.31402 8.65721 3.34919 8.74092C3.38437 8.82463 3.43589 8.90048 3.50075 8.96403L11.4762 16.74C11.6163 16.8765 11.8042 16.953 11.9997 16.953C12.1953 16.953 12.3832 16.8765 12.5232 16.74L20.4987 8.96553C20.5641 8.90193 20.616 8.8259 20.6514 8.74191C20.6869 8.65792 20.7051 8.56769 20.7051 8.47653C20.7051 8.38537 20.6869 8.29513 20.6514 8.21114C20.616 8.12715 20.5641 8.05112 20.4987 7.98753C20.3648 7.85669 20.185 7.78345 19.9977 7.78345C19.8105 7.78345 19.6307 7.85669 19.4967 7.98753V7.98903Z" fill="#3754C1"/>
</svg>
