<svg width="32" height="33" viewBox="0 0 32 33" fill="none" xmlns="http://www.w3.org/2000/svg">
<path d="M16 32.5C7.16385 32.5 0 25.3362 0 16.5C0 7.66385 7.16385 0.5 16 0.5C24.8362 0.5 32 7.66385 32 16.5C32 25.3362 24.8362 32.5 16 32.5ZM18.7162 9.98538C18.8353 9.87223 18.9305 9.73638 18.9963 9.58585C19.062 9.43531 19.097 9.27312 19.0991 9.10886C19.1012 8.9446 19.0704 8.78157 19.0085 8.6294C18.9466 8.47722 18.8549 8.33898 18.7387 8.22282C18.6226 8.10666 18.4843 8.01492 18.3321 7.95303C18.18 7.89113 18.0169 7.86033 17.8527 7.86243C17.6884 7.86454 17.5262 7.89951 17.3757 7.96527C17.2252 8.03104 17.0893 8.12629 16.9762 8.24538L9.59154 15.63C9.3609 15.8608 9.23134 16.1737 9.23134 16.5C9.23134 16.8263 9.3609 17.1392 9.59154 17.37L16.9762 24.7546C17.2088 24.9757 17.5187 25.0971 17.8396 25.093C18.1606 25.0889 18.4672 24.9596 18.6942 24.7326C18.9211 24.5057 19.0504 24.199 19.0545 23.8781C19.0587 23.5572 18.9372 23.2473 18.7162 23.0146L12.2023 16.5L18.7162 9.98538Z" fill="#3754C1"/>
</svg>
