<svg width="25" height="29" viewBox="0 0 25 29" fill="none" xmlns="http://www.w3.org/2000/svg">
<path d="M1.52148 28.3222C1.52148 25.4392 4.43326 18.5612 12.0271 18.5612C19.6219 18.5612 22.3874 24.9582 22.6214 28.3212L1.52148 28.3222Z" fill="#39A7FF"/>
<path d="M1.52148 28.3222C1.52148 25.4392 4.43326 18.5612 12.0271 18.5612C19.6219 18.5612 22.3874 24.9582 22.6214 28.3212L1.52148 28.3222Z" fill="url(#paint0_radial_521_84)"/>
<path d="M1.52148 28.3222C1.52148 25.4392 4.43326 18.5612 12.0271 18.5612C19.6219 18.5612 22.3874 24.9582 22.6214 28.3212L1.52148 28.3222Z" fill="url(#paint1_radial_521_84)"/>
<path d="M1.52148 28.3222C1.52148 25.4392 4.43326 18.5612 12.0271 18.5612C19.6219 18.5612 22.3874 24.9582 22.6214 28.3212L1.52148 28.3222Z" fill="url(#paint2_radial_521_84)"/>
<path d="M1.52148 28.3222C1.52148 25.4392 4.43326 18.5612 12.0271 18.5612C19.6219 18.5612 22.3874 24.9582 22.6214 28.3212L1.52148 28.3222Z" fill="url(#paint3_radial_521_84)"/>
<path d="M5.14683 21.0782C2.59671 23.3412 1.52051 26.5692 1.52051 28.3222H5.14683V21.0782Z" fill="url(#paint4_radial_521_84)"/>
<path d="M5.14683 21.0782C2.59671 23.3412 1.52051 26.5692 1.52051 28.3222H5.14683V21.0782Z" fill="url(#paint5_radial_521_84)"/>
<path d="M5.14683 21.0782C2.59671 23.3412 1.52051 26.5692 1.52051 28.3222H5.14683V21.0782Z" fill="url(#paint6_radial_521_84)"/>
<path d="M19.0339 21.0852C21.4476 23.2472 22.4819 26.3212 22.6213 28.3222H19.0339V21.0852Z" fill="url(#paint7_radial_521_84)"/>
<path d="M19.0339 21.0852C21.4476 23.2472 22.4819 26.3212 22.6213 28.3222H19.0339V21.0852Z" fill="url(#paint8_radial_521_84)"/>
<path d="M12.068 22.9402C11.683 22.9402 10.9256 22.9082 9.68364 22.4632L9.6076 22.4272C8.20581 21.7702 4.73644 20.1432 4.87876 18.0652C4.87876 15.9152 8.24968 15.9082 9.93514 16.1742H14.2292C15.9156 15.9082 19.2866 15.9142 19.2866 18.0642C19.4279 20.1442 15.9585 21.7702 14.5567 22.4272L14.4807 22.4632C13.2388 22.9082 12.4823 22.9402 12.0671 22.9402H12.068Z" fill="url(#paint9_linear_521_84)"/>
<path d="M12.068 22.9402C11.683 22.9402 10.9256 22.9082 9.68364 22.4632L9.6076 22.4272C8.20581 21.7702 4.73644 20.1432 4.87876 18.0652C4.87876 15.9152 8.24968 15.9082 9.93514 16.1742H14.2292C15.9156 15.9082 19.2866 15.9142 19.2866 18.0642C19.4279 20.1442 15.9585 21.7702 14.5567 22.4272L14.4807 22.4632C13.2388 22.9082 12.4823 22.9402 12.0671 22.9402H12.068Z" fill="url(#paint10_radial_521_84)"/>
<path d="M12.068 22.9402C11.683 22.9402 10.9256 22.9082 9.68364 22.4632L9.6076 22.4272C8.20581 21.7702 4.73644 20.1432 4.87876 18.0652C4.87876 15.9152 8.24968 15.9082 9.93514 16.1742H14.2292C15.9156 15.9082 19.2866 15.9142 19.2866 18.0642C19.4279 20.1442 15.9585 21.7702 14.5567 22.4272L14.4807 22.4632C13.2388 22.9082 12.4823 22.9402 12.0671 22.9402H12.068Z" fill="url(#paint11_radial_521_84)"/>
<path d="M12.068 22.9402C11.683 22.9402 10.9256 22.9082 9.68364 22.4632L9.6076 22.4272C8.20581 21.7702 4.73644 20.1432 4.87876 18.0652C4.87876 15.9152 8.24968 15.9082 9.93514 16.1742H14.2292C15.9156 15.9082 19.2866 15.9142 19.2866 18.0642C19.4279 20.1442 15.9585 21.7702 14.5567 22.4272L14.4807 22.4632C13.2388 22.9082 12.4823 22.9402 12.0671 22.9402H12.068Z" fill="url(#paint12_radial_521_84)"/>
<path d="M12.068 22.9402C11.683 22.9402 10.9256 22.9082 9.68364 22.4632L9.6076 22.4272C8.20581 21.7702 4.73644 20.1432 4.87876 18.0652C4.87876 15.9152 8.24968 15.9082 9.93514 16.1742H14.2292C15.9156 15.9082 19.2866 15.9142 19.2866 18.0642C19.4279 20.1442 15.9585 21.7702 14.5567 22.4272L14.4807 22.4632C13.2388 22.9082 12.4823 22.9402 12.0671 22.9402H12.068Z" fill="url(#paint13_radial_521_84)"/>
<path d="M12.068 22.9402C11.683 22.9402 10.9256 22.9082 9.68364 22.4632L9.6076 22.4272C8.20581 21.7702 4.73644 20.1432 4.87876 18.0652C4.87876 15.9152 8.24968 15.9082 9.93514 16.1742H14.2292C15.9156 15.9082 19.2866 15.9142 19.2866 18.0642C19.4279 20.1442 15.9585 21.7702 14.5567 22.4272L14.4807 22.4632C13.2388 22.9082 12.4823 22.9402 12.0671 22.9402H12.068Z" fill="url(#paint14_radial_521_84)"/>
<path d="M12.068 22.9402C11.683 22.9402 10.9256 22.9082 9.68364 22.4632L9.6076 22.4272C8.20581 21.7702 4.73644 20.1432 4.87876 18.0652C4.87876 15.9152 8.24968 15.9082 9.93514 16.1742H14.2292C15.9156 15.9082 19.2866 15.9142 19.2866 18.0642C19.4279 20.1442 15.9585 21.7702 14.5567 22.4272L14.4807 22.4632C13.2388 22.9082 12.4823 22.9402 12.0671 22.9402H12.068Z" fill="url(#paint15_radial_521_84)"/>
<g filter="url(#filter0_f_521_84)">
<path d="M12.0815 22.7992C11.9031 22.7992 11.4108 22.6442 10.7119 22.0612C9.47632 21.0173 8.2538 19.9572 7.04464 18.8812C6.83408 18.6942 6.39054 18.2132 6.49289 17.6902C6.65276 16.8702 7.81767 16.5412 9.61523 16.5412H14.5488C16.3463 16.5412 17.5122 16.8692 17.6711 17.6902C17.7735 18.2132 17.3299 18.6942 17.1194 18.8812C15.9101 19.957 14.6876 21.0171 13.4521 22.0612C12.7522 22.6442 12.3252 22.7992 12.0815 22.7992Z" fill="#3978A9"/>
<path d="M12.0815 22.7992C11.9031 22.7992 11.4108 22.6442 10.7119 22.0612C9.47632 21.0173 8.2538 19.9572 7.04464 18.8812C6.83408 18.6942 6.39054 18.2132 6.49289 17.6902C6.65276 16.8702 7.81767 16.5412 9.61523 16.5412H14.5488C16.3463 16.5412 17.5122 16.8692 17.6711 17.6902C17.7735 18.2132 17.3299 18.6942 17.1194 18.8812C15.9101 19.957 14.6876 21.0171 13.4521 22.0612C12.7522 22.6442 12.3252 22.7992 12.0815 22.7992Z" fill="url(#paint16_radial_521_84)"/>
<path d="M12.0815 22.7992C11.9031 22.7992 11.4108 22.6442 10.7119 22.0612C9.47632 21.0173 8.2538 19.9572 7.04464 18.8812C6.83408 18.6942 6.39054 18.2132 6.49289 17.6902C6.65276 16.8702 7.81767 16.5412 9.61523 16.5412H14.5488C16.3463 16.5412 17.5122 16.8692 17.6711 17.6902C17.7735 18.2132 17.3299 18.6942 17.1194 18.8812C15.9101 19.957 14.6876 21.0171 13.4521 22.0612C12.7522 22.6442 12.3252 22.7992 12.0815 22.7992Z" fill="url(#paint17_linear_521_84)"/>
<path d="M12.0815 22.7992C11.9031 22.7992 11.4108 22.6442 10.7119 22.0612C9.47632 21.0173 8.2538 19.9572 7.04464 18.8812C6.83408 18.6942 6.39054 18.2132 6.49289 17.6902C6.65276 16.8702 7.81767 16.5412 9.61523 16.5412H14.5488C16.3463 16.5412 17.5122 16.8692 17.6711 17.6902C17.7735 18.2132 17.3299 18.6942 17.1194 18.8812C15.9101 19.957 14.6876 21.0171 13.4521 22.0612C12.7522 22.6442 12.3252 22.7992 12.0815 22.7992Z" fill="url(#paint18_radial_521_84)"/>
<path d="M12.0815 22.7992C11.9031 22.7992 11.4108 22.6442 10.7119 22.0612C9.47632 21.0173 8.2538 19.9572 7.04464 18.8812C6.83408 18.6942 6.39054 18.2132 6.49289 17.6902C6.65276 16.8702 7.81767 16.5412 9.61523 16.5412H14.5488C16.3463 16.5412 17.5122 16.8692 17.6711 17.6902C17.7735 18.2132 17.3299 18.6942 17.1194 18.8812C15.9101 19.957 14.6876 21.0171 13.4521 22.0612C12.7522 22.6442 12.3252 22.7992 12.0815 22.7992Z" fill="url(#paint19_radial_521_84)"/>
<path d="M10.6806 22.0992C11.0335 22.3932 11.3338 22.5802 11.5716 22.6942C11.8065 22.8072 11.982 22.8492 12.0814 22.8492C12.3427 22.8492 12.7814 22.6852 13.4832 22.0992C14.4814 21.2672 16.2078 19.7592 17.1515 18.9192C17.2587 18.8232 17.4264 18.6522 17.5541 18.4372C17.6808 18.2232 17.7734 17.9582 17.7198 17.6802C17.634 17.2442 17.2831 16.9472 16.7391 16.7602C16.1961 16.5732 15.4494 16.4912 14.5487 16.4912H9.61515C8.71442 16.4912 7.96771 16.5732 7.42376 16.7612C6.88079 16.9472 6.52985 17.2442 6.44504 17.6802C6.39046 17.9592 6.48209 18.2232 6.60979 18.4372C6.73749 18.6522 6.90516 18.8232 7.01239 18.9192C7.95601 19.7592 9.68339 21.2672 10.6806 22.0992Z" stroke="url(#paint20_radial_521_84)" stroke-width="0.1"/>
</g>
<g filter="url(#filter1_i_521_84)">
<path d="M11.8302 22.3032L10.2549 19.5492H13.9104L12.3342 22.3032C12.3083 22.3482 12.2715 22.3855 12.2273 22.4114C12.1831 22.4373 12.1331 22.451 12.0822 22.451C12.0313 22.451 11.9812 22.4373 11.9371 22.4114C11.8929 22.3855 11.856 22.3482 11.8302 22.3032Z" fill="#9A7680"/>
<path d="M11.8302 22.3032L10.2549 19.5492H13.9104L12.3342 22.3032C12.3083 22.3482 12.2715 22.3855 12.2273 22.4114C12.1831 22.4373 12.1331 22.451 12.0822 22.451C12.0313 22.451 11.9812 22.4373 11.9371 22.4114C11.8929 22.3855 11.856 22.3482 11.8302 22.3032Z" fill="url(#paint21_radial_521_84)"/>
<path d="M11.8302 22.3032L10.2549 19.5492H13.9104L12.3342 22.3032C12.3083 22.3482 12.2715 22.3855 12.2273 22.4114C12.1831 22.4373 12.1331 22.451 12.0822 22.451C12.0313 22.451 11.9812 22.4373 11.9371 22.4114C11.8929 22.3855 11.856 22.3482 11.8302 22.3032Z" fill="url(#paint22_radial_521_84)"/>
</g>
<g filter="url(#filter2_i_521_84)">
<path d="M12.0347 0.3302C14.8031 0.3302 16.6261 1.2802 17.6984 2.1002C18.2053 2.4902 17.9226 3.3202 17.2889 3.3202L12.1127 3.3302L12.0347 0.3302Z" fill="url(#paint23_radial_521_84)"/>
<path d="M12.0347 0.3302C14.8031 0.3302 16.6261 1.2802 17.6984 2.1002C18.2053 2.4902 17.9226 3.3202 17.2889 3.3202L12.1127 3.3302L12.0347 0.3302Z" fill="url(#paint24_linear_521_84)"/>
</g>
<path d="M11.5473 18.3002H11.5083C11.6058 18.3002 11.7033 18.3002 11.8007 18.3102C11.713 18.3102 11.6253 18.3002 11.5473 18.3002Z" fill="url(#paint25_linear_521_84)"/>
<path d="M11.5473 18.3002H11.5083C11.6058 18.3002 11.7033 18.3002 11.8007 18.3102C11.713 18.3102 11.6253 18.3002 11.5473 18.3002Z" fill="url(#paint26_linear_521_84)"/>
<path d="M17.8349 8.7902H6.23462L6.41009 8.4402C7.50188 6.2802 9.66598 0.3302 12.0348 0.3302C14.4133 0.3302 16.5872 6.2902 17.6692 8.4602L17.8349 8.7902Z" fill="url(#paint27_radial_521_84)"/>
<path d="M17.8349 8.7902H6.23462L6.41009 8.4402C7.50188 6.2802 9.66598 0.3302 12.0348 0.3302C14.4133 0.3302 16.5872 6.2902 17.6692 8.4602L17.8349 8.7902Z" fill="url(#paint28_linear_521_84)"/>
<path d="M17.8349 8.7902H6.23462L6.41009 8.4402C7.50188 6.2802 9.66598 0.3302 12.0348 0.3302C14.4133 0.3302 16.5872 6.2902 17.6692 8.4602L17.8349 8.7902Z" fill="url(#paint29_radial_521_84)"/>
<path d="M6.01041 8.4802L5.8252 8.8602H18.2444L18.0689 8.5002C17.7627 7.8891 17.372 7.32662 16.9089 6.8302H7.16069C6.71228 7.3202 6.32235 7.8702 6.01041 8.4802Z" fill="url(#paint30_linear_521_84)"/>
<path d="M6.01041 8.4802L5.8252 8.8602H18.2444L18.0689 8.5002C17.7627 7.8891 17.372 7.32662 16.9089 6.8302H7.16069C6.71228 7.3202 6.32235 7.8702 6.01041 8.4802Z" fill="url(#paint31_linear_521_84)"/>
<path d="M6.01041 8.4802L5.8252 8.8602H18.2444L18.0689 8.5002C17.7627 7.8891 17.372 7.32662 16.9089 6.8302H7.16069C6.71228 7.3202 6.32235 7.8702 6.01041 8.4802Z" fill="url(#paint32_linear_521_84)"/>
<path d="M19.5214 16.8102L4.70415 16.8002C2.31585 16.8002 0.366211 14.8002 0.366211 12.3402C0.366211 9.88019 2.31585 7.88019 4.7139 7.88019L19.5311 7.89019C21.9292 7.89019 23.8788 9.89019 23.8788 12.3502C23.8737 13.5332 23.4126 14.666 22.5963 15.5016C21.7799 16.3371 20.6746 16.8076 19.5214 16.8102Z" fill="url(#paint33_radial_521_84)"/>
<path d="M19.5214 16.8102L4.70415 16.8002C2.31585 16.8002 0.366211 14.8002 0.366211 12.3402C0.366211 9.88019 2.31585 7.88019 4.7139 7.88019L19.5311 7.89019C21.9292 7.89019 23.8788 9.89019 23.8788 12.3502C23.8737 13.5332 23.4126 14.666 22.5963 15.5016C21.7799 16.3371 20.6746 16.8076 19.5214 16.8102Z" fill="url(#paint34_radial_521_84)"/>
<path d="M19.5214 16.8102L4.70415 16.8002C2.31585 16.8002 0.366211 14.8002 0.366211 12.3402C0.366211 9.88019 2.31585 7.88019 4.7139 7.88019L19.5311 7.89019C21.9292 7.89019 23.8788 9.89019 23.8788 12.3502C23.8737 13.5332 23.4126 14.666 22.5963 15.5016C21.7799 16.3371 20.6746 16.8076 19.5214 16.8102Z" fill="url(#paint35_radial_521_84)"/>
<path d="M19.5214 16.8102L4.70415 16.8002C2.31585 16.8002 0.366211 14.8002 0.366211 12.3402C0.366211 9.88019 2.31585 7.88019 4.7139 7.88019L19.5311 7.89019C21.9292 7.89019 23.8788 9.89019 23.8788 12.3502C23.8737 13.5332 23.4126 14.666 22.5963 15.5016C21.7799 16.3371 20.6746 16.8076 19.5214 16.8102Z" fill="url(#paint36_radial_521_84)"/>
<path d="M19.5214 16.8102L4.70415 16.8002C2.31585 16.8002 0.366211 14.8002 0.366211 12.3402C0.366211 9.88019 2.31585 7.88019 4.7139 7.88019L19.5311 7.89019C21.9292 7.89019 23.8788 9.89019 23.8788 12.3502C23.8737 13.5332 23.4126 14.666 22.5963 15.5016C21.7799 16.3371 20.6746 16.8076 19.5214 16.8102Z" fill="url(#paint37_radial_521_84)"/>
<path d="M19.5214 16.8102L4.70415 16.8002C2.31585 16.8002 0.366211 14.8002 0.366211 12.3402C0.366211 9.88019 2.31585 7.88019 4.7139 7.88019L19.5311 7.89019C21.9292 7.89019 23.8788 9.89019 23.8788 12.3502C23.8737 13.5332 23.4126 14.666 22.5963 15.5016C21.7799 16.3371 20.6746 16.8076 19.5214 16.8102Z" fill="url(#paint38_radial_521_84)"/>
<path d="M19.5214 16.8102L4.70415 16.8002C2.31585 16.8002 0.366211 14.8002 0.366211 12.3402C0.366211 9.88019 2.31585 7.88019 4.7139 7.88019L19.5311 7.89019C21.9292 7.89019 23.8788 9.89019 23.8788 12.3502C23.8737 13.5332 23.4126 14.666 22.5963 15.5016C21.7799 16.3371 20.6746 16.8076 19.5214 16.8102Z" fill="url(#paint39_radial_521_84)"/>
<path d="M23.177 21.3662C23.427 21.3667 23.6665 21.4688 23.8434 21.65C24.0202 21.8312 24.1199 22.0768 24.1206 22.3332V24.5472H22.2354V22.3332C22.2376 22.0775 22.3377 21.8329 22.514 21.652C22.6903 21.4712 22.9277 21.3686 23.177 21.3662Z" fill="url(#paint40_radial_521_84)"/>
<path d="M23.177 21.3662C23.427 21.3667 23.6665 21.4688 23.8434 21.65C24.0202 21.8312 24.1199 22.0768 24.1206 22.3332V24.5472H22.2354V22.3332C22.2376 22.0775 22.3377 21.8329 22.514 21.652C22.6903 21.4712 22.9277 21.3686 23.177 21.3662Z" fill="url(#paint41_radial_521_84)"/>
<g filter="url(#filter3_f_521_84)">
<path d="M18.9367 16.4502H5.299C3.08616 16.4502 1.30225 14.9402 1.30225 13.0702C1.30225 11.2002 3.09591 9.69019 5.299 9.69019L18.9367 9.70018C21.1495 9.70018 22.9334 11.2102 22.9334 13.0802C22.9334 14.9402 21.1398 16.4502 18.9367 16.4502Z" fill="url(#paint42_radial_521_84)"/>
<path d="M18.9367 16.4502H5.299C3.08616 16.4502 1.30225 14.9402 1.30225 13.0702C1.30225 11.2002 3.09591 9.69019 5.299 9.69019L18.9367 9.70018C21.1495 9.70018 22.9334 11.2102 22.9334 13.0802C22.9334 14.9402 21.1398 16.4502 18.9367 16.4502Z" fill="url(#paint43_radial_521_84)"/>
<path d="M18.9367 16.4502H5.299C3.08616 16.4502 1.30225 14.9402 1.30225 13.0702C1.30225 11.2002 3.09591 9.69019 5.299 9.69019L18.9367 9.70018C21.1495 9.70018 22.9334 11.2102 22.9334 13.0802C22.9334 14.9402 21.1398 16.4502 18.9367 16.4502Z" fill="url(#paint44_radial_521_84)"/>
<path d="M18.9367 16.4502H5.299C3.08616 16.4502 1.30225 14.9402 1.30225 13.0702C1.30225 11.2002 3.09591 9.69019 5.299 9.69019L18.9367 9.70018C21.1495 9.70018 22.9334 11.2102 22.9334 13.0802C22.9334 14.9402 21.1398 16.4502 18.9367 16.4502Z" fill="url(#paint45_radial_521_84)"/>
<path d="M18.9367 16.4502H5.299C3.08616 16.4502 1.30225 14.9402 1.30225 13.0702C1.30225 11.2002 3.09591 9.69019 5.299 9.69019L18.9367 9.70018C21.1495 9.70018 22.9334 11.2102 22.9334 13.0802C22.9334 14.9402 21.1398 16.4502 18.9367 16.4502Z" fill="url(#paint46_radial_521_84)"/>
<path d="M18.9367 16.4502H5.299C3.08616 16.4502 1.30225 14.9402 1.30225 13.0702C1.30225 11.2002 3.09591 9.69019 5.299 9.69019L18.9367 9.70018C21.1495 9.70018 22.9334 11.2102 22.9334 13.0802C22.9334 14.9402 21.1398 16.4502 18.9367 16.4502Z" fill="url(#paint47_radial_521_84)"/>
<path d="M5.29882 9.59021L18.9365 9.60021M5.29882 9.59021V9.69021C3.09574 9.69021 1.30207 11.2002 1.30207 13.0702C1.30207 14.9402 3.08599 16.4502 5.29882 16.4502H18.9365C21.1396 16.4502 22.9333 14.9402 22.9333 13.0802C22.9333 11.2102 21.1493 9.70021 18.9365 9.70021V9.60021M5.29882 9.59021C3.06064 9.59021 1.20459 11.1282 1.20459 13.0702C1.20459 15.0132 3.05089 16.5502 5.29882 16.5502H18.9365C21.1747 16.5502 23.0307 15.0132 23.0307 13.0802C23.0307 11.1382 21.1844 9.60021 18.9365 9.60021" stroke="url(#paint48_linear_521_84)" stroke-width="0.2"/>
</g>
<g filter="url(#filter4_i_521_84)">
<path d="M23.0308 3.63021C22.8358 3.52021 22.5921 3.67021 22.5921 3.90021V5.52021C22.5921 5.96021 22.2412 6.33021 21.8123 6.32021C21.6128 6.31605 21.4227 6.23223 21.2826 6.08656C21.1424 5.9409 21.0631 5.74489 21.0616 5.54021V3.90021C21.0616 3.67021 20.8179 3.52021 20.623 3.63021C19.8334 4.07021 19.2972 4.92021 19.2875 5.90021C19.2777 6.91021 19.8529 7.80021 20.6815 8.24021C20.7789 8.29021 20.8374 8.39021 20.8374 8.50021V24.4102C20.8374 24.9802 21.2956 25.4502 21.8512 25.4502C22.4069 25.4502 22.8651 24.9802 22.8651 24.4102V8.48021C22.8651 8.37021 22.9235 8.27021 23.021 8.22021C23.4259 7.99834 23.7646 7.66804 24.001 7.26445C24.2375 6.86086 24.3629 6.39907 24.3639 5.9282C24.3649 5.45733 24.2414 4.99499 24.0067 4.59034C23.772 4.1857 23.4347 3.85389 23.0308 3.63021Z" fill="url(#paint49_linear_521_84)"/>
<path d="M23.0308 3.63021C22.8358 3.52021 22.5921 3.67021 22.5921 3.90021V5.52021C22.5921 5.96021 22.2412 6.33021 21.8123 6.32021C21.6128 6.31605 21.4227 6.23223 21.2826 6.08656C21.1424 5.9409 21.0631 5.74489 21.0616 5.54021V3.90021C21.0616 3.67021 20.8179 3.52021 20.623 3.63021C19.8334 4.07021 19.2972 4.92021 19.2875 5.90021C19.2777 6.91021 19.8529 7.80021 20.6815 8.24021C20.7789 8.29021 20.8374 8.39021 20.8374 8.50021V24.4102C20.8374 24.9802 21.2956 25.4502 21.8512 25.4502C22.4069 25.4502 22.8651 24.9802 22.8651 24.4102V8.48021C22.8651 8.37021 22.9235 8.27021 23.021 8.22021C23.4259 7.99834 23.7646 7.66804 24.001 7.26445C24.2375 6.86086 24.3629 6.39907 24.3639 5.9282C24.3649 5.45733 24.2414 4.99499 24.0067 4.59034C23.772 4.1857 23.4347 3.85389 23.0308 3.63021Z" fill="url(#paint50_radial_521_84)"/>
<path d="M23.0308 3.63021C22.8358 3.52021 22.5921 3.67021 22.5921 3.90021V5.52021C22.5921 5.96021 22.2412 6.33021 21.8123 6.32021C21.6128 6.31605 21.4227 6.23223 21.2826 6.08656C21.1424 5.9409 21.0631 5.74489 21.0616 5.54021V3.90021C21.0616 3.67021 20.8179 3.52021 20.623 3.63021C19.8334 4.07021 19.2972 4.92021 19.2875 5.90021C19.2777 6.91021 19.8529 7.80021 20.6815 8.24021C20.7789 8.29021 20.8374 8.39021 20.8374 8.50021V24.4102C20.8374 24.9802 21.2956 25.4502 21.8512 25.4502C22.4069 25.4502 22.8651 24.9802 22.8651 24.4102V8.48021C22.8651 8.37021 22.9235 8.27021 23.021 8.22021C23.4259 7.99834 23.7646 7.66804 24.001 7.26445C24.2375 6.86086 24.3629 6.39907 24.3639 5.9282C24.3649 5.45733 24.2414 4.99499 24.0067 4.59034C23.772 4.1857 23.4347 3.85389 23.0308 3.63021Z" fill="url(#paint51_radial_521_84)"/>
<path d="M23.0308 3.63021C22.8358 3.52021 22.5921 3.67021 22.5921 3.90021V5.52021C22.5921 5.96021 22.2412 6.33021 21.8123 6.32021C21.6128 6.31605 21.4227 6.23223 21.2826 6.08656C21.1424 5.9409 21.0631 5.74489 21.0616 5.54021V3.90021C21.0616 3.67021 20.8179 3.52021 20.623 3.63021C19.8334 4.07021 19.2972 4.92021 19.2875 5.90021C19.2777 6.91021 19.8529 7.80021 20.6815 8.24021C20.7789 8.29021 20.8374 8.39021 20.8374 8.50021V24.4102C20.8374 24.9802 21.2956 25.4502 21.8512 25.4502C22.4069 25.4502 22.8651 24.9802 22.8651 24.4102V8.48021C22.8651 8.37021 22.9235 8.27021 23.021 8.22021C23.4259 7.99834 23.7646 7.66804 24.001 7.26445C24.2375 6.86086 24.3629 6.39907 24.3639 5.9282C24.3649 5.45733 24.2414 4.99499 24.0067 4.59034C23.772 4.1857 23.4347 3.85389 23.0308 3.63021Z" fill="url(#paint52_radial_521_84)"/>
</g>
<path d="M21.8316 7.00017C22.1645 7.00017 22.4941 6.93292 22.8016 6.80226C23.1091 6.6716 23.3885 6.48008 23.6238 6.23865C23.8592 5.99722 24.0459 5.71059 24.1732 5.39515C24.3006 5.0797 24.3662 4.74161 24.3662 4.40017C24.3662 4.05873 24.3006 3.72064 24.1732 3.40519C24.0459 3.08975 23.8592 2.80313 23.6238 2.56169C23.3885 2.32026 23.1091 2.12875 22.8016 1.99808C22.4941 1.86742 22.1645 1.80017 21.8316 1.80017C21.1594 1.80017 20.5148 2.0741 20.0395 2.56169C19.5641 3.04929 19.2971 3.71061 19.2971 4.40017C19.2971 5.08973 19.5641 5.75105 20.0395 6.23865C20.5148 6.72624 21.1594 7.00017 21.8316 7.00017Z" fill="url(#paint53_radial_521_84)"/>
<path d="M21.8316 7.00017C22.1645 7.00017 22.4941 6.93292 22.8016 6.80226C23.1091 6.6716 23.3885 6.48008 23.6238 6.23865C23.8592 5.99722 24.0459 5.71059 24.1732 5.39515C24.3006 5.0797 24.3662 4.74161 24.3662 4.40017C24.3662 4.05873 24.3006 3.72064 24.1732 3.40519C24.0459 3.08975 23.8592 2.80313 23.6238 2.56169C23.3885 2.32026 23.1091 2.12875 22.8016 1.99808C22.4941 1.86742 22.1645 1.80017 21.8316 1.80017C21.1594 1.80017 20.5148 2.0741 20.0395 2.56169C19.5641 3.04929 19.2971 3.71061 19.2971 4.40017C19.2971 5.08973 19.5641 5.75105 20.0395 6.23865C20.5148 6.72624 21.1594 7.00017 21.8316 7.00017Z" fill="url(#paint54_radial_521_84)"/>
<path d="M21.7662 3.78619C21.7093 3.6819 21.6738 3.56677 21.6619 3.44788C21.65 3.329 21.662 3.20887 21.697 3.0949C21.732 2.98092 21.7895 2.8755 21.8657 2.78513C21.9419 2.69476 22.0354 2.62135 22.1403 2.56941C22.2452 2.51747 22.3594 2.48811 22.4758 2.48312C22.5922 2.47814 22.7084 2.49764 22.8171 2.54043C22.9259 2.58321 23.025 2.64838 23.1083 2.73192C23.1916 2.81546 23.2574 2.9156 23.3016 3.02619L23.4205 3.32319C23.499 3.5247 23.5 3.74924 23.4234 3.95151C23.3468 4.15377 23.1982 4.31869 23.0077 4.41298C22.8172 4.50728 22.5989 4.52392 22.3969 4.45955C22.1949 4.39519 22.0242 4.25461 21.9193 4.06619L21.7662 3.78619Z" fill="url(#paint55_radial_521_84)"/>
<g filter="url(#filter5_f_521_84)">
<path d="M22.2139 8.25122V23.8592" stroke="url(#paint56_linear_521_84)" stroke-width="0.5" stroke-linecap="round"/>
</g>
<g filter="url(#filter6_i_521_84)">
<path d="M16.5111 17.1322C17.7442 16.2572 18.335 14.0522 18.3174 12.7172C18.2989 11.3372 17.9597 10.4712 17.6019 9.85822H10.4399C10.748 10.1522 11.4001 10.7412 12.9452 10.7412H15.6728C16.1095 10.7232 17.0434 10.9642 17.0434 11.6392V11.7252H17.0482C17.057 12.5482 16.5901 15.9182 16.5101 17.1322H16.5111Z" fill="#9998A1"/>
<path d="M16.5111 17.1322C17.7442 16.2572 18.335 14.0522 18.3174 12.7172C18.2989 11.3372 17.9597 10.4712 17.6019 9.85822H10.4399C10.748 10.1522 11.4001 10.7412 12.9452 10.7412H15.6728C16.1095 10.7232 17.0434 10.9642 17.0434 11.6392V11.7252H17.0482C17.057 12.5482 16.5901 15.9182 16.5101 17.1322H16.5111Z" fill="url(#paint57_radial_521_84)"/>
<path d="M16.5111 17.1322C17.7442 16.2572 18.335 14.0522 18.3174 12.7172C18.2989 11.3372 17.9597 10.4712 17.6019 9.85822H10.4399C10.748 10.1522 11.4001 10.7412 12.9452 10.7412H15.6728C16.1095 10.7232 17.0434 10.9642 17.0434 11.6392V11.7252H17.0482C17.057 12.5482 16.5901 15.9182 16.5101 17.1322H16.5111Z" fill="url(#paint58_radial_521_84)"/>
<path d="M16.5111 17.1322C17.7442 16.2572 18.335 14.0522 18.3174 12.7172C18.2989 11.3372 17.9597 10.4712 17.6019 9.85822H10.4399C10.748 10.1522 11.4001 10.7412 12.9452 10.7412H15.6728C16.1095 10.7232 17.0434 10.9642 17.0434 11.6392V11.7252H17.0482C17.057 12.5482 16.5901 15.9182 16.5101 17.1322H16.5111Z" fill="url(#paint59_radial_521_84)"/>
<path d="M16.5111 17.1322C17.7442 16.2572 18.335 14.0522 18.3174 12.7172C18.2989 11.3372 17.9597 10.4712 17.6019 9.85822H10.4399C10.748 10.1522 11.4001 10.7412 12.9452 10.7412H15.6728C16.1095 10.7232 17.0434 10.9642 17.0434 11.6392V11.7252H17.0482C17.057 12.5482 16.5901 15.9182 16.5101 17.1322H16.5111Z" fill="url(#paint60_radial_521_84)"/>
</g>
<path d="M7.0711 13.8672V13.7492C7.06428 13.0192 7.05746 12.2292 7.05746 11.5042C7.06057 11.3954 7.08836 11.2889 7.13862 11.1931C7.18888 11.0973 7.26022 11.0148 7.34698 10.9522C7.49905 10.8142 7.67549 10.6952 7.85096 10.5772C8.15413 10.3732 8.45729 10.1692 8.63666 9.86621H6.36631C6.1421 10.4712 5.55916 11.9362 5.9179 14.1862C6.31465 15.6092 6.88199 16.4992 7.38792 17.0042C7.29592 16.7259 7.23126 16.4388 7.19491 16.1472C7.12667 15.5702 7.0906 14.7082 7.0711 13.8672Z" fill="#8A8B92"/>
<path d="M7.0711 13.8672V13.7492C7.06428 13.0192 7.05746 12.2292 7.05746 11.5042C7.06057 11.3954 7.08836 11.2889 7.13862 11.1931C7.18888 11.0973 7.26022 11.0148 7.34698 10.9522C7.49905 10.8142 7.67549 10.6952 7.85096 10.5772C8.15413 10.3732 8.45729 10.1692 8.63666 9.86621H6.36631C6.1421 10.4712 5.55916 11.9362 5.9179 14.1862C6.31465 15.6092 6.88199 16.4992 7.38792 17.0042C7.29592 16.7259 7.23126 16.4388 7.19491 16.1472C7.12667 15.5702 7.0906 14.7082 7.0711 13.8672Z" fill="url(#paint61_radial_521_84)"/>
<path d="M7.0711 13.8672V13.7492C7.06428 13.0192 7.05746 12.2292 7.05746 11.5042C7.06057 11.3954 7.08836 11.2889 7.13862 11.1931C7.18888 11.0973 7.26022 11.0148 7.34698 10.9522C7.49905 10.8142 7.67549 10.6952 7.85096 10.5772C8.15413 10.3732 8.45729 10.1692 8.63666 9.86621H6.36631C6.1421 10.4712 5.55916 11.9362 5.9179 14.1862C6.31465 15.6092 6.88199 16.4992 7.38792 17.0042C7.29592 16.7259 7.23126 16.4388 7.19491 16.1472C7.12667 15.5702 7.0906 14.7082 7.0711 13.8672Z" fill="url(#paint62_radial_521_84)"/>
<path d="M7.0711 13.8672V13.7492C7.06428 13.0192 7.05746 12.2292 7.05746 11.5042C7.06057 11.3954 7.08836 11.2889 7.13862 11.1931C7.18888 11.0973 7.26022 11.0148 7.34698 10.9522C7.49905 10.8142 7.67549 10.6952 7.85096 10.5772C8.15413 10.3732 8.45729 10.1692 8.63666 9.86621H6.36631C6.1421 10.4712 5.55916 11.9362 5.9179 14.1862C6.31465 15.6092 6.88199 16.4992 7.38792 17.0042C7.29592 16.7259 7.23126 16.4388 7.19491 16.1472C7.12667 15.5702 7.0906 14.7082 7.0711 13.8672Z" fill="url(#paint63_radial_521_84)"/>
<path d="M7.0711 13.8672V13.7492C7.06428 13.0192 7.05746 12.2292 7.05746 11.5042C7.06057 11.3954 7.08836 11.2889 7.13862 11.1931C7.18888 11.0973 7.26022 11.0148 7.34698 10.9522C7.49905 10.8142 7.67549 10.6952 7.85096 10.5772C8.15413 10.3732 8.45729 10.1692 8.63666 9.86621H6.36631C6.1421 10.4712 5.55916 11.9362 5.9179 14.1862C6.31465 15.6092 6.88199 16.4992 7.38792 17.0042C7.29592 16.7259 7.23126 16.4388 7.19491 16.1472C7.12667 15.5702 7.0906 14.7082 7.0711 13.8672Z" fill="url(#paint64_linear_521_84)"/>
<path d="M7.52537 16.2412C8.43576 16.2412 9.17378 15.4841 9.17378 14.5502C9.17378 13.6163 8.43576 12.8592 7.52537 12.8592C6.61497 12.8592 5.87695 13.6163 5.87695 14.5502C5.87695 15.4841 6.61497 16.2412 7.52537 16.2412Z" fill="url(#paint65_radial_521_84)"/>
<path d="M7.52537 16.2412C8.43576 16.2412 9.17378 15.4841 9.17378 14.5502C9.17378 13.6163 8.43576 12.8592 7.52537 12.8592C6.61497 12.8592 5.87695 13.6163 5.87695 14.5502C5.87695 15.4841 6.61497 16.2412 7.52537 16.2412Z" fill="url(#paint66_radial_521_84)"/>
<path d="M16.7197 16.2412C17.6301 16.2412 18.3681 15.4841 18.3681 14.5502C18.3681 13.6163 17.6301 12.8592 16.7197 12.8592C15.8093 12.8592 15.0713 13.6163 15.0713 14.5502C15.0713 15.4841 15.8093 16.2412 16.7197 16.2412Z" fill="url(#paint67_radial_521_84)"/>
<path d="M16.7197 16.2412C17.6301 16.2412 18.3681 15.4841 18.3681 14.5502C18.3681 13.6163 17.6301 12.8592 16.7197 12.8592C15.8093 12.8592 15.0713 13.6163 15.0713 14.5502C15.0713 15.4841 15.8093 16.2412 16.7197 16.2412Z" fill="url(#paint68_radial_521_84)"/>
<g filter="url(#filter7_f_521_84)">
<path d="M7.52533 15.7062C8.14769 15.7062 8.65221 15.1887 8.65221 14.5502C8.65221 13.9118 8.14769 13.3942 7.52533 13.3942C6.90296 13.3942 6.39844 13.9118 6.39844 14.5502C6.39844 15.1887 6.90296 15.7062 7.52533 15.7062Z" fill="url(#paint69_radial_521_84)"/>
</g>
<g filter="url(#filter8_f_521_84)">
<path d="M16.7199 15.7062C17.3423 15.7062 17.8468 15.1887 17.8468 14.5502C17.8468 13.9118 17.3423 13.3942 16.7199 13.3942C16.0975 13.3942 15.593 13.9118 15.593 14.5502C15.593 15.1887 16.0975 15.7062 16.7199 15.7062Z" fill="url(#paint70_radial_521_84)"/>
</g>
<g filter="url(#filter9_ii_521_84)">
<path d="M7.05739 11.7262V11.5302C7.0565 11.417 7.08238 11.3053 7.13281 11.2047C7.18323 11.104 7.2567 11.0174 7.34691 10.9522C7.49898 10.8142 7.67542 10.6952 7.85089 10.5772C8.15698 10.3712 8.4621 10.1662 8.64049 9.85822H10.4615C10.7685 10.1522 11.4207 10.7412 12.9667 10.7412H15.6933C16.13 10.7232 17.0639 10.9642 17.0639 11.6392V11.7252H17.0688C17.0785 12.7202 17.0658 14.9972 16.9313 16.1472C16.7364 17.8042 15.2644 20.4912 12.0631 20.4912C8.86178 20.4912 7.3898 17.8042 7.19581 16.1472C7.05934 14.9972 7.04667 12.7212 7.05739 11.7262Z" fill="url(#paint71_radial_521_84)"/>
<path d="M7.05739 11.7262V11.5302C7.0565 11.417 7.08238 11.3053 7.13281 11.2047C7.18323 11.104 7.2567 11.0174 7.34691 10.9522C7.49898 10.8142 7.67542 10.6952 7.85089 10.5772C8.15698 10.3712 8.4621 10.1662 8.64049 9.85822H10.4615C10.7685 10.1522 11.4207 10.7412 12.9667 10.7412H15.6933C16.13 10.7232 17.0639 10.9642 17.0639 11.6392V11.7252H17.0688C17.0785 12.7202 17.0658 14.9972 16.9313 16.1472C16.7364 17.8042 15.2644 20.4912 12.0631 20.4912C8.86178 20.4912 7.3898 17.8042 7.19581 16.1472C7.05934 14.9972 7.04667 12.7212 7.05739 11.7262Z" fill="url(#paint72_radial_521_84)"/>
<path d="M7.05739 11.7262V11.5302C7.0565 11.417 7.08238 11.3053 7.13281 11.2047C7.18323 11.104 7.2567 11.0174 7.34691 10.9522C7.49898 10.8142 7.67542 10.6952 7.85089 10.5772C8.15698 10.3712 8.4621 10.1662 8.64049 9.85822H10.4615C10.7685 10.1522 11.4207 10.7412 12.9667 10.7412H15.6933C16.13 10.7232 17.0639 10.9642 17.0639 11.6392V11.7252H17.0688C17.0785 12.7202 17.0658 14.9972 16.9313 16.1472C16.7364 17.8042 15.2644 20.4912 12.0631 20.4912C8.86178 20.4912 7.3898 17.8042 7.19581 16.1472C7.05934 14.9972 7.04667 12.7212 7.05739 11.7262Z" fill="url(#paint73_radial_521_84)"/>
<path d="M7.05739 11.7262V11.5302C7.0565 11.417 7.08238 11.3053 7.13281 11.2047C7.18323 11.104 7.2567 11.0174 7.34691 10.9522C7.49898 10.8142 7.67542 10.6952 7.85089 10.5772C8.15698 10.3712 8.4621 10.1662 8.64049 9.85822H10.4615C10.7685 10.1522 11.4207 10.7412 12.9667 10.7412H15.6933C16.13 10.7232 17.0639 10.9642 17.0639 11.6392V11.7252H17.0688C17.0785 12.7202 17.0658 14.9972 16.9313 16.1472C16.7364 17.8042 15.2644 20.4912 12.0631 20.4912C8.86178 20.4912 7.3898 17.8042 7.19581 16.1472C7.05934 14.9972 7.04667 12.7212 7.05739 11.7262Z" fill="url(#paint74_radial_521_84)"/>
<path d="M7.05739 11.7262V11.5302C7.0565 11.417 7.08238 11.3053 7.13281 11.2047C7.18323 11.104 7.2567 11.0174 7.34691 10.9522C7.49898 10.8142 7.67542 10.6952 7.85089 10.5772C8.15698 10.3712 8.4621 10.1662 8.64049 9.85822H10.4615C10.7685 10.1522 11.4207 10.7412 12.9667 10.7412H15.6933C16.13 10.7232 17.0639 10.9642 17.0639 11.6392V11.7252H17.0688C17.0785 12.7202 17.0658 14.9972 16.9313 16.1472C16.7364 17.8042 15.2644 20.4912 12.0631 20.4912C8.86178 20.4912 7.3898 17.8042 7.19581 16.1472C7.05934 14.9972 7.04667 12.7212 7.05739 11.7262Z" fill="url(#paint75_radial_521_84)"/>
</g>
<path d="M7.05739 11.7262V11.5302C7.0565 11.417 7.08238 11.3053 7.13281 11.2047C7.18323 11.104 7.2567 11.0174 7.34691 10.9522C7.49898 10.8142 7.67542 10.6952 7.85089 10.5772C8.15698 10.3712 8.4621 10.1662 8.64049 9.85822H10.4615C10.7685 10.1522 11.4207 10.7412 12.9667 10.7412H15.6933C16.13 10.7232 17.0639 10.9642 17.0639 11.6392V11.7252H17.0688C17.0785 12.7202 17.0658 14.9972 16.9313 16.1472C16.7364 17.8042 15.2644 20.4912 12.0631 20.4912C8.86178 20.4912 7.3898 17.8042 7.19581 16.1472C7.05934 14.9972 7.04667 12.7212 7.05739 11.7262Z" fill="url(#paint76_radial_521_84)"/>
<path d="M7.05739 11.7262V11.5302C7.0565 11.417 7.08238 11.3053 7.13281 11.2047C7.18323 11.104 7.2567 11.0174 7.34691 10.9522C7.49898 10.8142 7.67542 10.6952 7.85089 10.5772C8.15698 10.3712 8.4621 10.1662 8.64049 9.85822H10.4615C10.7685 10.1522 11.4207 10.7412 12.9667 10.7412H15.6933C16.13 10.7232 17.0639 10.9642 17.0639 11.6392V11.7252H17.0688C17.0785 12.7202 17.0658 14.9972 16.9313 16.1472C16.7364 17.8042 15.2644 20.4912 12.0631 20.4912C8.86178 20.4912 7.3898 17.8042 7.19581 16.1472C7.05934 14.9972 7.04667 12.7212 7.05739 11.7262Z" fill="url(#paint77_radial_521_84)"/>
<path d="M7.05739 11.7262V11.5302C7.0565 11.417 7.08238 11.3053 7.13281 11.2047C7.18323 11.104 7.2567 11.0174 7.34691 10.9522C7.49898 10.8142 7.67542 10.6952 7.85089 10.5772C8.15698 10.3712 8.4621 10.1662 8.64049 9.85822H10.4615C10.7685 10.1522 11.4207 10.7412 12.9667 10.7412H15.6933C16.13 10.7232 17.0639 10.9642 17.0639 11.6392V11.7252H17.0688C17.0785 12.7202 17.0658 14.9972 16.9313 16.1472C16.7364 17.8042 15.2644 20.4912 12.0631 20.4912C8.86178 20.4912 7.3898 17.8042 7.19581 16.1472C7.05934 14.9972 7.04667 12.7212 7.05739 11.7262Z" fill="url(#paint78_radial_521_84)"/>
<path d="M7.05739 11.7262V11.5302C7.0565 11.417 7.08238 11.3053 7.13281 11.2047C7.18323 11.104 7.2567 11.0174 7.34691 10.9522C7.49898 10.8142 7.67542 10.6952 7.85089 10.5772C8.15698 10.3712 8.4621 10.1662 8.64049 9.85822H10.4615C10.7685 10.1522 11.4207 10.7412 12.9667 10.7412H15.6933C16.13 10.7232 17.0639 10.9642 17.0639 11.6392V11.7252H17.0688C17.0785 12.7202 17.0658 14.9972 16.9313 16.1472C16.7364 17.8042 15.2644 20.4912 12.0631 20.4912C8.86178 20.4912 7.3898 17.8042 7.19581 16.1472C7.05934 14.9972 7.04667 12.7212 7.05739 11.7262Z" fill="url(#paint79_radial_521_84)"/>
<g filter="url(#filter10_f_521_84)">
<path d="M12.0631 17.7152C11.5773 17.7165 11.0982 17.5993 10.6652 17.3732C10.5317 17.2952 10.3796 17.4612 10.4654 17.5982C10.6388 17.8708 10.8757 18.0947 11.1546 18.2497C11.4336 18.4047 11.7459 18.4859 12.0631 18.4859C12.3804 18.4859 12.6927 18.4047 12.9716 18.2497C13.2506 18.0947 13.4875 17.8708 13.6609 17.5982C13.7466 17.4612 13.5946 17.3052 13.461 17.3732C13.0516 17.5882 12.5769 17.7152 12.0631 17.7152Z" stroke="url(#paint80_radial_521_84)" stroke-width="0.15"/>
</g>
<path d="M12.0631 17.7152C11.5773 17.7165 11.0982 17.5993 10.6652 17.3732C10.5317 17.2952 10.3796 17.4612 10.4654 17.5982C10.6388 17.8708 10.8757 18.0947 11.1546 18.2497C11.4336 18.4047 11.7459 18.4859 12.0631 18.4859C12.3804 18.4859 12.6927 18.4047 12.9716 18.2497C13.2506 18.0947 13.4875 17.8708 13.6609 17.5982C13.7466 17.4612 13.5946 17.3052 13.461 17.3732C13.0516 17.5882 12.5769 17.7152 12.0631 17.7152Z" fill="#88024E"/>
<g filter="url(#filter11_f_521_84)">
<path d="M11.6293 14.5362L11.1575 16.1182C11.1346 16.1929 11.1291 16.272 11.1414 16.3492C11.1538 16.4264 11.1837 16.4996 11.2286 16.5628C11.2735 16.6261 11.3323 16.6776 11.4002 16.7132C11.4681 16.7489 11.5432 16.7677 11.6195 16.7682H12.3165C12.3927 16.7676 12.4677 16.7487 12.5355 16.7129C12.6033 16.6772 12.6619 16.6256 12.7068 16.5624C12.7516 16.4992 12.7814 16.4261 12.7937 16.349C12.806 16.2718 12.8005 16.1928 12.7776 16.1182L12.3068 14.5362C12.286 14.4605 12.2416 14.3938 12.1805 14.3462C12.1193 14.2987 12.0447 14.273 11.968 14.273C11.8913 14.273 11.8167 14.2987 11.7555 14.3462C11.6944 14.3938 11.6501 14.4605 11.6293 14.5362Z" fill="#D69B95"/>
</g>
<path d="M11.7716 14.2362L11.2803 15.9362C11.1799 16.2852 11.4207 16.6342 11.7619 16.6342H12.4891C12.8303 16.6342 13.0711 16.2792 12.9707 15.9352L12.4793 14.2352C12.4597 14.1541 12.4143 14.0821 12.3501 14.0307C12.286 13.9792 12.2069 13.9512 12.1255 13.9512C12.0441 13.9512 11.965 13.9792 11.9009 14.0307C11.8367 14.0821 11.7912 14.1551 11.7716 14.2362Z" fill="#EAB9A7"/>
<path d="M11.7716 14.2362L11.2803 15.9362C11.1799 16.2852 11.4207 16.6342 11.7619 16.6342H12.4891C12.8303 16.6342 13.0711 16.2792 12.9707 15.9352L12.4793 14.2352C12.4597 14.1541 12.4143 14.0821 12.3501 14.0307C12.286 13.9792 12.2069 13.9512 12.1255 13.9512C12.0441 13.9512 11.965 13.9792 11.9009 14.0307C11.8367 14.0821 11.7912 14.1551 11.7716 14.2362Z" fill="url(#paint81_linear_521_84)"/>
<path d="M11.7716 14.2362L11.2803 15.9362C11.1799 16.2852 11.4207 16.6342 11.7619 16.6342H12.4891C12.8303 16.6342 13.0711 16.2792 12.9707 15.9352L12.4793 14.2352C12.4597 14.1541 12.4143 14.0821 12.3501 14.0307C12.286 13.9792 12.2069 13.9512 12.1255 13.9512C12.0441 13.9512 11.965 13.9792 11.9009 14.0307C11.8367 14.0821 11.7912 14.1551 11.7716 14.2362Z" fill="url(#paint82_radial_521_84)"/>
<path d="M11.7716 14.2362L11.2803 15.9362C11.1799 16.2852 11.4207 16.6342 11.7619 16.6342H12.4891C12.8303 16.6342 13.0711 16.2792 12.9707 15.9352L12.4793 14.2352C12.4597 14.1541 12.4143 14.0821 12.3501 14.0307C12.286 13.9792 12.2069 13.9512 12.1255 13.9512C12.0441 13.9512 11.965 13.9792 11.9009 14.0307C11.8367 14.0821 11.7912 14.1551 11.7716 14.2362Z" fill="url(#paint83_radial_521_84)"/>
<g filter="url(#filter12_i_521_84)">
<path d="M13.2388 13.9532C13.4981 13.4862 13.8919 13.1172 14.738 13.1172C15.1085 13.1172 15.4662 13.2232 15.784 13.4872C16.0453 13.7032 16.0102 13.9812 15.8074 14.0852L15.2654 14.4032C14.6298 14.1932 13.928 14.1632 13.2388 13.9532Z" fill="#635D5F"/>
</g>
<g filter="url(#filter13_i_521_84)">
<path d="M11.0121 13.9532C10.7538 13.4862 10.3599 13.1172 9.51381 13.1172C9.14338 13.1172 8.78562 13.2232 8.46783 13.4872C8.2056 13.7032 8.2407 13.9812 8.44346 14.0852L8.98546 14.4032C9.62104 14.1932 10.3239 14.1632 11.0131 13.9532H11.0121Z" fill="#635D5F"/>
</g>
<path d="M14.4563 13.1762C15.0928 13.1762 15.6309 13.6262 15.7772 14.2352C15.7869 14.2757 15.7876 14.3179 15.7791 14.3587C15.7706 14.3994 15.7531 14.4376 15.728 14.4704C15.7029 14.5032 15.6708 14.5297 15.6342 14.5479C15.5977 14.566 15.5575 14.5754 15.5169 14.5752H13.3411C13.3082 14.5753 13.2757 14.568 13.2459 14.5538C13.2161 14.5395 13.1897 14.5188 13.1685 14.4929C13.1474 14.467 13.1321 14.4367 13.1237 14.4041C13.1153 14.3715 13.1139 14.3374 13.1198 14.3042C13.1808 13.9865 13.3473 13.7004 13.5911 13.4946C13.8348 13.2889 14.1406 13.1764 14.4563 13.1762Z" fill="white"/>
<path d="M14.2546 13.4482C14.3884 13.4482 14.5204 13.4799 14.6403 13.5408C14.7602 13.6017 14.8648 13.6902 14.9459 13.7994C15.027 13.9085 15.0825 14.0354 15.108 14.1701C15.1335 14.3049 15.1283 14.4438 15.0929 14.5762H13.4124C13.3777 14.4435 13.3732 14.3045 13.3993 14.1698C13.4253 14.0351 13.4812 13.9084 13.5626 13.7993C13.644 13.6903 13.7487 13.602 13.8687 13.5411C13.9887 13.4802 14.1207 13.4484 14.2546 13.4482Z" fill="url(#paint84_radial_521_84)"/>
<path d="M13.7562 14.3402C13.7562 14.2731 13.769 14.2067 13.7941 14.1448C13.8191 14.0829 13.8558 14.0266 13.9021 13.9792C13.9484 13.9319 14.0033 13.8943 14.0637 13.8687C14.1242 13.8432 14.1889 13.8301 14.2543 13.8302C14.3399 13.8299 14.4242 13.8522 14.4989 13.8951C14.5736 13.938 14.6363 14 14.6808 14.0751C14.7253 14.1501 14.7502 14.2357 14.753 14.3235C14.7558 14.4113 14.7365 14.4983 14.6969 14.5762H13.8156C13.7755 14.5044 13.755 14.4229 13.7562 14.3402Z" fill="black"/>
<g filter="url(#filter14_f_521_84)">
<path d="M14.1901 13.6362C14.2525 13.7222 14.1219 13.8262 13.9757 13.9382C13.8285 14.0512 13.7193 14.1312 13.6569 14.0462C13.5955 13.9612 13.6647 13.8002 13.8119 13.6872C13.9581 13.5752 14.1287 13.5512 14.1901 13.6362Z" fill="#C7A7A3"/>
<path d="M14.1901 13.6362C14.2525 13.7222 14.1219 13.8262 13.9757 13.9382C13.8285 14.0512 13.7193 14.1312 13.6569 14.0462C13.5955 13.9612 13.6647 13.8002 13.8119 13.6872C13.9581 13.5752 14.1287 13.5512 14.1901 13.6362Z" fill="url(#paint85_radial_521_84)"/>
</g>
<g filter="url(#filter15_f_521_84)">
<path d="M15.0294 14.2222C15.0036 14.0477 14.9248 13.8861 14.8042 13.7602L14.5508 14.0452L14.6648 14.2732L15.0294 14.2232V14.2222Z" fill="url(#paint86_linear_521_84)"/>
</g>
<path d="M9.79467 13.1762C9.15812 13.1762 8.62002 13.6262 8.47379 14.2352C8.4309 14.4092 8.56153 14.5752 8.73504 14.5752H10.9099C10.9427 14.5753 10.9752 14.568 11.0051 14.5538C11.0349 14.5395 11.0613 14.5188 11.0824 14.4929C11.1035 14.467 11.1188 14.4367 11.1273 14.4041C11.1357 14.3715 11.137 14.3374 11.1311 14.3042C11.0697 13.9869 10.9031 13.7012 10.6597 13.4956C10.4163 13.29 10.11 13.1772 9.79467 13.1762Z" fill="white"/>
<path d="M9.99647 13.4482C9.86274 13.4484 9.73086 13.4803 9.61106 13.5412C9.49126 13.6022 9.38677 13.6907 9.30569 13.7998C9.22461 13.9089 9.16912 14.0356 9.14353 14.1703C9.11794 14.3049 9.12293 14.4438 9.15812 14.5762H10.8387C10.8594 14.4996 10.8702 14.4206 10.8709 14.3412C10.8693 14.1041 10.7766 13.8773 10.6128 13.7101C10.4491 13.5428 10.2275 13.4487 9.99647 13.4482Z" fill="url(#paint87_radial_521_84)"/>
<path d="M10.4946 14.3402C10.4947 14.2731 10.4819 14.2067 10.4569 14.1447C10.4319 14.0827 10.3952 14.0263 10.3489 13.9789C10.3026 13.9315 10.2477 13.894 10.1872 13.8685C10.1267 13.843 10.0619 13.8299 9.99647 13.8302C9.91073 13.8296 9.8263 13.8518 9.75141 13.8946C9.67652 13.9374 9.61372 13.9994 9.56915 14.0746C9.52457 14.1497 9.49974 14.2354 9.49707 14.3233C9.4944 14.4113 9.51398 14.4984 9.5539 14.5762H10.4351C10.4734 14.5037 10.4938 14.4227 10.4946 14.3402Z" fill="black"/>
<g filter="url(#filter16_f_521_84)">
<path d="M10.7907 14.2362C10.7907 13.9472 10.5626 13.7552 10.5002 13.6962L10.2195 13.9762L10.392 14.3362L10.7907 14.2362Z" fill="url(#paint88_linear_521_84)"/>
</g>
<g filter="url(#filter17_f_521_84)">
<path d="M9.82421 14.0033C10.0093 13.9027 10.119 13.7432 10.0694 13.6471C10.0197 13.5509 9.82947 13.5545 9.64441 13.6551C9.45935 13.7557 9.34958 13.9152 9.39923 14.0113C9.44888 14.1074 9.63915 14.1038 9.82421 14.0033Z" fill="#C7A7A3" fill-opacity="0.9"/>
<path d="M9.82421 14.0033C10.0093 13.9027 10.119 13.7432 10.0694 13.6471C10.0197 13.5509 9.82947 13.5545 9.64441 13.6551C9.45935 13.7557 9.34958 13.9152 9.39923 14.0113C9.44888 14.1074 9.63915 14.1038 9.82421 14.0033Z" fill="url(#paint89_radial_521_84)"/>
</g>
<path fill-rule="evenodd" clip-rule="evenodd" d="M13.5769 14.9882C13.6053 14.9616 13.6386 14.9411 13.6747 14.9277C13.7109 14.9144 13.7493 14.9084 13.7876 14.9103C13.826 14.9122 13.8637 14.9218 13.8984 14.9386C13.9332 14.9554 13.9644 14.979 13.9903 15.0082C14.1394 15.1752 14.4562 15.4372 15.1142 15.4372C15.1918 15.4372 15.2662 15.4688 15.321 15.525C15.3759 15.5813 15.4067 15.6576 15.4067 15.7372C15.4067 15.8167 15.3759 15.8931 15.321 15.9493C15.2662 16.0056 15.1918 16.0372 15.1142 16.0372C14.273 16.0372 13.805 15.6892 13.5584 15.4122C13.5325 15.383 13.5125 15.3489 13.4995 15.3119C13.4865 15.2748 13.4807 15.2354 13.4825 15.196C13.4843 15.1567 13.4937 15.118 13.51 15.0824C13.5264 15.0467 13.5485 15.0147 13.5769 14.9882Z" fill="#F5B2A8"/>
<path fill-rule="evenodd" clip-rule="evenodd" d="M10.6808 14.9882C10.6524 14.9616 10.6192 14.9411 10.583 14.9277C10.5469 14.9144 10.5085 14.9084 10.4701 14.9103C10.4317 14.9122 10.3941 14.9218 10.3593 14.9386C10.3245 14.9554 10.2933 14.979 10.2675 15.0082C10.1193 15.1752 9.8025 15.4372 9.14352 15.4372C9.06596 15.4372 8.99157 15.4688 8.93673 15.525C8.88189 15.5813 8.85107 15.6576 8.85107 15.7372C8.85107 15.8167 8.88189 15.8931 8.93673 15.9493C8.99157 16.0056 9.06596 16.0372 9.14352 16.0372C9.98479 16.0372 10.4527 15.6892 10.7003 15.4122C10.7262 15.383 10.7462 15.3489 10.7592 15.3119C10.7723 15.2748 10.778 15.2354 10.7762 15.196C10.7744 15.1567 10.765 15.118 10.7487 15.0824C10.7323 15.0467 10.7092 15.0147 10.6808 14.9882Z" fill="#DD9992"/>
<g filter="url(#filter18_ii_521_84)">
<path d="M8.6521 12.3662C8.94162 12.1782 9.48654 11.9162 10.3853 12.0732" stroke="#A9AAAF" stroke-width="0.55" stroke-linecap="round"/>
<path d="M8.6521 12.3662C8.94162 12.1782 9.48654 11.9162 10.3853 12.0732" stroke="url(#paint90_radial_521_84)" stroke-width="0.55" stroke-linecap="round"/>
</g>
<g filter="url(#filter19_ii_521_84)">
<path d="M15.6094 12.3662C15.3199 12.1782 14.776 11.9162 13.8772 12.0732" stroke="#A8A9AF" stroke-width="0.55" stroke-linecap="round"/>
<path d="M15.6094 12.3662C15.3199 12.1782 14.776 11.9162 13.8772 12.0732" stroke="url(#paint91_radial_521_84)" stroke-width="0.55" stroke-linecap="round"/>
</g>
<g filter="url(#filter20_i_521_84)">
<path d="M19.5429 23.6472C19.5429 23.2472 19.8597 22.9152 20.2506 22.9152H22.9508C23.2611 22.9152 23.5586 23.0416 23.778 23.2667C23.9974 23.4917 24.1206 23.797 24.1206 24.1152V27.3222C24.1206 27.5874 24.0179 27.8418 23.8351 28.0293C23.6523 28.2169 23.4043 28.3222 23.1458 28.3222H20.2506C20.0888 28.3231 19.9315 28.2674 19.8046 28.1643C19.6778 28.0613 19.5889 27.917 19.5526 27.7552C19.5163 27.5935 19.5347 27.4238 19.6049 27.2743C19.6751 27.1247 19.7928 27.0041 19.9386 26.9322C19.8201 26.871 19.7205 26.7772 19.6508 26.6613C19.5812 26.5454 19.5443 26.4119 19.5443 26.2757C19.5443 26.1396 19.5812 26.0061 19.6508 25.8902C19.7205 25.7742 19.8201 25.6804 19.9386 25.6192C19.8198 25.5581 19.72 25.4643 19.6501 25.3482C19.5803 25.2322 19.5434 25.0986 19.5434 24.9622C19.5434 24.8259 19.5803 24.6922 19.6501 24.5762C19.72 24.4602 19.8198 24.3663 19.9386 24.3052C19.8196 24.2441 19.7195 24.1501 19.6496 24.0339C19.5797 23.9177 19.5427 23.7838 19.5429 23.6472Z" fill="url(#paint92_linear_521_84)"/>
<path d="M19.5429 23.6472C19.5429 23.2472 19.8597 22.9152 20.2506 22.9152H22.9508C23.2611 22.9152 23.5586 23.0416 23.778 23.2667C23.9974 23.4917 24.1206 23.797 24.1206 24.1152V27.3222C24.1206 27.5874 24.0179 27.8418 23.8351 28.0293C23.6523 28.2169 23.4043 28.3222 23.1458 28.3222H20.2506C20.0888 28.3231 19.9315 28.2674 19.8046 28.1643C19.6778 28.0613 19.5889 27.917 19.5526 27.7552C19.5163 27.5935 19.5347 27.4238 19.6049 27.2743C19.6751 27.1247 19.7928 27.0041 19.9386 26.9322C19.8201 26.871 19.7205 26.7772 19.6508 26.6613C19.5812 26.5454 19.5443 26.4119 19.5443 26.2757C19.5443 26.1396 19.5812 26.0061 19.6508 25.8902C19.7205 25.7742 19.8201 25.6804 19.9386 25.6192C19.8198 25.5581 19.72 25.4643 19.6501 25.3482C19.5803 25.2322 19.5434 25.0986 19.5434 24.9622C19.5434 24.8259 19.5803 24.6922 19.6501 24.5762C19.72 24.4602 19.8198 24.3663 19.9386 24.3052C19.8196 24.2441 19.7195 24.1501 19.6496 24.0339C19.5797 23.9177 19.5427 23.7838 19.5429 23.6472Z" fill="url(#paint93_radial_521_84)"/>
<path d="M19.5429 23.6472C19.5429 23.2472 19.8597 22.9152 20.2506 22.9152H22.9508C23.2611 22.9152 23.5586 23.0416 23.778 23.2667C23.9974 23.4917 24.1206 23.797 24.1206 24.1152V27.3222C24.1206 27.5874 24.0179 27.8418 23.8351 28.0293C23.6523 28.2169 23.4043 28.3222 23.1458 28.3222H20.2506C20.0888 28.3231 19.9315 28.2674 19.8046 28.1643C19.6778 28.0613 19.5889 27.917 19.5526 27.7552C19.5163 27.5935 19.5347 27.4238 19.6049 27.2743C19.6751 27.1247 19.7928 27.0041 19.9386 26.9322C19.8201 26.871 19.7205 26.7772 19.6508 26.6613C19.5812 26.5454 19.5443 26.4119 19.5443 26.2757C19.5443 26.1396 19.5812 26.0061 19.6508 25.8902C19.7205 25.7742 19.8201 25.6804 19.9386 25.6192C19.8198 25.5581 19.72 25.4643 19.6501 25.3482C19.5803 25.2322 19.5434 25.0986 19.5434 24.9622C19.5434 24.8259 19.5803 24.6922 19.6501 24.5762C19.72 24.4602 19.8198 24.3663 19.9386 24.3052C19.8196 24.2441 19.7195 24.1501 19.6496 24.0339C19.5797 23.9177 19.5427 23.7838 19.5429 23.6472Z" fill="url(#paint94_radial_521_84)"/>
<path d="M19.5429 23.6472C19.5429 23.2472 19.8597 22.9152 20.2506 22.9152H22.9508C23.2611 22.9152 23.5586 23.0416 23.778 23.2667C23.9974 23.4917 24.1206 23.797 24.1206 24.1152V27.3222C24.1206 27.5874 24.0179 27.8418 23.8351 28.0293C23.6523 28.2169 23.4043 28.3222 23.1458 28.3222H20.2506C20.0888 28.3231 19.9315 28.2674 19.8046 28.1643C19.6778 28.0613 19.5889 27.917 19.5526 27.7552C19.5163 27.5935 19.5347 27.4238 19.6049 27.2743C19.6751 27.1247 19.7928 27.0041 19.9386 26.9322C19.8201 26.871 19.7205 26.7772 19.6508 26.6613C19.5812 26.5454 19.5443 26.4119 19.5443 26.2757C19.5443 26.1396 19.5812 26.0061 19.6508 25.8902C19.7205 25.7742 19.8201 25.6804 19.9386 25.6192C19.8198 25.5581 19.72 25.4643 19.6501 25.3482C19.5803 25.2322 19.5434 25.0986 19.5434 24.9622C19.5434 24.8259 19.5803 24.6922 19.6501 24.5762C19.72 24.4602 19.8198 24.3663 19.9386 24.3052C19.8196 24.2441 19.7195 24.1501 19.6496 24.0339C19.5797 23.9177 19.5427 23.7838 19.5429 23.6472Z" fill="url(#paint95_radial_521_84)"/>
<path d="M19.5429 23.6472C19.5429 23.2472 19.8597 22.9152 20.2506 22.9152H22.9508C23.2611 22.9152 23.5586 23.0416 23.778 23.2667C23.9974 23.4917 24.1206 23.797 24.1206 24.1152V27.3222C24.1206 27.5874 24.0179 27.8418 23.8351 28.0293C23.6523 28.2169 23.4043 28.3222 23.1458 28.3222H20.2506C20.0888 28.3231 19.9315 28.2674 19.8046 28.1643C19.6778 28.0613 19.5889 27.917 19.5526 27.7552C19.5163 27.5935 19.5347 27.4238 19.6049 27.2743C19.6751 27.1247 19.7928 27.0041 19.9386 26.9322C19.8201 26.871 19.7205 26.7772 19.6508 26.6613C19.5812 26.5454 19.5443 26.4119 19.5443 26.2757C19.5443 26.1396 19.5812 26.0061 19.6508 25.8902C19.7205 25.7742 19.8201 25.6804 19.9386 25.6192C19.8198 25.5581 19.72 25.4643 19.6501 25.3482C19.5803 25.2322 19.5434 25.0986 19.5434 24.9622C19.5434 24.8259 19.5803 24.6922 19.6501 24.5762C19.72 24.4602 19.8198 24.3663 19.9386 24.3052C19.8196 24.2441 19.7195 24.1501 19.6496 24.0339C19.5797 23.9177 19.5427 23.7838 19.5429 23.6472Z" fill="url(#paint96_radial_521_84)"/>
</g>
<path d="M19.5429 23.6472C19.5429 23.2472 19.8597 22.9152 20.2506 22.9152H22.9508C23.2611 22.9152 23.5586 23.0416 23.778 23.2667C23.9974 23.4917 24.1206 23.797 24.1206 24.1152V27.3222C24.1206 27.5874 24.0179 27.8418 23.8351 28.0293C23.6523 28.2169 23.4043 28.3222 23.1458 28.3222H20.2506C20.0888 28.3231 19.9315 28.2674 19.8046 28.1643C19.6778 28.0613 19.5889 27.917 19.5526 27.7552C19.5163 27.5935 19.5347 27.4238 19.6049 27.2743C19.6751 27.1247 19.7928 27.0041 19.9386 26.9322C19.8201 26.871 19.7205 26.7772 19.6508 26.6613C19.5812 26.5454 19.5443 26.4119 19.5443 26.2757C19.5443 26.1396 19.5812 26.0061 19.6508 25.8902C19.7205 25.7742 19.8201 25.6804 19.9386 25.6192C19.8198 25.5581 19.72 25.4643 19.6501 25.3482C19.5803 25.2322 19.5434 25.0986 19.5434 24.9622C19.5434 24.8259 19.5803 24.6922 19.6501 24.5762C19.72 24.4602 19.8198 24.3663 19.9386 24.3052C19.8196 24.2441 19.7195 24.1501 19.6496 24.0339C19.5797 23.9177 19.5427 23.7838 19.5429 23.6472Z" fill="url(#paint97_linear_521_84)"/>
<g filter="url(#filter21_f_521_84)">
<path d="M20.0496 24.3002H21.8003" stroke="url(#paint98_linear_521_84)" stroke-width="0.1" stroke-linecap="round"/>
</g>
<g filter="url(#filter22_f_521_84)">
<path d="M19.9727 25.6042H21.7244" stroke="url(#paint99_linear_521_84)" stroke-width="0.1" stroke-linecap="round"/>
</g>
<g filter="url(#filter23_f_521_84)">
<path d="M20.0496 26.9092H21.8003" stroke="url(#paint100_linear_521_84)" stroke-width="0.1" stroke-linecap="round"/>
</g>
<defs>
<filter id="filter0_f_521_84" x="6.17891" y="16.2412" width="11.8065" height="6.85801" filterUnits="userSpaceOnUse" color-interpolation-filters="sRGB">
<feFlood flood-opacity="0" result="BackgroundImageFix"/>
<feBlend mode="normal" in="SourceGraphic" in2="BackgroundImageFix" result="shape"/>
<feGaussianBlur stdDeviation="0.1" result="effect1_foregroundBlur_521_84"/>
</filter>
<filter id="filter1_i_521_84" x="10.2549" y="19.4492" width="3.65552" height="3.00173" filterUnits="userSpaceOnUse" color-interpolation-filters="sRGB">
<feFlood flood-opacity="0" result="BackgroundImageFix"/>
<feBlend mode="normal" in="SourceGraphic" in2="BackgroundImageFix" result="shape"/>
<feColorMatrix in="SourceAlpha" type="matrix" values="0 0 0 0 0 0 0 0 0 0 0 0 0 0 0 0 0 0 127 0" result="hardAlpha"/>
<feOffset dy="-0.1"/>
<feGaussianBlur stdDeviation="0.25"/>
<feComposite in2="hardAlpha" operator="arithmetic" k2="-1" k3="1"/>
<feColorMatrix type="matrix" values="0 0 0 0 0.529412 0 0 0 0 0.384314 0 0 0 0 0.415686 0 0 0 1 0"/>
<feBlend mode="normal" in2="shape" result="effect1_innerShadow_521_84"/>
</filter>
<filter id="filter2_i_521_84" x="12.0347" y="0.0802002" width="6.17456" height="3.25" filterUnits="userSpaceOnUse" color-interpolation-filters="sRGB">
<feFlood flood-opacity="0" result="BackgroundImageFix"/>
<feBlend mode="normal" in="SourceGraphic" in2="BackgroundImageFix" result="shape"/>
<feColorMatrix in="SourceAlpha" type="matrix" values="0 0 0 0 0 0 0 0 0 0 0 0 0 0 0 0 0 0 127 0" result="hardAlpha"/>
<feOffset dx="0.25" dy="-0.25"/>
<feGaussianBlur stdDeviation="0.25"/>
<feComposite in2="hardAlpha" operator="arithmetic" k2="-1" k3="1"/>
<feColorMatrix type="matrix" values="0 0 0 0 0.305882 0 0 0 0 0.521569 0 0 0 0 0.878431 0 0 0 1 0"/>
<feBlend mode="normal" in2="shape" result="effect1_innerShadow_521_84"/>
</filter>
<filter id="filter3_f_521_84" x="0.854492" y="9.24023" width="22.5264" height="7.65997" filterUnits="userSpaceOnUse" color-interpolation-filters="sRGB">
<feFlood flood-opacity="0" result="BackgroundImageFix"/>
<feBlend mode="normal" in="SourceGraphic" in2="BackgroundImageFix" result="shape"/>
<feGaussianBlur stdDeviation="0.125" result="effect1_foregroundBlur_521_84"/>
</filter>
<filter id="filter4_i_521_84" x="19.2874" y="3.59338" width="5.32642" height="21.8568" filterUnits="userSpaceOnUse" color-interpolation-filters="sRGB">
<feFlood flood-opacity="0" result="BackgroundImageFix"/>
<feBlend mode="normal" in="SourceGraphic" in2="BackgroundImageFix" result="shape"/>
<feColorMatrix in="SourceAlpha" type="matrix" values="0 0 0 0 0 0 0 0 0 0 0 0 0 0 0 0 0 0 127 0" result="hardAlpha"/>
<feOffset dx="0.25"/>
<feGaussianBlur stdDeviation="0.5"/>
<feComposite in2="hardAlpha" operator="arithmetic" k2="-1" k3="1"/>
<feColorMatrix type="matrix" values="0 0 0 0 0.74902 0 0 0 0 0.45098 0 0 0 0 0.364706 0 0 0 1 0"/>
<feBlend mode="normal" in2="shape" result="effect1_innerShadow_521_84"/>
</filter>
<filter id="filter5_f_521_84" x="21.3139" y="7.35122" width="1.8" height="17.408" filterUnits="userSpaceOnUse" color-interpolation-filters="sRGB">
<feFlood flood-opacity="0" result="BackgroundImageFix"/>
<feBlend mode="normal" in="SourceGraphic" in2="BackgroundImageFix" result="shape"/>
<feGaussianBlur stdDeviation="0.325" result="effect1_foregroundBlur_521_84"/>
</filter>
<filter id="filter6_i_521_84" x="10.4399" y="9.65822" width="7.87793" height="7.47399" filterUnits="userSpaceOnUse" color-interpolation-filters="sRGB">
<feFlood flood-opacity="0" result="BackgroundImageFix"/>
<feBlend mode="normal" in="SourceGraphic" in2="BackgroundImageFix" result="shape"/>
<feColorMatrix in="SourceAlpha" type="matrix" values="0 0 0 0 0 0 0 0 0 0 0 0 0 0 0 0 0 0 127 0" result="hardAlpha"/>
<feOffset dy="-0.2"/>
<feGaussianBlur stdDeviation="0.15"/>
<feComposite in2="hardAlpha" operator="arithmetic" k2="-1" k3="1"/>
<feColorMatrix type="matrix" values="0 0 0 0 0.458824 0 0 0 0 0.443137 0 0 0 0 0.443137 0 0 0 1 0"/>
<feBlend mode="normal" in2="shape" result="effect1_innerShadow_521_84"/>
</filter>
<filter id="filter7_f_521_84" x="6.14844" y="13.1442" width="2.75366" height="2.81201" filterUnits="userSpaceOnUse" color-interpolation-filters="sRGB">
<feFlood flood-opacity="0" result="BackgroundImageFix"/>
<feBlend mode="normal" in="SourceGraphic" in2="BackgroundImageFix" result="shape"/>
<feGaussianBlur stdDeviation="0.125" result="effect1_foregroundBlur_521_84"/>
</filter>
<filter id="filter8_f_521_84" x="15.443" y="13.2442" width="2.55366" height="2.61201" filterUnits="userSpaceOnUse" color-interpolation-filters="sRGB">
<feFlood flood-opacity="0" result="BackgroundImageFix"/>
<feBlend mode="normal" in="SourceGraphic" in2="BackgroundImageFix" result="shape"/>
<feGaussianBlur stdDeviation="0.075" result="effect1_foregroundBlur_521_84"/>
</filter>
<filter id="filter9_ii_521_84" x="7.05444" y="9.85822" width="10.7668" height="10.833" filterUnits="userSpaceOnUse" color-interpolation-filters="sRGB">
<feFlood flood-opacity="0" result="BackgroundImageFix"/>
<feBlend mode="normal" in="SourceGraphic" in2="BackgroundImageFix" result="shape"/>
<feColorMatrix in="SourceAlpha" type="matrix" values="0 0 0 0 0 0 0 0 0 0 0 0 0 0 0 0 0 0 127 0" result="hardAlpha"/>
<feOffset dx="0.75"/>
<feGaussianBlur stdDeviation="0.375"/>
<feComposite in2="hardAlpha" operator="arithmetic" k2="-1" k3="1"/>
<feColorMatrix type="matrix" values="0 0 0 0 0.839216 0 0 0 0 0.631373 0 0 0 0 0.596078 0 0 0 1 0"/>
<feBlend mode="normal" in2="shape" result="effect1_innerShadow_521_84"/>
<feColorMatrix in="SourceAlpha" type="matrix" values="0 0 0 0 0 0 0 0 0 0 0 0 0 0 0 0 0 0 127 0" result="hardAlpha"/>
<feOffset dy="0.2"/>
<feGaussianBlur stdDeviation="0.2"/>
<feComposite in2="hardAlpha" operator="arithmetic" k2="-1" k3="1"/>
<feColorMatrix type="matrix" values="0 0 0 0 0.854902 0 0 0 0 0.639216 0 0 0 0 0.572549 0 0 0 1 0"/>
<feBlend mode="normal" in2="effect1_innerShadow_521_84" result="effect2_innerShadow_521_84"/>
</filter>
<filter id="filter10_f_521_84" x="10.2655" y="17.1781" width="3.596" height="1.48278" filterUnits="userSpaceOnUse" color-interpolation-filters="sRGB">
<feFlood flood-opacity="0" result="BackgroundImageFix"/>
<feBlend mode="normal" in="SourceGraphic" in2="BackgroundImageFix" result="shape"/>
<feGaussianBlur stdDeviation="0.05" result="effect1_foregroundBlur_521_84"/>
</filter>
<filter id="filter11_f_521_84" x="10.635" y="13.773" width="2.66504" height="3.49518" filterUnits="userSpaceOnUse" color-interpolation-filters="sRGB">
<feFlood flood-opacity="0" result="BackgroundImageFix"/>
<feBlend mode="normal" in="SourceGraphic" in2="BackgroundImageFix" result="shape"/>
<feGaussianBlur stdDeviation="0.25" result="effect1_foregroundBlur_521_84"/>
</filter>
<filter id="filter12_i_521_84" x="13.0388" y="13.1172" width="2.93096" height="1.28601" filterUnits="userSpaceOnUse" color-interpolation-filters="sRGB">
<feFlood flood-opacity="0" result="BackgroundImageFix"/>
<feBlend mode="normal" in="SourceGraphic" in2="BackgroundImageFix" result="shape"/>
<feColorMatrix in="SourceAlpha" type="matrix" values="0 0 0 0 0 0 0 0 0 0 0 0 0 0 0 0 0 0 127 0" result="hardAlpha"/>
<feOffset dx="-0.2"/>
<feGaussianBlur stdDeviation="0.2"/>
<feComposite in2="hardAlpha" operator="arithmetic" k2="-1" k3="1"/>
<feColorMatrix type="matrix" values="0 0 0 0 0.141176 0 0 0 0 0.0862745 0 0 0 0 0.176471 0 0 0 1 0"/>
<feBlend mode="normal" in2="shape" result="effect1_innerShadow_521_84"/>
</filter>
<filter id="filter13_i_521_84" x="8.28125" y="13.1172" width="2.93193" height="1.28601" filterUnits="userSpaceOnUse" color-interpolation-filters="sRGB">
<feFlood flood-opacity="0" result="BackgroundImageFix"/>
<feBlend mode="normal" in="SourceGraphic" in2="BackgroundImageFix" result="shape"/>
<feColorMatrix in="SourceAlpha" type="matrix" values="0 0 0 0 0 0 0 0 0 0 0 0 0 0 0 0 0 0 127 0" result="hardAlpha"/>
<feOffset dx="0.2"/>
<feGaussianBlur stdDeviation="0.125"/>
<feComposite in2="hardAlpha" operator="arithmetic" k2="-1" k3="1"/>
<feColorMatrix type="matrix" values="0 0 0 0 0.133333 0 0 0 0 0.0784314 0 0 0 0 0.168627 0 0 0 1 0"/>
<feBlend mode="normal" in2="shape" result="effect1_innerShadow_521_84"/>
</filter>
<filter id="filter14_f_521_84" x="13.5345" y="13.4852" width="0.771533" height="0.696521" filterUnits="userSpaceOnUse" color-interpolation-filters="sRGB">
<feFlood flood-opacity="0" result="BackgroundImageFix"/>
<feBlend mode="normal" in="SourceGraphic" in2="BackgroundImageFix" result="shape"/>
<feGaussianBlur stdDeviation="0.05" result="effect1_foregroundBlur_521_84"/>
</filter>
<filter id="filter15_f_521_84" x="14.3508" y="13.5602" width="0.878516" height="0.913" filterUnits="userSpaceOnUse" color-interpolation-filters="sRGB">
<feFlood flood-opacity="0" result="BackgroundImageFix"/>
<feBlend mode="normal" in="SourceGraphic" in2="BackgroundImageFix" result="shape"/>
<feGaussianBlur stdDeviation="0.1" result="effect1_foregroundBlur_521_84"/>
</filter>
<filter id="filter16_f_521_84" x="10.0195" y="13.4962" width="0.971289" height="1.04001" filterUnits="userSpaceOnUse" color-interpolation-filters="sRGB">
<feFlood flood-opacity="0" result="BackgroundImageFix"/>
<feBlend mode="normal" in="SourceGraphic" in2="BackgroundImageFix" result="shape"/>
<feGaussianBlur stdDeviation="0.1" result="effect1_foregroundBlur_521_84"/>
</filter>
<filter id="filter17_f_521_84" x="9.28721" y="13.4773" width="0.894092" height="0.703845" filterUnits="userSpaceOnUse" color-interpolation-filters="sRGB">
<feFlood flood-opacity="0" result="BackgroundImageFix"/>
<feBlend mode="normal" in="SourceGraphic" in2="BackgroundImageFix" result="shape"/>
<feGaussianBlur stdDeviation="0.05" result="effect1_foregroundBlur_521_84"/>
</filter>
<filter id="filter18_ii_521_84" x="8.37695" y="11.6001" width="2.33345" height="1.14111" filterUnits="userSpaceOnUse" color-interpolation-filters="sRGB">
<feFlood flood-opacity="0" result="BackgroundImageFix"/>
<feBlend mode="normal" in="SourceGraphic" in2="BackgroundImageFix" result="shape"/>
<feColorMatrix in="SourceAlpha" type="matrix" values="0 0 0 0 0 0 0 0 0 0 0 0 0 0 0 0 0 0 127 0" result="hardAlpha"/>
<feOffset dx="0.05" dy="-0.15"/>
<feGaussianBlur stdDeviation="0.125"/>
<feComposite in2="hardAlpha" operator="arithmetic" k2="-1" k3="1"/>
<feColorMatrix type="matrix" values="0 0 0 0 0.392157 0 0 0 0 0.384314 0 0 0 0 0.384314 0 0 0 1 0"/>
<feBlend mode="normal" in2="shape" result="effect1_innerShadow_521_84"/>
<feColorMatrix in="SourceAlpha" type="matrix" values="0 0 0 0 0 0 0 0 0 0 0 0 0 0 0 0 0 0 127 0" result="hardAlpha"/>
<feOffset dy="0.1"/>
<feGaussianBlur stdDeviation="0.1"/>
<feComposite in2="hardAlpha" operator="arithmetic" k2="-1" k3="1"/>
<feColorMatrix type="matrix" values="0 0 0 0 0.635294 0 0 0 0 0.643137 0 0 0 0 0.67451 0 0 0 1 0"/>
<feBlend mode="normal" in2="effect1_innerShadow_521_84" result="effect2_innerShadow_521_84"/>
</filter>
<filter id="filter19_ii_521_84" x="13.6021" y="11.6001" width="2.33247" height="1.14111" filterUnits="userSpaceOnUse" color-interpolation-filters="sRGB">
<feFlood flood-opacity="0" result="BackgroundImageFix"/>
<feBlend mode="normal" in="SourceGraphic" in2="BackgroundImageFix" result="shape"/>
<feColorMatrix in="SourceAlpha" type="matrix" values="0 0 0 0 0 0 0 0 0 0 0 0 0 0 0 0 0 0 127 0" result="hardAlpha"/>
<feOffset dx="0.05" dy="-0.15"/>
<feGaussianBlur stdDeviation="0.125"/>
<feComposite in2="hardAlpha" operator="arithmetic" k2="-1" k3="1"/>
<feColorMatrix type="matrix" values="0 0 0 0 0.392157 0 0 0 0 0.384314 0 0 0 0 0.384314 0 0 0 1 0"/>
<feBlend mode="normal" in2="shape" result="effect1_innerShadow_521_84"/>
<feColorMatrix in="SourceAlpha" type="matrix" values="0 0 0 0 0 0 0 0 0 0 0 0 0 0 0 0 0 0 127 0" result="hardAlpha"/>
<feOffset dy="0.1"/>
<feGaussianBlur stdDeviation="0.1"/>
<feComposite in2="hardAlpha" operator="arithmetic" k2="-1" k3="1"/>
<feColorMatrix type="matrix" values="0 0 0 0 0.635294 0 0 0 0 0.643137 0 0 0 0 0.67451 0 0 0 1 0"/>
<feBlend mode="normal" in2="effect1_innerShadow_521_84" result="effect2_innerShadow_521_84"/>
</filter>
<filter id="filter20_i_521_84" x="19.5344" y="22.7652" width="4.78618" height="5.55698" filterUnits="userSpaceOnUse" color-interpolation-filters="sRGB">
<feFlood flood-opacity="0" result="BackgroundImageFix"/>
<feBlend mode="normal" in="SourceGraphic" in2="BackgroundImageFix" result="shape"/>
<feColorMatrix in="SourceAlpha" type="matrix" values="0 0 0 0 0 0 0 0 0 0 0 0 0 0 0 0 0 0 127 0" result="hardAlpha"/>
<feOffset dx="0.2" dy="-0.15"/>
<feGaussianBlur stdDeviation="0.5"/>
<feComposite in2="hardAlpha" operator="arithmetic" k2="-1" k3="1"/>
<feColorMatrix type="matrix" values="0 0 0 0 0.768627 0 0 0 0 0.52549 0 0 0 0 0.592157 0 0 0 1 0"/>
<feBlend mode="normal" in2="shape" result="effect1_innerShadow_521_84"/>
</filter>
<filter id="filter21_f_521_84" x="19.8995" y="24.1502" width="2.05083" height="0.299976" filterUnits="userSpaceOnUse" color-interpolation-filters="sRGB">
<feFlood flood-opacity="0" result="BackgroundImageFix"/>
<feBlend mode="normal" in="SourceGraphic" in2="BackgroundImageFix" result="shape"/>
<feGaussianBlur stdDeviation="0.05" result="effect1_foregroundBlur_521_84"/>
</filter>
<filter id="filter22_f_521_84" x="19.8226" y="25.4542" width="2.05181" height="0.299976" filterUnits="userSpaceOnUse" color-interpolation-filters="sRGB">
<feFlood flood-opacity="0" result="BackgroundImageFix"/>
<feBlend mode="normal" in="SourceGraphic" in2="BackgroundImageFix" result="shape"/>
<feGaussianBlur stdDeviation="0.05" result="effect1_foregroundBlur_521_84"/>
</filter>
<filter id="filter23_f_521_84" x="19.8995" y="26.7592" width="2.05083" height="0.299976" filterUnits="userSpaceOnUse" color-interpolation-filters="sRGB">
<feFlood flood-opacity="0" result="BackgroundImageFix"/>
<feBlend mode="normal" in="SourceGraphic" in2="BackgroundImageFix" result="shape"/>
<feGaussianBlur stdDeviation="0.05" result="effect1_foregroundBlur_521_84"/>
</filter>
<radialGradient id="paint0_radial_521_84" cx="0" cy="0" r="1" gradientUnits="userSpaceOnUse" gradientTransform="translate(16.985 28.7682) rotate(-90) scale(8.03125 6.99972)">
<stop stop-color="#3180EC"/>
<stop offset="1" stop-color="#39A7FF" stop-opacity="0"/>
</radialGradient>
<radialGradient id="paint1_radial_521_84" cx="0" cy="0" r="1" gradientUnits="userSpaceOnUse" gradientTransform="translate(19.1784 28.1432) rotate(-90) scale(8.6875 0.761576)">
<stop stop-color="#46A7ED"/>
<stop offset="1" stop-color="#3797F8" stop-opacity="0"/>
</radialGradient>
<radialGradient id="paint2_radial_521_84" cx="0" cy="0" r="1" gradientUnits="userSpaceOnUse" gradientTransform="translate(5.16535 28.3222) scale(3.0463 19.1959)">
<stop offset="0.1" stop-color="#2787F2"/>
<stop offset="1" stop-color="#39A8FF" stop-opacity="0"/>
</radialGradient>
<radialGradient id="paint3_radial_521_84" cx="0" cy="0" r="1" gradientUnits="userSpaceOnUse" gradientTransform="translate(16.3752 30.5178) rotate(-136.107) scale(14.9644 18.006)">
<stop offset="0.565" stop-color="#39A8FF" stop-opacity="0"/>
<stop offset="1" stop-color="#2F79B8"/>
</radialGradient>
<radialGradient id="paint4_radial_521_84" cx="0" cy="0" r="1" gradientUnits="userSpaceOnUse" gradientTransform="translate(5.14683 28.2062) rotate(-87.5188) scale(6.75633 3.74078)">
<stop offset="0.488" stop-color="#2E99F4"/>
<stop offset="1" stop-color="#307FC2"/>
</radialGradient>
<radialGradient id="paint5_radial_521_84" cx="0" cy="0" r="1" gradientUnits="userSpaceOnUse" gradientTransform="translate(3.33367 28.5182) rotate(-90) scale(1.125 3.87449)">
<stop stop-color="#2982EE"/>
<stop offset="1" stop-color="#2982EE" stop-opacity="0"/>
</radialGradient>
<radialGradient id="paint6_radial_521_84" cx="0" cy="0" r="1" gradientUnits="userSpaceOnUse" gradientTransform="translate(5.14683 28.3222) rotate(180) scale(0.621397 7.24389)">
<stop stop-color="#41A8FF"/>
<stop offset="1" stop-color="#41A8FF" stop-opacity="0"/>
</radialGradient>
<radialGradient id="paint7_radial_521_84" cx="0" cy="0" r="1" gradientUnits="userSpaceOnUse" gradientTransform="translate(19.788 19.4554) rotate(82.5619) scale(8.94189 3.08915)">
<stop stop-color="#4AB4F4"/>
<stop offset="1" stop-color="#2D82D6"/>
</radialGradient>
<radialGradient id="paint8_radial_521_84" cx="0" cy="0" r="1" gradientUnits="userSpaceOnUse" gradientTransform="translate(19.0339 28.3222) scale(0.814528 8.41461)">
<stop stop-color="#267ADB"/>
<stop offset="0.85" stop-color="#267ADB" stop-opacity="0"/>
</radialGradient>
<linearGradient id="paint9_linear_521_84" x1="17.8078" y1="19.9862" x2="7.11499" y2="19.9862" gradientUnits="userSpaceOnUse">
<stop stop-color="#3291C8"/>
<stop offset="1" stop-color="#3F7EC7"/>
</linearGradient>
<radialGradient id="paint10_radial_521_84" cx="0" cy="0" r="1" gradientUnits="userSpaceOnUse" gradientTransform="translate(9.52134 20.4242) rotate(124.219) scale(1.62508 5.09371)">
<stop offset="0.252" stop-color="#3395E6"/>
<stop offset="1" stop-color="#3395E6" stop-opacity="0"/>
</radialGradient>
<radialGradient id="paint11_radial_521_84" cx="0" cy="0" r="1" gradientUnits="userSpaceOnUse" gradientTransform="translate(12.0827 18.0492) rotate(90) scale(4.625 11.1511)">
<stop offset="0.764" stop-color="#2483F6" stop-opacity="0"/>
<stop offset="1" stop-color="#2483F6"/>
</radialGradient>
<radialGradient id="paint12_radial_521_84" cx="0" cy="0" r="1" gradientUnits="userSpaceOnUse" gradientTransform="translate(15.554 20.2992) rotate(-30.0212) scale(5.55894 1.32799)">
<stop stop-color="#4AB3F9"/>
<stop offset="1" stop-color="#3F9DE9" stop-opacity="0"/>
</radialGradient>
<radialGradient id="paint13_radial_521_84" cx="0" cy="0" r="1" gradientUnits="userSpaceOnUse" gradientTransform="translate(7.23685 16.4862) rotate(146.989) scale(4.35933 3.13412)">
<stop offset="0.19" stop-color="#073880"/>
<stop offset="1" stop-color="#1B67AB" stop-opacity="0"/>
</radialGradient>
<radialGradient id="paint14_radial_521_84" cx="0" cy="0" r="1" gradientUnits="userSpaceOnUse" gradientTransform="translate(14.579 25.8616) rotate(-69.7129) scale(10.4553 22.4776)">
<stop offset="0.677" stop-color="#4394DB" stop-opacity="0"/>
<stop offset="0.949" stop-color="#12529B"/>
</radialGradient>
<radialGradient id="paint15_radial_521_84" cx="0" cy="0" r="1" gradientUnits="userSpaceOnUse" gradientTransform="translate(12.0827 22.9402) rotate(-90) scale(6.88478 14.1332)">
<stop offset="0.924" stop-color="#445E86" stop-opacity="0"/>
<stop offset="0.985" stop-color="#4A6A97"/>
</radialGradient>
<radialGradient id="paint16_radial_521_84" cx="0" cy="0" r="1" gradientUnits="userSpaceOnUse" gradientTransform="translate(11.1671 22.7992) rotate(-49.5359) scale(1.15003 4.19791)">
<stop stop-color="#3AA4E9"/>
<stop offset="1" stop-color="#3979AA" stop-opacity="0"/>
</radialGradient>
<linearGradient id="paint17_linear_521_84" x1="12.5368" y1="17.8932" x2="13.3049" y2="22.1675" gradientUnits="userSpaceOnUse">
<stop offset="0.391" stop-color="#1C3B69"/>
<stop offset="1" stop-color="#307099" stop-opacity="0"/>
</linearGradient>
<radialGradient id="paint18_radial_521_84" cx="0" cy="0" r="1" gradientUnits="userSpaceOnUse" gradientTransform="translate(15.7205 20.5492) rotate(-131.261) scale(0.623578 5.58391)">
<stop offset="0.13" stop-color="#3E6082"/>
<stop offset="1" stop-color="#3E6082" stop-opacity="0"/>
</radialGradient>
<radialGradient id="paint19_radial_521_84" cx="0" cy="0" r="1" gradientUnits="userSpaceOnUse" gradientTransform="translate(14.8641 20.9909) rotate(141.424) scale(3.5582 0.895643)">
<stop stop-color="#0A5185"/>
<stop offset="1" stop-color="#0A5185" stop-opacity="0"/>
</radialGradient>
<radialGradient id="paint20_radial_521_84" cx="0" cy="0" r="1" gradientUnits="userSpaceOnUse" gradientTransform="translate(11.2733 22.5652) rotate(-58.3542) scale(1.54175 2.48283)">
<stop offset="0.087" stop-color="#43AAF7"/>
<stop offset="1" stop-color="#43AAF7" stop-opacity="0"/>
</radialGradient>
<radialGradient id="paint21_radial_521_84" cx="0" cy="0" r="1" gradientUnits="userSpaceOnUse" gradientTransform="translate(10.4557 18.9192) rotate(39.1224) scale(3.29841 6.15159)">
<stop offset="0.393" stop-color="#805664"/>
<stop offset="1" stop-color="#805664" stop-opacity="0"/>
</radialGradient>
<radialGradient id="paint22_radial_521_84" cx="0" cy="0" r="1" gradientUnits="userSpaceOnUse" gradientTransform="translate(13.4552 19.5492) rotate(115.501) scale(3.35834 0.306597)">
<stop offset="0.448" stop-color="#98757E"/>
<stop offset="1" stop-color="#98757E" stop-opacity="0"/>
</radialGradient>
<radialGradient id="paint23_radial_521_84" cx="0" cy="0" r="1" gradientUnits="userSpaceOnUse" gradientTransform="translate(13.4209 1.4862) rotate(10.9739) scale(5.089 1.52819)">
<stop offset="0.17" stop-color="#4CDBFF"/>
<stop offset="1" stop-color="#2BBBFF"/>
</radialGradient>
<linearGradient id="paint24_linear_521_84" x1="15.4309" y1="3.5332" x2="15.7664" y2="2.1781" gradientUnits="userSpaceOnUse">
<stop stop-color="#2CAAFC"/>
<stop offset="1" stop-color="#2CAAFC" stop-opacity="0"/>
</linearGradient>
<linearGradient id="paint25_linear_521_84" x1="4.47694" y1="18.3062" x2="18.5777" y2="18.3062" gradientUnits="userSpaceOnUse">
<stop offset="0.006" stop-color="#CACACA"/>
<stop offset="1" stop-color="#E4E4E4"/>
</linearGradient>
<linearGradient id="paint26_linear_521_84" x1="4.47694" y1="18.3062" x2="18.5777" y2="18.3062" gradientUnits="userSpaceOnUse">
<stop offset="0.006" stop-color="#CACACA"/>
<stop offset="1" stop-color="#E4E4E4"/>
</linearGradient>
<radialGradient id="paint27_radial_521_84" cx="0" cy="0" r="1" gradientUnits="userSpaceOnUse" gradientTransform="translate(14.3042 2.1432) rotate(150.088) scale(5.20139 7.85934)">
<stop offset="0.063" stop-color="#4BDAFF"/>
<stop offset="1" stop-color="#2CB1F7"/>
</radialGradient>
<linearGradient id="paint28_linear_521_84" x1="13.6949" y1="6.8302" x2="13.6949" y2="5.6432" gradientUnits="userSpaceOnUse">
<stop stop-color="#50B2E2"/>
<stop offset="1" stop-color="#50B2E2" stop-opacity="0"/>
</linearGradient>
<radialGradient id="paint29_radial_521_84" cx="0" cy="0" r="1" gradientUnits="userSpaceOnUse" gradientTransform="translate(15.0665 5.8612) rotate(-168.712) scale(6.64769 12.7001)">
<stop offset="0.613" stop-color="#2FA9E7" stop-opacity="0"/>
<stop offset="1" stop-color="#4991BB"/>
</radialGradient>
<linearGradient id="paint30_linear_521_84" x1="10.5882" y1="8.2362" x2="16.4977" y2="8.08795" gradientUnits="userSpaceOnUse">
<stop stop-color="#423851"/>
<stop offset="1" stop-color="#584D65"/>
</linearGradient>
<linearGradient id="paint31_linear_521_84" x1="18.0816" y1="7.6112" x2="15.5529" y2="7.6112" gradientUnits="userSpaceOnUse">
<stop stop-color="#665D70"/>
<stop offset="1" stop-color="#665D70" stop-opacity="0"/>
</linearGradient>
<linearGradient id="paint32_linear_521_84" x1="6.26191" y1="7.8452" x2="8.44381" y2="8.81809" gradientUnits="userSpaceOnUse">
<stop stop-color="#57515F"/>
<stop offset="1" stop-color="#423952" stop-opacity="0"/>
</linearGradient>
<radialGradient id="paint33_radial_521_84" cx="0" cy="0" r="1" gradientUnits="userSpaceOnUse" gradientTransform="translate(12.1225 7.65919) rotate(90) scale(9.15156 24.0959)">
<stop stop-color="#35ACFA"/>
<stop offset="0.652" stop-color="#3171DA"/>
</radialGradient>
<radialGradient id="paint34_radial_521_84" cx="0" cy="0" r="1" gradientUnits="userSpaceOnUse" gradientTransform="translate(9.46321 7.30619) rotate(90) scale(2.64742 16.7936)">
<stop offset="0.167" stop-color="#2FB4F5"/>
<stop offset="1" stop-color="#359CF2" stop-opacity="0"/>
</radialGradient>
<radialGradient id="paint35_radial_521_84" cx="0" cy="0" r="1" gradientUnits="userSpaceOnUse" gradientTransform="translate(22.092 9.03619) rotate(180) scale(8.46488 2.80263)">
<stop offset="0.254" stop-color="#3DA9F9"/>
<stop offset="1" stop-color="#3DA9F9" stop-opacity="0"/>
</radialGradient>
<radialGradient id="paint36_radial_521_84" cx="0" cy="0" r="1" gradientUnits="userSpaceOnUse" gradientTransform="translate(21.2312 7.88019) rotate(180) scale(9.91009 1.56292)">
<stop offset="0.083" stop-color="#2D6BA6"/>
<stop offset="1" stop-color="#2FA3F0" stop-opacity="0"/>
</radialGradient>
<radialGradient id="paint37_radial_521_84" cx="0" cy="0" r="1" gradientUnits="userSpaceOnUse" gradientTransform="translate(21.0596 10.2362) rotate(-90) scale(5.15365 1.25596)">
<stop offset="0.051" stop-color="#2E74CB"/>
<stop offset="1" stop-color="#2E74CB" stop-opacity="0"/>
</radialGradient>
<radialGradient id="paint38_radial_521_84" cx="0" cy="0" r="1" gradientUnits="userSpaceOnUse" gradientTransform="translate(6.93282 16.6429) rotate(-118.649) scale(3.24047 6.54483)">
<stop stop-color="#104E9B"/>
<stop offset="1" stop-color="#104E9B" stop-opacity="0"/>
</radialGradient>
<radialGradient id="paint39_radial_521_84" cx="0" cy="0" r="1" gradientUnits="userSpaceOnUse" gradientTransform="translate(17.5639 16.5182) scale(3.71649 1.78125)">
<stop stop-color="#1868C3"/>
<stop offset="1" stop-color="#1868C3" stop-opacity="0"/>
</radialGradient>
<radialGradient id="paint40_radial_521_84" cx="0" cy="0" r="1" gradientUnits="userSpaceOnUse" gradientTransform="translate(24.6441 22.2912) rotate(153.85) scale(2.31891 2.31136)">
<stop offset="0.524" stop-color="#FBC4A9"/>
<stop offset="1" stop-color="#EDA886"/>
</radialGradient>
<radialGradient id="paint41_radial_521_84" cx="0" cy="0" r="1" gradientUnits="userSpaceOnUse" gradientTransform="translate(24.0007 21.7002) rotate(-34.624) scale(0.962499 0.744503)">
<stop offset="0.132" stop-color="#FFDFC5"/>
<stop offset="1" stop-color="#FFDFC5" stop-opacity="0"/>
</radialGradient>
<radialGradient id="paint42_radial_521_84" cx="0" cy="0" r="1" gradientUnits="userSpaceOnUse" gradientTransform="translate(20.3365 16.1432) rotate(-142.858) scale(10.3098 13.1573)">
<stop offset="0.23" stop-color="#257BD2"/>
<stop offset="1" stop-color="#2E65D4"/>
</radialGradient>
<radialGradient id="paint43_radial_521_84" cx="0" cy="0" r="1" gradientUnits="userSpaceOnUse" gradientTransform="translate(17.107 11.6122) scale(1.16521 0.58033)">
<stop stop-color="#215A98"/>
<stop offset="1" stop-color="#215A98" stop-opacity="0"/>
</radialGradient>
<radialGradient id="paint44_radial_521_84" cx="0" cy="0" r="1" gradientUnits="userSpaceOnUse" gradientTransform="translate(7.4202 11.7992) rotate(180) scale(1.56884 0.8125)">
<stop stop-color="#14488D"/>
<stop offset="1" stop-color="#14488D" stop-opacity="0"/>
</radialGradient>
<radialGradient id="paint45_radial_521_84" cx="0" cy="0" r="1" gradientUnits="userSpaceOnUse" gradientTransform="translate(6.90078 15.6739) rotate(-176.973) scale(2.95904 4.5986)">
<stop offset="0.113" stop-color="#1956AE"/>
<stop offset="1" stop-color="#1956AE" stop-opacity="0"/>
</radialGradient>
<radialGradient id="paint46_radial_521_84" cx="0" cy="0" r="1" gradientUnits="userSpaceOnUse" gradientTransform="translate(2.02781 15.7986) rotate(-51.5994) scale(3.48198 3.61227)">
<stop stop-color="#3171DB"/>
<stop offset="1" stop-color="#3171DB" stop-opacity="0"/>
</radialGradient>
<radialGradient id="paint47_radial_521_84" cx="0" cy="0" r="1" gradientUnits="userSpaceOnUse" gradientTransform="translate(17.3009 10.1162) scale(2.86353 5.40625)">
<stop offset="0.138" stop-color="#2863CB"/>
<stop offset="1" stop-color="#2863CB" stop-opacity="0"/>
</radialGradient>
<linearGradient id="paint48_linear_521_84" x1="12.1177" y1="9.69021" x2="12.1177" y2="15.1432" gradientUnits="userSpaceOnUse">
<stop stop-color="#4478E6"/>
<stop offset="1" stop-color="#4478E6" stop-opacity="0"/>
</linearGradient>
<linearGradient id="paint49_linear_521_84" x1="20.5274" y1="8.85921" x2="24.3663" y2="8.85921" gradientUnits="userSpaceOnUse">
<stop stop-color="#D98350"/>
<stop offset="1" stop-color="#E4A771"/>
</linearGradient>
<radialGradient id="paint50_radial_521_84" cx="0" cy="0" r="1" gradientUnits="userSpaceOnUse" gradientTransform="translate(19.0867 5.64321) rotate(51.3454) scale(4.68194 4.81687)">
<stop offset="0.217" stop-color="#BA756C"/>
<stop offset="1" stop-color="#BA756C" stop-opacity="0"/>
</radialGradient>
<radialGradient id="paint51_radial_521_84" cx="0" cy="0" r="1" gradientUnits="userSpaceOnUse" gradientTransform="translate(21.8269 5.77921) rotate(90) scale(1.61462 2.01407)">
<stop offset="0.759" stop-color="#BA795B"/>
<stop offset="1" stop-color="#BA795B" stop-opacity="0"/>
</radialGradient>
<radialGradient id="paint52_radial_521_84" cx="0" cy="0" r="1" gradientUnits="userSpaceOnUse" gradientTransform="translate(25.3071 6.25653) rotate(144.673) scale(3.92985 2.65945)">
<stop stop-color="#CC8C6F"/>
<stop offset="1" stop-color="#CC8C6F" stop-opacity="0"/>
</radialGradient>
<radialGradient id="paint53_radial_521_84" cx="0" cy="0" r="1" gradientUnits="userSpaceOnUse" gradientTransform="translate(23.4629 3.65023) rotate(143.981) scale(4.0055 4.52924)">
<stop stop-color="#4DDCFF"/>
<stop offset="1" stop-color="#2F85FE"/>
</radialGradient>
<radialGradient id="paint54_radial_521_84" cx="0" cy="0" r="1" gradientUnits="userSpaceOnUse" gradientTransform="translate(22.835 5.4243) rotate(-132.619) scale(4.54392 4.57935)">
<stop offset="0.691" stop-color="#39A1FF" stop-opacity="0"/>
<stop offset="0.913" stop-color="#4093BE"/>
</radialGradient>
<radialGradient id="paint55_radial_521_84" cx="0" cy="0" r="1" gradientUnits="userSpaceOnUse" gradientTransform="translate(23.046 4.51837) rotate(-110.783) scale(2.18932 2.83946)">
<stop offset="0.052" stop-color="white" stop-opacity="0"/>
<stop offset="1" stop-color="white"/>
</radialGradient>
<linearGradient id="paint56_linear_521_84" x1="-nan" y1="-nan" x2="-nan" y2="-nan" gradientUnits="userSpaceOnUse">
<stop stop-color="#E3A984"/>
<stop offset="1" stop-color="#E3A984" stop-opacity="0"/>
</linearGradient>
<radialGradient id="paint57_radial_521_84" cx="0" cy="0" r="1" gradientUnits="userSpaceOnUse" gradientTransform="translate(13.0973 10.1782) scale(4.11251 1.2718)">
<stop stop-color="#B8B9C0"/>
<stop offset="1" stop-color="#B8B9C0" stop-opacity="0"/>
</radialGradient>
<radialGradient id="paint58_radial_521_84" cx="0" cy="0" r="1" gradientUnits="userSpaceOnUse" gradientTransform="translate(14.3792 13.0852) rotate(15.1788) scale(4.41601 8.15373)">
<stop offset="0.773" stop-color="#B7B0B7" stop-opacity="0"/>
<stop offset="1" stop-color="#B7B0B7"/>
</radialGradient>
<radialGradient id="paint59_radial_521_84" cx="0" cy="0" r="1" gradientUnits="userSpaceOnUse" gradientTransform="translate(17.0872 13.4952) rotate(-90) scale(2.53516 1.08143)">
<stop offset="0.599" stop-color="#636368"/>
<stop offset="1" stop-color="#636368" stop-opacity="0"/>
</radialGradient>
<radialGradient id="paint60_radial_521_84" cx="0" cy="0" r="1" gradientUnits="userSpaceOnUse" gradientTransform="translate(14.3792 13.7102) rotate(-47.4875) scale(5.22507 10.2562)">
<stop offset="0.809" stop-color="#6A75B9" stop-opacity="0"/>
<stop offset="0.989" stop-color="#6A75B9"/>
</radialGradient>
<radialGradient id="paint61_radial_521_84" cx="0" cy="0" r="1" gradientUnits="userSpaceOnUse" gradientTransform="translate(8.88085 13.6184) rotate(161.787) scale(3.06058 5.56457)">
<stop offset="0.669" stop-color="#6B76AD" stop-opacity="0"/>
<stop offset="0.931" stop-color="#6B76AD"/>
</radialGradient>
<radialGradient id="paint62_radial_521_84" cx="0" cy="0" r="1" gradientUnits="userSpaceOnUse" gradientTransform="translate(7.76517 12.0382) rotate(131.541) scale(2.61977 1.29223)">
<stop offset="0.3" stop-color="#413E41"/>
<stop offset="1" stop-color="#54555E" stop-opacity="0"/>
</radialGradient>
<radialGradient id="paint63_radial_521_84" cx="0" cy="0" r="1" gradientUnits="userSpaceOnUse" gradientTransform="translate(8.16777 10.3262) rotate(143.912) scale(1.61211 0.468244)">
<stop stop-color="#7D7E84"/>
<stop offset="1" stop-color="#7D7E84" stop-opacity="0"/>
</radialGradient>
<linearGradient id="paint64_linear_521_84" x1="7.22025" y1="9.86621" x2="7.22025" y2="10.4132" gradientUnits="userSpaceOnUse">
<stop stop-color="#757BA3"/>
<stop offset="1" stop-color="#757BA3" stop-opacity="0"/>
</linearGradient>
<radialGradient id="paint65_radial_521_84" cx="0" cy="0" r="1" gradientUnits="userSpaceOnUse" gradientTransform="translate(6.10162 15.3916) rotate(-57.6551) scale(2.27535 6.10286)">
<stop offset="0.128" stop-color="#B38185"/>
<stop offset="1" stop-color="#9A6F81"/>
</radialGradient>
<radialGradient id="paint66_radial_521_84" cx="0" cy="0" r="1" gradientUnits="userSpaceOnUse" gradientTransform="translate(7.52525 14.3704) rotate(139.594) scale(1.82902 2.27909)">
<stop offset="0.781" stop-color="#B78992" stop-opacity="0"/>
<stop offset="1" stop-color="#B78992"/>
</radialGradient>
<radialGradient id="paint67_radial_521_84" cx="0" cy="0" r="1" gradientUnits="userSpaceOnUse" gradientTransform="translate(16.5598 15.4702) rotate(-56.981) scale(2.99753 2.11233)">
<stop offset="0.656" stop-color="#C69C9A"/>
<stop offset="1" stop-color="#A77F8D"/>
</radialGradient>
<radialGradient id="paint68_radial_521_84" cx="0" cy="0" r="1" gradientUnits="userSpaceOnUse" gradientTransform="translate(17.3143 14.2692) rotate(-34.8778) scale(0.732563 1.05199)">
<stop offset="0.648" stop-color="#C0989A"/>
<stop offset="1" stop-color="#C0989A" stop-opacity="0"/>
</radialGradient>
<radialGradient id="paint69_radial_521_84" cx="0" cy="0" r="1" gradientUnits="userSpaceOnUse" gradientTransform="translate(7.26213 14.6282) rotate(180) scale(0.770759 0.79067)">
<stop stop-color="#A7787B"/>
<stop offset="1" stop-color="#A97A80"/>
</radialGradient>
<radialGradient id="paint70_radial_521_84" cx="0" cy="0" r="1" gradientUnits="userSpaceOnUse" gradientTransform="translate(16.5483 14.2992) scale(1.29924 1.12348)">
<stop offset="0.388" stop-color="#C2958F"/>
<stop offset="1" stop-color="#B88A87"/>
</radialGradient>
<radialGradient id="paint71_radial_521_84" cx="0" cy="0" r="1" gradientUnits="userSpaceOnUse" gradientTransform="translate(14.2239 15.1752) rotate(176.725) scale(5.91949 7.16714)">
<stop stop-color="#FFCDB8"/>
<stop offset="1" stop-color="#D09A97"/>
</radialGradient>
<radialGradient id="paint72_radial_521_84" cx="0" cy="0" r="1" gradientUnits="userSpaceOnUse" gradientTransform="translate(17.4226 12.3032) rotate(180) scale(1.52315 7.59237)">
<stop stop-color="#BD9593"/>
<stop offset="1" stop-color="#BD9593" stop-opacity="0"/>
</radialGradient>
<radialGradient id="paint73_radial_521_84" cx="0" cy="0" r="1" gradientUnits="userSpaceOnUse" gradientTransform="translate(14.1784 10.6632) rotate(-20.457) scale(2.86119 2.22617)">
<stop offset="0.133" stop-color="#E9B8A9"/>
<stop offset="1" stop-color="#E9B8A9" stop-opacity="0"/>
</radialGradient>
<radialGradient id="paint74_radial_521_84" cx="0" cy="0" r="1" gradientUnits="userSpaceOnUse" gradientTransform="translate(14.3217 13.5612) rotate(-90) scale(1.46076 1.82778)">
<stop stop-color="#EDB5A5"/>
<stop offset="1" stop-color="#EDB5A5" stop-opacity="0"/>
</radialGradient>
<radialGradient id="paint75_radial_521_84" cx="0" cy="0" r="1" gradientUnits="userSpaceOnUse" gradientTransform="translate(9.86779 13.7002) rotate(-123.402) scale(1.27271 1.3703)">
<stop offset="0.001" stop-color="#D09992"/>
<stop offset="1" stop-color="#D09992" stop-opacity="0"/>
</radialGradient>
<radialGradient id="paint76_radial_521_84" cx="0" cy="0" r="1" gradientUnits="userSpaceOnUse" gradientTransform="translate(12.0641 12.8972) rotate(90) scale(7.8125 7.36032)">
<stop offset="0.727" stop-color="#C99299" stop-opacity="0"/>
<stop offset="0.98" stop-color="#A07591"/>
</radialGradient>
<radialGradient id="paint77_radial_521_84" cx="0" cy="0" r="1" gradientUnits="userSpaceOnUse" gradientTransform="translate(6.72985 10.3972) rotate(90) scale(4.4375 1.67547)">
<stop stop-color="#A77F86"/>
<stop offset="1" stop-color="#A77F86" stop-opacity="0"/>
</radialGradient>
<radialGradient id="paint78_radial_521_84" cx="0" cy="0" r="1" gradientUnits="userSpaceOnUse" gradientTransform="translate(9.53245 9.33522) rotate(90) scale(2.21875 7.50885)">
<stop offset="0.141" stop-color="#AB7A8C"/>
<stop offset="1" stop-color="#C59796" stop-opacity="0"/>
</radialGradient>
<radialGradient id="paint79_radial_521_84" cx="0" cy="0" r="1" gradientUnits="userSpaceOnUse" gradientTransform="translate(7.74355 9.85871) rotate(140.603) scale(3.16349 0.928874)">
<stop offset="0.52" stop-color="#9B7A79"/>
<stop offset="1" stop-color="#9B7A79" stop-opacity="0"/>
</radialGradient>
<radialGradient id="paint80_radial_521_84" cx="0" cy="0" r="1" gradientUnits="userSpaceOnUse" gradientTransform="translate(11.025 18.2102) rotate(-60.6473) scale(0.466086 1.35273)">
<stop stop-color="#DDABA8"/>
<stop offset="1" stop-color="#DDABA8" stop-opacity="0"/>
</radialGradient>
<linearGradient id="paint81_linear_521_84" x1="11.2579" y1="15.6402" x2="11.8853" y2="15.7229" gradientUnits="userSpaceOnUse">
<stop stop-color="#DDA798"/>
<stop offset="1" stop-color="#DDA798" stop-opacity="0"/>
</linearGradient>
<radialGradient id="paint82_radial_521_84" cx="0" cy="0" r="1" gradientUnits="userSpaceOnUse" gradientTransform="translate(12.7289 16.0112) rotate(-100.942) scale(2.36382 0.609297)">
<stop stop-color="#FBCABB"/>
<stop offset="1" stop-color="#FBCABB" stop-opacity="0"/>
</radialGradient>
<radialGradient id="paint83_radial_521_84" cx="0" cy="0" r="1" gradientUnits="userSpaceOnUse" gradientTransform="translate(12.1255 16.6342) rotate(-90) scale(0.64471 1.74523)">
<stop offset="0.25" stop-color="#DFA59E"/>
<stop offset="1" stop-color="#DFA59E" stop-opacity="0"/>
</radialGradient>
<radialGradient id="paint84_radial_521_84" cx="0" cy="0" r="1" gradientUnits="userSpaceOnUse" gradientTransform="translate(14.2526 13.9252) rotate(90) scale(0.81132 1.25799)">
<stop offset="0.802" stop-color="#7D574A"/>
<stop offset="1" stop-color="#664944"/>
</radialGradient>
<radialGradient id="paint85_radial_521_84" cx="0" cy="0" r="1" gradientUnits="userSpaceOnUse" gradientTransform="translate(14.0306 14.0086) rotate(-127.107) scale(0.374431 0.512094)">
<stop offset="0.766" stop-color="#FFE6E2" stop-opacity="0"/>
<stop offset="0.966" stop-color="#FFE6E2"/>
</radialGradient>
<linearGradient id="paint86_linear_521_84" x1="15.0109" y1="13.9792" x2="14.7006" y2="14.1651" gradientUnits="userSpaceOnUse">
<stop stop-color="#B4948D"/>
<stop offset="1" stop-color="#B4948D" stop-opacity="0"/>
</linearGradient>
<radialGradient id="paint87_radial_521_84" cx="0" cy="0" r="1" gradientUnits="userSpaceOnUse" gradientTransform="translate(9.99842 13.9252) rotate(90) scale(0.81132 1.258)">
<stop offset="0.802" stop-color="#7D574A"/>
<stop offset="1" stop-color="#664944"/>
</radialGradient>
<linearGradient id="paint88_linear_521_84" x1="10.7235" y1="13.9792" x2="10.4131" y2="14.1652" gradientUnits="userSpaceOnUse">
<stop stop-color="#B4948D"/>
<stop offset="1" stop-color="#B4948D" stop-opacity="0"/>
</linearGradient>
<radialGradient id="paint89_radial_521_84" cx="0" cy="0" r="1" gradientUnits="userSpaceOnUse" gradientTransform="translate(9.86428 14.115) rotate(-118.198) scale(0.490861 0.581898)">
<stop offset="0.766" stop-color="#FFE6E2" stop-opacity="0"/>
<stop offset="0.966" stop-color="#FFE6E2"/>
</radialGradient>
<radialGradient id="paint90_radial_521_84" cx="0" cy="0" r="1" gradientUnits="userSpaceOnUse" gradientTransform="translate(10.6154 11.9652) rotate(178.618) scale(0.327576 0.783506)">
<stop stop-color="#B2B2B8"/>
<stop offset="1" stop-color="#B2B2B8" stop-opacity="0"/>
</radialGradient>
<radialGradient id="paint91_radial_521_84" cx="0" cy="0" r="1" gradientUnits="userSpaceOnUse" gradientTransform="translate(15.8611 12.4537) rotate(-154.178) scale(0.448412 1.06242)">
<stop stop-color="#B2B2B8"/>
<stop offset="1" stop-color="#B2B2B8" stop-opacity="0"/>
</radialGradient>
<linearGradient id="paint92_linear_521_84" x1="23.8135" y1="26.3842" x2="19.5429" y2="26.3842" gradientUnits="userSpaceOnUse">
<stop offset="0.146" stop-color="#FFDEC2"/>
<stop offset="0.861" stop-color="#EEB6A5"/>
</linearGradient>
<radialGradient id="paint93_radial_521_84" cx="0" cy="0" r="1" gradientUnits="userSpaceOnUse" gradientTransform="translate(22.1261 23.6262) rotate(90) scale(0.8017 1.43601)">
<stop offset="0.106" stop-color="#FFD1BB"/>
<stop offset="1" stop-color="#FFD1BB" stop-opacity="0"/>
</radialGradient>
<radialGradient id="paint94_radial_521_84" cx="0" cy="0" r="1" gradientUnits="userSpaceOnUse" gradientTransform="translate(22.1261 24.9212) rotate(90) scale(0.85938 1.53931)">
<stop offset="0.109" stop-color="#FFD1BB"/>
<stop offset="1" stop-color="#FFD1BB" stop-opacity="0"/>
</radialGradient>
<radialGradient id="paint95_radial_521_84" cx="0" cy="0" r="1" gradientUnits="userSpaceOnUse" gradientTransform="translate(22.1261 26.1712) rotate(90) scale(0.71875 1.28742)">
<stop offset="0.109" stop-color="#FFD1BB"/>
<stop offset="1" stop-color="#FFD1BB" stop-opacity="0"/>
</radialGradient>
<radialGradient id="paint96_radial_521_84" cx="0" cy="0" r="1" gradientUnits="userSpaceOnUse" gradientTransform="translate(22.1261 27.5222) rotate(90) scale(0.79938 1.83139)">
<stop offset="0.186" stop-color="#FFD1BB"/>
<stop offset="1" stop-color="#FFD1BB" stop-opacity="0"/>
</radialGradient>
<linearGradient id="paint97_linear_521_84" x1="24.4735" y1="26.6692" x2="22.1281" y2="26.6692" gradientUnits="userSpaceOnUse">
<stop stop-color="#FFDFBF"/>
<stop offset="1" stop-color="#FFDFBF" stop-opacity="0"/>
</linearGradient>
<linearGradient id="paint98_linear_521_84" x1="-nan" y1="-nan" x2="-nan" y2="-nan" gradientUnits="userSpaceOnUse">
<stop stop-color="#CA8B73"/>
<stop offset="1" stop-color="#CA8B73" stop-opacity="0"/>
</linearGradient>
<linearGradient id="paint99_linear_521_84" x1="-nan" y1="-nan" x2="-nan" y2="-nan" gradientUnits="userSpaceOnUse">
<stop stop-color="#CA8B73"/>
<stop offset="1" stop-color="#CA8B73" stop-opacity="0"/>
</linearGradient>
<linearGradient id="paint100_linear_521_84" x1="-nan" y1="-nan" x2="-nan" y2="-nan" gradientUnits="userSpaceOnUse">
<stop stop-color="#CA8B73"/>
<stop offset="1" stop-color="#CA8B73" stop-opacity="0"/>
</linearGradient>
</defs>
</svg>
