<svg width="336" height="552" viewBox="0 0 336 552" fill="none" xmlns="http://www.w3.org/2000/svg">
<path d="M63.3451 105.877C57.3406 105.877 54.5155 99.8358 54.3974 99.5814C54.2946 99.2987 54.3018 98.9876 54.4177 98.7099C54.5336 98.4322 54.7496 98.2083 55.0229 98.0825C55.2963 97.9567 55.6069 97.9382 55.8932 98.0308C56.1795 98.1234 56.4205 98.3202 56.5684 98.5822C56.5684 98.6639 58.9575 103.615 63.5267 103.488C63.8271 103.504 64.1101 103.634 64.3196 103.85C64.5292 104.065 64.6499 104.352 64.6579 104.653C64.6659 104.954 64.5606 105.246 64.3628 105.473C64.1651 105.7 63.8893 105.844 63.5903 105.877H63.3451Z" fill="#407BFF"/>
<path d="M141.823 21.9866C141.3 21.9889 140.778 21.9555 140.26 21.8867C140.105 21.8634 139.956 21.8098 139.822 21.729C139.687 21.6481 139.57 21.5416 139.477 21.4155C139.384 21.2894 139.316 21.1462 139.278 20.994C139.241 20.8418 139.233 20.6837 139.256 20.5286C139.28 20.3735 139.333 20.2245 139.414 20.0902C139.495 19.9558 139.601 19.8387 139.728 19.7455C139.854 19.6522 139.997 19.5848 140.149 19.5469C140.301 19.5091 140.459 19.5016 140.614 19.5248C140.669 19.5248 146.137 20.297 148.536 16.3999C148.617 16.2663 148.725 16.1501 148.851 16.058C148.978 15.9658 149.121 15.8995 149.274 15.8628C149.426 15.8261 149.584 15.8197 149.739 15.8441C149.893 15.8685 150.042 15.9231 150.175 16.0048C150.309 16.0865 150.425 16.1937 150.517 16.3204C150.609 16.447 150.676 16.5905 150.712 16.7428C150.749 16.895 150.755 17.053 150.731 17.2077C150.707 17.3624 150.652 17.5108 150.57 17.6444C148.181 21.4234 144.048 21.9866 141.823 21.9866Z" fill="#407BFF"/>
<path opacity="0.6" d="M141.823 21.9866C141.3 21.9889 140.778 21.9555 140.26 21.8867C140.105 21.8634 139.956 21.8098 139.822 21.729C139.687 21.6481 139.57 21.5416 139.477 21.4155C139.384 21.2894 139.316 21.1462 139.278 20.994C139.241 20.8418 139.233 20.6837 139.256 20.5286C139.28 20.3735 139.333 20.2245 139.414 20.0902C139.495 19.9558 139.601 19.8387 139.728 19.7455C139.854 19.6522 139.997 19.5848 140.149 19.5469C140.301 19.5091 140.459 19.5016 140.614 19.5248C140.669 19.5248 146.137 20.297 148.536 16.3999C148.617 16.2663 148.725 16.1501 148.851 16.058C148.978 15.9658 149.121 15.8995 149.274 15.8628C149.426 15.8261 149.584 15.8197 149.739 15.8441C149.893 15.8685 150.042 15.9231 150.175 16.0048C150.309 16.0865 150.425 16.1937 150.517 16.3204C150.609 16.447 150.676 16.5905 150.712 16.7428C150.749 16.895 150.755 17.053 150.731 17.2077C150.707 17.3624 150.652 17.5108 150.57 17.6444C148.181 21.4234 144.048 21.9866 141.823 21.9866Z" fill="white"/>
<path d="M7.01574 67.4789C4.71103 67.4004 2.47279 66.6868 0.547964 65.4168C0.412177 65.3298 0.295492 65.2161 0.204998 65.0826C0.114503 64.9491 0.0520868 64.7986 0.0215403 64.6402C-0.00900624 64.4819 -0.00704502 64.319 0.027303 64.1614C0.061651 64.0038 0.12767 63.8549 0.22135 63.7236C0.31503 63.5923 0.434417 63.4815 0.572259 63.3978C0.710101 63.314 0.863521 63.2592 1.0232 63.2366C1.18288 63.214 1.3455 63.2241 1.50116 63.2663C1.65682 63.3084 1.80229 63.3818 1.92873 63.4819C1.97415 63.4819 6.55245 66.5796 10.4131 64.1178C10.5454 64.0216 10.6959 63.9535 10.8554 63.9177C11.0149 63.8818 11.18 63.879 11.3407 63.9093C11.5013 63.9396 11.6541 64.0024 11.7896 64.094C11.925 64.1855 12.0404 64.3037 12.1285 64.4415C12.2166 64.5792 12.2756 64.7335 12.3018 64.8948C12.3281 65.0562 12.3211 65.2212 12.2813 65.3798C12.2414 65.5383 12.1696 65.6871 12.0702 65.8169C11.9707 65.9466 11.8458 66.0547 11.7031 66.1344C10.3036 67.0267 8.67536 67.4938 7.01574 67.4789Z" fill="#407BFF"/>
<path opacity="0.6" d="M7.01574 67.4789C4.71103 67.4004 2.47279 66.6868 0.547964 65.4168C0.412177 65.3298 0.295492 65.2161 0.204998 65.0826C0.114503 64.9491 0.0520868 64.7986 0.0215403 64.6402C-0.00900624 64.4819 -0.00704502 64.319 0.027303 64.1614C0.061651 64.0038 0.12767 63.8549 0.22135 63.7236C0.31503 63.5923 0.434417 63.4815 0.572259 63.3978C0.710101 63.314 0.863521 63.2592 1.0232 63.2366C1.18288 63.214 1.3455 63.2241 1.50116 63.2663C1.65682 63.3084 1.80229 63.3818 1.92873 63.4819C1.97415 63.4819 6.55245 66.5796 10.4131 64.1178C10.5454 64.0216 10.6959 63.9535 10.8554 63.9177C11.0149 63.8818 11.18 63.879 11.3407 63.9093C11.5013 63.9396 11.6541 64.0024 11.7896 64.094C11.925 64.1855 12.0404 64.3037 12.1285 64.4415C12.2166 64.5792 12.2756 64.7335 12.3018 64.8948C12.3281 65.0562 12.3211 65.2212 12.2813 65.3798C12.2414 65.5383 12.1696 65.6871 12.0702 65.8169C11.9707 65.9466 11.8458 66.0547 11.7031 66.1344C10.3036 67.0267 8.67536 67.4938 7.01574 67.4789Z" fill="white"/>
<path d="M318.623 35.6213C316.322 35.5593 314.082 34.8681 312.146 33.6229C311.886 33.4434 311.708 33.1679 311.65 32.857C311.593 32.5461 311.662 32.2252 311.842 31.965C312.021 31.7049 312.297 31.5266 312.608 31.4695C312.918 31.4125 313.239 31.4812 313.499 31.6607C313.545 31.6607 318.132 34.7493 321.993 32.2966C322.125 32.2125 322.272 32.1552 322.426 32.1279C322.58 32.1007 322.738 32.104 322.89 32.1378C323.043 32.1715 323.188 32.235 323.316 32.3246C323.444 32.4142 323.553 32.5282 323.637 32.66C323.721 32.7918 323.779 32.9389 323.806 33.0928C323.833 33.2468 323.83 33.4046 323.796 33.5573C323.762 33.71 323.699 33.8545 323.609 33.9827C323.52 34.1108 323.406 34.2201 323.274 34.3042C321.884 35.1849 320.268 35.6425 318.623 35.6213Z" fill="#407BFF"/>
<path opacity="0.6" d="M318.623 35.6213C316.322 35.5593 314.082 34.8681 312.146 33.6229C311.886 33.4434 311.708 33.1679 311.65 32.857C311.593 32.5461 311.662 32.2252 311.842 31.965C312.021 31.7049 312.297 31.5266 312.608 31.4695C312.918 31.4125 313.239 31.4812 313.499 31.6607C313.545 31.6607 318.132 34.7493 321.993 32.2966C322.125 32.2125 322.272 32.1552 322.426 32.1279C322.58 32.1007 322.738 32.104 322.89 32.1378C323.043 32.1715 323.188 32.235 323.316 32.3246C323.444 32.4142 323.553 32.5282 323.637 32.66C323.721 32.7918 323.779 32.9389 323.806 33.0928C323.833 33.2468 323.83 33.4046 323.796 33.5573C323.762 33.71 323.699 33.8545 323.609 33.9827C323.52 34.1108 323.406 34.2201 323.274 34.3042C321.884 35.1849 320.268 35.6425 318.623 35.6213Z" fill="white"/>
<path d="M172.534 129.45C166.965 129.45 163.931 124.054 163.795 123.808C163.642 123.531 163.606 123.205 163.693 122.901C163.781 122.597 163.986 122.34 164.263 122.187C164.54 122.034 164.867 121.997 165.171 122.085C165.475 122.173 165.731 122.378 165.884 122.655C165.884 122.728 168.61 127.488 173.152 127.024C173.455 127.014 173.752 127.119 173.981 127.319C174.21 127.518 174.355 127.797 174.386 128.1C174.417 128.402 174.332 128.705 174.149 128.947C173.965 129.189 173.696 129.353 173.397 129.404C173.124 129.431 172.825 129.45 172.534 129.45Z" fill="#407BFF"/>
<path opacity="0.6" d="M172.534 129.45C166.965 129.45 163.931 124.054 163.795 123.808C163.642 123.531 163.606 123.205 163.693 122.901C163.781 122.597 163.986 122.34 164.263 122.187C164.54 122.034 164.867 121.997 165.171 122.085C165.475 122.173 165.731 122.378 165.884 122.655C165.884 122.728 168.61 127.488 173.152 127.024C173.455 127.014 173.752 127.119 173.981 127.319C174.21 127.518 174.355 127.797 174.386 128.1C174.417 128.402 174.332 128.705 174.149 128.947C173.965 129.189 173.696 129.353 173.397 129.404C173.124 129.431 172.825 129.45 172.534 129.45Z" fill="white"/>
<path d="M20.096 153.713C19.8067 153.71 19.5282 153.603 19.3126 153.41C19.097 153.217 18.959 152.952 18.9245 152.665C18.89 152.378 18.9613 152.088 19.1251 151.849C19.2889 151.611 19.5339 151.44 19.8144 151.369C19.8689 151.369 25.2011 149.961 25.9279 145.437C25.9529 145.283 26.0081 145.135 26.0904 145.002C26.1727 144.868 26.2804 144.753 26.4073 144.661C26.5343 144.57 26.678 144.504 26.8303 144.468C26.9826 144.432 27.1405 144.427 27.295 144.452C27.4495 144.477 27.5975 144.532 27.7307 144.614C27.8638 144.696 27.9794 144.804 28.0709 144.931C28.1625 145.058 28.2281 145.202 28.2641 145.354C28.3 145.506 28.3057 145.664 28.2806 145.819C27.3086 151.914 20.6683 153.613 20.3867 153.685C20.2908 153.704 20.1935 153.713 20.096 153.713Z" fill="#407BFF"/>
<path opacity="0.6" d="M20.096 153.713C19.8067 153.71 19.5282 153.603 19.3126 153.41C19.097 153.217 18.959 152.952 18.9245 152.665C18.89 152.378 18.9613 152.088 19.1251 151.849C19.2889 151.611 19.5339 151.44 19.8144 151.369C19.8689 151.369 25.2011 149.961 25.9279 145.437C25.9529 145.283 26.0081 145.135 26.0904 145.002C26.1727 144.868 26.2804 144.753 26.4073 144.661C26.5343 144.57 26.678 144.504 26.8303 144.468C26.9826 144.432 27.1405 144.427 27.295 144.452C27.4495 144.477 27.5975 144.532 27.7307 144.614C27.8638 144.696 27.9794 144.804 28.0709 144.931C28.1625 145.058 28.2281 145.202 28.2641 145.354C28.3 145.506 28.3057 145.664 28.2806 145.819C27.3086 151.914 20.6683 153.613 20.3867 153.685C20.2908 153.704 20.1935 153.713 20.096 153.713Z" fill="black"/>
<path d="M285.348 70.9126C285.051 70.9228 284.76 70.8213 284.534 70.6282C284.308 70.4351 284.163 70.1643 284.126 69.8692C284.09 69.5741 284.165 69.2761 284.337 69.0337C284.51 68.7914 284.766 68.6223 285.057 68.5599C285.112 68.5599 290.444 67.1609 291.171 62.6371C291.186 62.4734 291.234 62.3145 291.313 62.1702C291.392 62.026 291.5 61.8996 291.63 61.7988C291.76 61.698 291.909 61.625 292.068 61.5843C292.228 61.5437 292.394 61.5362 292.556 61.5625C292.718 61.5887 292.874 61.648 293.012 61.7368C293.15 61.8255 293.269 61.9418 293.361 62.0784C293.452 62.2149 293.515 62.3689 293.544 62.5307C293.574 62.6924 293.57 62.8585 293.533 63.0187C292.551 69.114 285.911 70.8127 285.629 70.8763C285.538 70.9017 285.443 70.914 285.348 70.9126Z" fill="#407BFF"/>
<path opacity="0.6" d="M285.348 70.9126C285.051 70.9228 284.76 70.8213 284.534 70.6282C284.308 70.4351 284.163 70.1643 284.126 69.8692C284.09 69.5741 284.165 69.2761 284.337 69.0337C284.51 68.7914 284.766 68.6223 285.057 68.5599C285.112 68.5599 290.444 67.1609 291.171 62.6371C291.186 62.4734 291.234 62.3145 291.313 62.1702C291.392 62.026 291.5 61.8996 291.63 61.7988C291.76 61.698 291.909 61.625 292.068 61.5843C292.228 61.5437 292.394 61.5362 292.556 61.5625C292.718 61.5887 292.874 61.648 293.012 61.7368C293.15 61.8255 293.269 61.9418 293.361 62.0784C293.452 62.2149 293.515 62.3689 293.544 62.5307C293.574 62.6924 293.57 62.8585 293.533 63.0187C292.551 69.114 285.911 70.8127 285.629 70.8763C285.538 70.9017 285.443 70.914 285.348 70.9126Z" fill="black"/>
<path d="M334.156 116.205H333.956C333.666 116.15 326.925 114.915 325.535 108.938C325.499 108.784 325.494 108.624 325.52 108.468C325.547 108.312 325.604 108.163 325.688 108.03C325.773 107.896 325.883 107.78 326.013 107.69C326.143 107.6 326.289 107.536 326.444 107.503C326.598 107.468 326.757 107.464 326.912 107.49C327.068 107.517 327.217 107.574 327.35 107.659C327.483 107.743 327.599 107.853 327.689 107.982C327.78 108.111 327.845 108.257 327.879 108.411C328.915 112.862 334.329 113.861 334.383 113.861C334.669 113.922 334.923 114.086 335.097 114.322C335.271 114.557 335.352 114.848 335.327 115.139C335.301 115.431 335.17 115.703 334.957 115.904C334.745 116.105 334.467 116.222 334.174 116.232L334.156 116.205Z" fill="#407BFF"/>
<path d="M312.863 159.999C310.783 160.032 308.76 159.32 307.158 157.992C307.025 157.896 306.912 157.774 306.828 157.633C306.744 157.492 306.69 157.335 306.67 157.173C306.649 157.01 306.662 156.845 306.709 156.687C306.755 156.53 306.833 156.384 306.939 156.258C307.045 156.132 307.175 156.03 307.322 155.957C307.469 155.884 307.63 155.842 307.794 155.835C307.957 155.827 308.121 155.853 308.275 155.912C308.428 155.97 308.567 156.06 308.684 156.175C312.2 159.1 317.133 156.647 317.187 156.62C317.469 156.475 317.797 156.449 318.098 156.546C318.4 156.643 318.65 156.856 318.795 157.138C318.939 157.42 318.966 157.747 318.869 158.049C318.772 158.35 318.559 158.601 318.277 158.745C316.585 159.551 314.737 159.978 312.863 159.999Z" fill="#407BFF"/>
<path d="M257.188 10.9131C256.981 10.9147 256.778 10.8614 256.598 10.7587C256.353 10.6224 250.421 7.18867 251.148 1.05701C251.184 0.742603 251.343 0.455429 251.591 0.258666C251.839 0.0619039 252.155 -0.0283284 252.469 0.00780984C252.784 0.043948 253.071 0.203499 253.268 0.451369C253.464 0.699239 253.555 1.01512 253.518 1.32952C253.001 5.8715 257.761 8.66028 257.806 8.68753C258.037 8.81823 258.218 9.02256 258.32 9.26798C258.422 9.51341 258.438 9.7858 258.367 10.0418C258.296 10.2978 258.142 10.5226 257.928 10.6805C257.714 10.8384 257.454 10.9203 257.188 10.9131Z" fill="#407BFF"/>
<path d="M19.9051 15.7547C19.7488 15.7613 19.5928 15.737 19.4459 15.6832C19.299 15.6295 19.1641 15.5474 19.049 15.4415C18.9338 15.3356 18.8407 15.2081 18.7748 15.0663C18.7089 14.9244 18.6717 14.7709 18.6651 14.6147C18.6585 14.4584 18.6828 14.3024 18.7366 14.1555C18.7903 14.0086 18.8725 13.8737 18.9783 13.7586C19.0842 13.6434 19.2117 13.5503 19.3536 13.4844C19.4954 13.4186 19.6489 13.3813 19.8051 13.3747C24.3471 12.975 26.1639 7.76083 26.1639 7.70633C26.2694 7.41645 26.4834 7.17887 26.7607 7.04368C27.038 6.9085 27.3569 6.88628 27.6503 6.98171C27.9436 7.07714 28.1884 7.28276 28.3331 7.55521C28.4778 7.82766 28.511 8.14565 28.4258 8.44213C28.3441 8.72373 26.1639 15.2188 20.0141 15.7093L19.9051 15.7547Z" fill="#407BFF"/>
<path d="M138.921 153.403C133.327 155.293 127.302 166.716 126.906 184.047C126.511 201.377 92.3133 185.355 85.3225 204.039C72.6937 237.858 128.88 265.335 156.169 247.213C173.056 236.006 192.344 194.988 192.825 171.481C193.353 146.206 156.423 125.072 138.921 153.403Z" fill="#263238"/>
<path d="M190.164 203.598C190.845 203.477 191.835 203.3 192.689 203.123L195.361 202.543C197.15 202.137 198.931 201.67 200.702 201.156C204.228 200.149 207.694 198.943 211.083 197.543C217.712 194.907 223.833 191.14 229.174 186.411C233.976 181.854 237.784 175.337 240.953 168.567C242.562 165.169 243.988 161.645 245.271 158.044C246.553 154.443 247.801 150.747 248.838 147.179L254.905 148.237C254.008 156.336 252.224 164.311 249.587 172.021C248.242 175.972 246.59 179.812 244.646 183.505C242.623 187.407 240.092 191.023 237.119 194.26C231.087 200.431 223.911 205.369 215.992 208.797C212.169 210.515 208.237 211.979 204.221 213.179C202.214 213.772 200.205 214.245 198.147 214.757C197.135 214.992 196.11 215.211 195.043 215.395C193.976 215.578 193.031 215.76 191.77 215.922L190.164 203.598Z" fill="#7F3E3B"/>
<path d="M254.647 150.285L258.218 141.422L248.024 141.068C248.024 141.068 246.634 146.977 249.718 150.976L254.647 150.285Z" fill="#7F3E3B"/>
<path d="M260.922 130.946L251.428 132.323L248.022 141.068L258.217 141.422L260.922 130.946Z" fill="#7F3E3B"/>
<path d="M178.463 204.652C183.595 200.936 195.773 199.011 195.773 199.011L206.543 219.928C206.543 219.928 190.659 228.139 184.642 225.145C178.369 222.137 173.68 208.103 178.463 204.652Z" fill="#407BFF"/>
<path d="M104.779 476.74L111.856 486.509L136.869 472.604L129.791 462.836L104.779 476.74Z" fill="#7F3E3B"/>
<path d="M55.307 506.658L65.5302 513.247L84.0625 491.687L73.8393 485.099L55.307 506.658Z" fill="#7F3E3B"/>
<path d="M67.401 512.107L60.2457 500.465C60.126 500.263 59.9366 500.111 59.713 500.038C59.4894 499.966 59.247 499.978 59.0314 500.071L49.0093 504.406C48.7602 504.522 48.5387 504.69 48.3593 504.898C48.1799 505.107 48.0467 505.35 47.9684 505.614C47.8902 505.877 47.8687 506.154 47.9054 506.427C47.9421 506.699 48.0362 506.961 48.1814 507.194C50.7632 511.213 52.1825 513.025 55.3373 518.154C57.2595 521.295 61.0862 528.547 63.7526 532.894C66.419 537.24 70.8721 534.844 70.1469 532.791C66.9027 523.589 67.2137 518.378 67.8299 514.232C67.943 513.495 67.791 512.742 67.401 512.107Z" fill="#263238"/>
<path d="M114.249 486.943L110.222 473.09C110.151 472.842 110 472.624 109.792 472.472C109.584 472.32 109.331 472.241 109.073 472.248L97.2261 472.437C96.9448 472.435 96.6671 472.501 96.416 472.627C96.1648 472.754 95.9472 472.938 95.7812 473.165C95.6151 473.392 95.5054 473.656 95.4608 473.933C95.4163 474.211 95.4383 474.495 95.5251 474.763C97.0164 479.585 97.9892 481.862 99.7622 487.958C100.858 491.704 103.279 501.497 104.771 506.713C106.264 511.929 111.667 511.337 111.522 509.107C110.868 499.118 112.175 492.866 114.059 489.181C114.236 488.839 114.345 488.465 114.377 488.081C114.41 487.697 114.366 487.311 114.249 486.943Z" fill="#263238"/>
<path opacity="0.2" d="M136.855 472.603L123.968 479.77L115.856 470.583L129.778 462.834L136.855 472.603Z" fill="black"/>
<path opacity="0.2" d="M73.8374 485.098L84.0607 491.687L74.4914 502.804L64.2698 496.201L73.8374 485.098Z" fill="black"/>
<path d="M194.601 207.991C194.601 207.991 195.021 207.493 180.446 278.299L131.099 276.242C132.769 256.204 135.847 242.267 131.117 200.18C138.152 199.565 145.221 199.466 152.27 199.882C159.746 200.219 167.187 201.093 174.537 202.498C184.002 204.484 194.601 207.991 194.601 207.991Z" fill="#407BFF"/>
<path d="M133.471 212.452C130.02 210.367 127.033 208.213 123.937 205.94C120.841 203.668 117.939 201.281 115.067 198.776C109.21 193.762 103.868 188.176 99.1208 182.101L97.3843 179.738L96.9356 179.142C96.6814 178.774 96.4457 178.393 96.2296 178.001C95.8405 177.289 95.5182 176.543 95.2666 175.771C94.5374 173.32 94.3101 170.747 94.5982 168.206C95.0848 164.165 96.0791 160.201 97.5576 156.409C100.278 149.306 103.713 142.498 107.809 136.09L113.281 138.947C112.017 142.247 110.782 145.686 109.646 149.061C108.51 152.436 107.49 155.854 106.688 159.221C105.842 162.377 105.347 165.616 105.211 168.88C105.16 170.01 105.322 171.139 105.687 172.208C105.676 172.313 105.812 172.45 105.855 172.47L106.271 172.956L107.916 174.914C112.534 180.145 117.568 184.994 122.969 189.412C125.672 191.671 128.544 193.782 131.338 195.899C134.133 198.017 137.163 200.069 139.917 201.879L133.471 212.452Z" fill="#7F3E3B"/>
<path d="M150.08 205.079C145.392 196.716 134.463 195.612 134.463 195.612L119.12 213.603C119.12 213.603 132.688 225.251 139.212 223.723C146.125 222.102 152.975 210.225 150.08 205.079Z" fill="#407BFF"/>
<path d="M174.537 202.499L152.27 199.882C148.702 200.877 145.73 209.535 167.497 219.585C184.173 212.433 176.72 203.577 174.537 202.499Z" fill="white"/>
<path d="M157.416 175.064C157.975 182.389 157.834 195.685 152.27 199.882C152.27 199.882 153.399 207.392 167.497 219.585C179.406 210.049 174.536 202.499 174.536 202.499C166.775 199.643 167.679 193.74 169.728 188.315L157.416 175.064Z" fill="#7F3E3B"/>
<path d="M195.614 251.451L195.374 251.424C194.592 251.27 193.902 250.813 193.456 250.152C193.01 249.491 192.845 248.681 192.995 247.898C194.282 241.28 189.817 235.67 184.693 229.168C178.81 221.732 172.13 213.296 173.154 201.449C173.223 200.653 173.606 199.916 174.218 199.402C174.83 198.888 175.621 198.638 176.418 198.707C177.214 198.776 177.95 199.158 178.465 199.771C178.979 200.383 179.229 201.174 179.16 201.97C178.342 211.43 183.973 218.55 189.417 225.437C194.862 232.324 200.72 239.712 198.901 249.045C198.753 249.784 198.334 250.442 197.726 250.887C197.117 251.333 196.364 251.534 195.614 251.451Z" fill="#263238"/>
<path d="M150.147 261.699C149.905 261.671 149.667 261.614 149.438 261.529C148.69 261.251 148.082 260.688 147.748 259.963C147.414 259.237 147.382 258.409 147.658 257.66C151.864 246.245 149.109 236.597 146.184 226.445C143.567 217.328 140.863 207.898 143.841 197.558C144.082 196.812 144.604 196.189 145.296 195.822C145.988 195.454 146.796 195.371 147.549 195.589C148.302 195.808 148.94 196.311 149.328 196.992C149.716 197.673 149.823 198.479 149.627 199.237C147.139 207.904 149.479 216.11 151.964 224.788C154.888 234.955 158.189 246.484 153.3 259.809C153.057 260.427 152.616 260.948 152.045 261.29C151.475 261.632 150.808 261.776 150.147 261.699Z" fill="#263238"/>
<path opacity="0.2" d="M167.188 185.528L161.12 185.561C161.23 187.206 161.635 188.818 162.316 190.319C163.299 192.233 165.847 193.307 168.444 193.674C168.648 191.821 169.107 190.006 169.806 188.278L167.188 185.528Z" fill="black"/>
<path d="M144.973 166.362C148.109 178.023 149.171 183.024 156.376 187.864C167.204 195.142 180.835 188.771 181.249 176.415C181.632 165.285 176.449 148.087 163.931 145.744C161.175 145.216 158.33 145.401 155.666 146.28C153.002 147.16 150.607 148.706 148.708 150.771C146.809 152.837 145.469 155.353 144.816 158.081C144.162 160.81 144.216 163.66 144.973 166.362Z" fill="#7F3E3B"/>
<path d="M159.696 143.632C167.628 149.827 156.882 179.84 142.645 176.592C128.409 173.344 147.971 134.48 159.696 143.632Z" fill="#263238"/>
<path d="M159.367 143.717C152.465 147.265 156.02 155.183 178.165 153.207C178.166 153.192 170.823 137.815 159.367 143.717Z" fill="#263238"/>
<path d="M145.315 177.392C146.025 179.614 147.583 181.466 149.65 182.547C152.419 183.949 154.399 181.563 154.144 178.7C153.907 176.08 152.192 172.174 149.181 171.988C148.521 171.959 147.865 172.095 147.271 172.383C146.678 172.672 146.166 173.104 145.782 173.641C145.398 174.178 145.154 174.802 145.073 175.457C144.991 176.112 145.075 176.777 145.315 177.392Z" fill="#7F3E3B"/>
<path d="M180.476 278.303C180.476 278.303 197.093 366.781 195.08 403.822C192.976 442.353 131.032 481.41 131.032 481.41L118.622 464.298C118.622 464.298 169.211 430.244 166.062 401.115C161.692 360.964 144.259 276.791 144.259 276.791L180.476 278.303Z" fill="#263238"/>
<path opacity="0.2" d="M161.001 304.472C159.444 296.717 153.55 301.15 150.804 308.878C153.16 321.271 155.872 335.766 158.373 350.252C161.337 338.001 164.043 319.671 161.001 304.472Z" fill="black"/>
<path d="M114.871 463.119L130.748 483.653L138.889 480.275L122.232 457.501L114.871 463.119Z" fill="#407BFF"/>
<path d="M167.421 277.765C167.421 277.765 150.538 360.776 137.818 406.638C127.526 443.691 79.4283 500.705 79.4283 500.705L65.1223 491.991C65.1223 491.991 100.202 429.107 107.389 403.941C130.424 323.393 114.392 297.612 131.117 276.214L167.421 277.765Z" fill="#263238"/>
<path d="M64.04 492.036L80.1282 502.299L86.4901 495.992L67.6278 484.373L64.04 492.036Z" fill="#407BFF"/>
<path d="M130.485 273.322L128.08 277.601C127.892 277.929 128.274 278.305 128.848 278.324L180.609 280.486C181.043 280.534 181.433 280.305 181.464 280.021L182.103 275.544C182.136 275.244 181.772 274.976 181.29 274.952L131.309 272.869C131.143 272.856 130.976 272.892 130.83 272.973C130.683 273.053 130.563 273.175 130.485 273.322Z" fill="white"/>
<path d="M136.955 279.172L135.628 279.114C135.358 279.084 135.16 278.956 135.179 278.791L136.046 273.081C136.065 272.917 136.323 272.779 136.579 272.792L137.921 272.852C138.191 272.882 138.389 273.01 138.355 273.173L137.488 278.883C137.466 279.078 137.225 279.202 136.955 279.172Z" fill="#263238"/>
<path d="M176.824 280.85L175.482 280.791C175.212 280.761 175.014 280.632 175.048 280.469L175.915 274.76C175.933 274.595 176.175 274.47 176.448 274.471L177.775 274.529C178.045 274.559 178.243 274.687 178.224 274.852L177.355 280.576C177.322 280.739 177.155 280.872 176.824 280.85Z" fill="#263238"/>
<path d="M156.888 280.026L155.545 279.967C155.291 279.938 155.093 279.81 155.111 279.645L155.98 273.92C155.999 273.756 156.24 273.631 156.511 273.646L157.854 273.706C158.109 273.734 158.306 273.863 158.288 274.027L157.421 279.737C157.397 279.947 157.161 280.026 156.888 280.026Z" fill="#263238"/>
<path d="M163.485 164.191C162.74 164.35 162.32 165.395 162.555 166.543L165.269 165.998C165.034 164.85 164.238 163.972 163.485 164.191Z" fill="#263238"/>
<path d="M175.331 161.849C174.57 162.007 174.148 163.066 174.384 164.214L177.114 163.656C176.774 162.496 176 161.697 175.331 161.849Z" fill="#263238"/>
<path d="M174.938 161.972L177.53 160.625C177.53 160.625 176.559 163.063 174.938 161.972Z" fill="#263238"/>
<path d="M171.829 166.036C173.127 168.054 174.698 169.883 176.496 171.471C176.079 171.922 175.569 172.276 175.001 172.508C174.432 172.74 173.82 172.845 173.207 172.816L171.829 166.036Z" fill="#630F0F"/>
<path d="M170.753 177.256C170.801 177.223 170.839 177.177 170.861 177.123C170.883 177.068 170.889 177.009 170.878 176.952C170.862 176.878 170.818 176.813 170.754 176.772C170.69 176.73 170.613 176.716 170.539 176.732C169.349 177 168.113 176.986 166.93 176.69C165.746 176.394 164.649 175.825 163.725 175.028C163.702 174.999 163.673 174.974 163.64 174.955C163.607 174.937 163.57 174.926 163.533 174.921C163.495 174.917 163.457 174.92 163.421 174.931C163.384 174.942 163.351 174.959 163.321 174.983C163.29 175.005 163.263 175.034 163.243 175.067C163.224 175.1 163.211 175.137 163.207 175.175C163.203 175.213 163.207 175.252 163.219 175.288C163.23 175.325 163.25 175.359 163.276 175.387C164.26 176.274 165.445 176.909 166.728 177.237C168.012 177.566 169.356 177.579 170.645 177.274L170.753 177.256Z" fill="#263238"/>
<path d="M159.773 163.093C159.856 163.038 159.922 162.961 159.965 162.872C160.249 162.198 160.692 161.603 161.256 161.138C161.821 160.673 162.489 160.352 163.205 160.202C163.28 160.193 163.352 160.169 163.417 160.131C163.483 160.094 163.54 160.044 163.586 159.984C163.632 159.925 163.666 159.857 163.686 159.784C163.706 159.711 163.711 159.635 163.702 159.561C163.692 159.486 163.668 159.414 163.63 159.348C163.593 159.283 163.543 159.226 163.484 159.179C163.424 159.133 163.356 159.099 163.283 159.08C163.21 159.06 163.135 159.055 163.06 159.064C162.161 159.24 161.318 159.629 160.6 160.197C159.882 160.765 159.311 161.497 158.934 162.331C158.87 162.469 158.864 162.626 158.916 162.769C158.969 162.911 159.075 163.027 159.213 163.09C159.297 163.142 159.394 163.169 159.493 163.17C159.591 163.17 159.688 163.143 159.773 163.093Z" fill="#263238"/>
<path d="M178.539 157.706C178.573 157.693 178.602 157.67 178.622 157.64C178.677 157.586 178.72 157.523 178.75 157.452C178.78 157.382 178.795 157.307 178.795 157.23C178.795 157.154 178.78 157.079 178.75 157.008C178.721 156.938 178.678 156.874 178.623 156.821C177.988 156.163 177.204 155.666 176.338 155.371C175.472 155.076 174.548 154.992 173.643 155.126C173.568 155.141 173.497 155.172 173.434 155.215C173.371 155.259 173.317 155.314 173.276 155.379C173.234 155.444 173.207 155.516 173.194 155.592C173.181 155.667 173.184 155.745 173.202 155.819C173.237 155.966 173.327 156.093 173.453 156.174C173.579 156.256 173.732 156.287 173.88 156.259C174.597 156.158 175.327 156.231 176.01 156.471C176.693 156.711 177.308 157.112 177.804 157.639C177.899 157.735 178.025 157.795 178.159 157.807C178.294 157.819 178.428 157.783 178.539 157.706Z" fill="#263238"/>
<path d="M119.576 141.881C119.213 141.839 118.867 141.701 118.575 141.48L76.171 108.317C75.8047 107.978 75.5792 107.514 75.5392 107.016C75.4991 106.519 75.6476 106.024 75.955 105.631C76.2624 105.238 76.7064 104.975 77.1988 104.894C77.6912 104.813 78.1961 104.92 78.6132 105.194L121.017 138.358C121.359 138.622 121.606 138.991 121.718 139.408C121.83 139.826 121.802 140.268 121.639 140.668C121.475 141.068 121.185 141.404 120.812 141.623C120.44 141.842 120.005 141.932 119.576 141.881Z" fill="#407BFF"/>
<path d="M86.1414 112.572C88.7136 112.754 91.3623 112.93 91.965 110.662C92.5678 108.395 90.1962 107.235 87.9278 106.101L87.3108 105.79C87.336 105.565 87.2563 105.329 87.2199 105.112L87.8094 104.587C89.6945 102.918 91.6611 101.198 90.5033 99.2188C89.3454 97.2393 86.8888 98.0557 84.4788 98.862L83.7381 99.1126C83.5586 98.956 83.3757 98.8294 83.1795 98.6861C82.9833 98.5428 83.2331 98.207 83.2566 97.9973C83.4221 95.4385 83.5976 92.7898 81.3453 92.1887C79.093 91.5876 77.9178 93.9575 76.7842 96.2259C76.6875 96.4122 76.5875 96.6284 76.4725 96.8429L75.7802 96.9321L75.2683 96.3593C73.6013 94.4592 71.8793 92.5076 69.9016 93.6505C67.9238 94.7933 68.7385 97.2649 69.5449 99.675L69.7954 100.416C69.6438 100.589 69.502 100.77 69.3706 100.959L68.6818 100.882C66.123 100.717 63.4593 100.539 62.8565 102.807C62.2537 105.074 64.6403 106.236 66.8938 107.368L67.5108 107.68C67.4856 107.904 67.5652 108.14 67.6016 108.357C67.3985 108.546 67.1953 108.736 67.0121 108.882C65.1271 110.551 63.1771 112.258 64.3183 114.25C65.4595 116.243 67.9345 115.399 70.3428 114.607L71.0984 114.358L71.6421 114.783C71.6153 115.023 71.5884 115.262 71.5649 115.472C71.3995 118.031 71.224 120.679 73.4763 121.281C75.7286 121.882 76.9188 119.513 78.0523 117.245C78.0724 117.065 78.2474 116.857 78.3491 116.626C78.5815 116.611 78.8127 116.581 79.0413 116.537L79.5665 117.127C81.2203 119.01 82.9406 120.977 84.9333 119.835C86.926 118.694 86.0814 116.219 85.275 113.809C85.207 113.605 85.1157 113.337 85.0395 113.07L85.4643 112.527L86.1414 112.572Z" fill="#407BFF"/>
<path opacity="0.7" d="M86.1414 112.572C88.7136 112.754 91.3623 112.93 91.965 110.662C92.5678 108.395 90.1962 107.235 87.9278 106.101L87.3108 105.79C87.336 105.565 87.2563 105.329 87.2199 105.112L87.8094 104.587C89.6945 102.918 91.6611 101.198 90.5033 99.2188C89.3454 97.2393 86.8888 98.0557 84.4788 98.862L83.7381 99.1126C83.5586 98.956 83.3757 98.8294 83.1795 98.6861C82.9833 98.5428 83.2331 98.207 83.2566 97.9973C83.4221 95.4385 83.5976 92.7898 81.3453 92.1887C79.093 91.5876 77.9178 93.9575 76.7842 96.2259C76.6875 96.4122 76.5875 96.6284 76.4725 96.8429L75.7802 96.9321L75.2683 96.3593C73.6013 94.4592 71.8793 92.5076 69.9016 93.6505C67.9238 94.7933 68.7385 97.2649 69.5449 99.675L69.7954 100.416C69.6438 100.589 69.502 100.77 69.3706 100.959L68.6818 100.882C66.123 100.717 63.4593 100.539 62.8565 102.807C62.2537 105.074 64.6403 106.236 66.8938 107.368L67.5108 107.68C67.4856 107.904 67.5652 108.14 67.6016 108.357C67.3985 108.546 67.1953 108.736 67.0121 108.882C65.1271 110.551 63.1771 112.258 64.3183 114.25C65.4595 116.243 67.9345 115.399 70.3428 114.607L71.0984 114.358L71.6421 114.783C71.6153 115.023 71.5884 115.262 71.5649 115.472C71.3995 118.031 71.224 120.679 73.4763 121.281C75.7286 121.882 76.9188 119.513 78.0523 117.245C78.0724 117.065 78.2474 116.857 78.3491 116.626C78.5815 116.611 78.8127 116.581 79.0413 116.537L79.5665 117.127C81.2203 119.01 82.9406 120.977 84.9333 119.835C86.926 118.694 86.0814 116.219 85.275 113.809C85.207 113.605 85.1157 113.337 85.0395 113.07L85.4643 112.527L86.1414 112.572Z" fill="white"/>
<path d="M105.928 140.836L105.398 128.648L116.945 136.006C116.259 137.971 115.012 139.692 113.358 140.956C112.666 141.587 111.808 142.009 110.886 142.174C109.964 142.339 109.013 142.24 108.145 141.888L105.928 140.836Z" fill="#7F3E3B"/>
<path d="M112.914 123.547L118.557 129.744L116.954 135.932L105.401 128.633L112.914 123.547Z" fill="#7F3E3B"/>
<path d="M70.68 518.281C70.8172 518.205 70.9485 518.118 71.0729 518.022C71.2144 517.92 71.3254 517.781 71.3941 517.62C71.4628 517.46 71.4867 517.284 71.4631 517.111C71.2715 515.573 67.3067 513.613 66.8543 513.456C66.8056 513.428 66.749 513.417 66.6934 513.425C66.6378 513.432 66.5862 513.458 66.5465 513.497C66.5103 513.54 66.4877 513.593 66.4814 513.649C66.4752 513.705 66.4855 513.762 66.5112 513.812C67.0172 515.384 68.0896 517.991 69.5734 518.415C69.9458 518.514 70.3418 518.466 70.68 518.281ZM67.2312 514.286C68.7945 515.083 70.7883 516.368 70.894 517.183C70.8996 517.26 70.8845 517.336 70.8501 517.404C70.8158 517.472 70.7635 517.53 70.6989 517.571C70.5686 517.703 70.4065 517.8 70.2282 517.851C70.0499 517.903 69.8612 517.908 69.6804 517.866C68.8737 517.624 67.9897 516.312 67.2312 514.286Z" fill="#407BFF"/>
<path d="M71.8941 514.369C71.9984 514.321 72.0932 514.255 72.1738 514.173C72.3397 514.012 72.4445 513.799 72.4702 513.569C72.4959 513.34 72.4409 513.109 72.3147 512.915C72.2246 512.713 72.0913 512.534 71.924 512.389C71.7568 512.245 71.5599 512.139 71.3472 512.079C69.6605 511.572 66.6522 513.387 66.5373 513.466C66.4948 513.494 66.4602 513.532 66.4366 513.577C66.413 513.622 66.4012 513.673 66.4023 513.723C66.4053 513.772 66.4195 513.819 66.4437 513.861C66.4679 513.903 66.5015 513.939 66.5418 513.966C68.2181 514.745 70.1202 514.888 71.8941 514.369ZM67.4273 513.641C68.5463 512.92 69.864 512.569 71.1936 512.638C71.3294 512.67 71.4555 512.735 71.5614 512.826C71.6672 512.917 71.7497 513.032 71.802 513.161C71.9614 513.497 71.8531 513.652 71.7366 513.745C71.1254 514.328 68.6564 514.173 67.3324 513.676L67.4273 513.641Z" fill="#407BFF"/>
<path d="M113.759 493.757C113.958 494.728 114.459 495.611 115.189 496.282C115.398 496.439 115.64 496.548 115.896 496.6C116.152 496.653 116.417 496.647 116.671 496.584C116.822 496.56 116.962 496.494 117.078 496.395C117.193 496.295 117.279 496.166 117.326 496.021C117.808 494.559 114.299 490.421 113.595 489.539C113.549 489.501 113.494 489.477 113.436 489.471C113.377 489.464 113.318 489.475 113.265 489.502C113.21 489.524 113.163 489.564 113.133 489.615C113.102 489.667 113.09 489.727 113.097 489.786C113.17 491.13 113.392 492.462 113.759 493.757ZM116.747 495.229C116.813 495.41 116.828 495.605 116.79 495.794C116.782 495.869 116.773 495.944 116.557 495.98C116.375 496.028 116.184 496.034 115.999 495.997C115.814 495.961 115.64 495.883 115.489 495.77C114.636 495.128 113.999 493.238 113.745 490.632C114.972 492.004 115.984 493.553 116.747 495.229Z" fill="#407BFF"/>
<path d="M113.144 489.897C113.136 489.927 113.133 489.957 113.134 489.987C114.222 491.367 117.666 493.785 118.926 493.229C119.197 493.108 119.504 492.808 119.374 492.066C118.92 489.226 113.597 489.508 113.337 489.525C113.284 489.526 113.232 489.542 113.188 489.572C113.145 489.603 113.111 489.645 113.091 489.694C113.083 489.766 113.102 489.838 113.144 489.897ZM118.824 491.974L118.879 492.162C118.845 492.462 118.825 492.641 118.816 492.716C118.084 493.028 115.458 491.43 114.122 490.098C115.365 490.101 118.343 490.313 118.824 491.974Z" fill="#407BFF"/>
<path d="M163.169 164.322L165.762 162.96C165.762 162.96 164.79 165.413 163.169 164.322Z" fill="#263238"/>
</svg>
