<svg width="357" height="475" viewBox="0 0 357 475" fill="none" xmlns="http://www.w3.org/2000/svg">
<path d="M248.71 451.998L237.522 453.141L231.892 427.545L243.08 426.402L248.71 451.998Z" fill="#FFC3BD"/>
<path d="M340.172 394.206L332.435 402.38L311.467 386.659L319.189 378.486L340.172 394.206Z" fill="#FFC3BD"/>
<path d="M330.76 402.258L340.168 392.296C340.323 392.139 340.527 392.041 340.746 392.019C340.964 391.997 341.184 392.052 341.367 392.175L349.853 397.648C350.06 397.79 350.234 397.976 350.363 398.192C350.491 398.408 350.571 398.65 350.596 398.9C350.621 399.151 350.592 399.404 350.509 399.641C350.426 399.879 350.293 400.095 350.118 400.276C347.038 403.431 344.644 405.583 340.85 409.611C338.505 412.094 331.673 419.842 328.432 423.275C325.191 426.709 321.499 423.8 322.479 422.097C327.105 414.454 329.79 407.825 329.933 404.033C329.995 403.363 330.287 402.736 330.76 402.258Z" fill="#263238"/>
<path d="M237.461 451.835L249.69 450.601C249.912 450.58 250.135 450.634 250.322 450.756C250.509 450.877 250.649 451.059 250.72 451.27L253.947 460.993C254.025 461.228 254.05 461.477 254.019 461.722C253.987 461.967 253.901 462.202 253.767 462.409C253.632 462.616 253.452 462.79 253.24 462.918C253.029 463.046 252.791 463.124 252.545 463.147C248.12 463.521 241.728 463.918 236.184 464.477C229.716 465.129 225.937 465.686 218.344 466.466C213.753 466.929 212.001 462.424 213.879 461.812C222.433 458.995 227.773 458.442 234.866 453.001C235.606 452.378 236.505 451.974 237.461 451.835Z" fill="#263238"/>
<path d="M168.782 135.18C166.443 134.541 164.428 133.943 162.314 133.222C160.199 132.502 158.158 131.789 156.097 131.02C151.986 129.49 147.919 127.732 143.898 125.746C139.856 123.797 135.937 121.601 132.165 119.171C131.212 118.538 130.244 117.906 129.303 117.257L126.496 115.163C125.565 114.47 124.667 113.656 123.759 112.902C123.294 112.482 122.899 112.186 122.368 111.686C121.836 111.185 121.32 110.698 120.846 110.191C119.057 108.263 117.488 106.142 116.168 103.867C114.945 101.791 113.865 99.6342 112.935 97.4112C111.172 93.2146 109.759 88.879 108.711 84.4489C106.7 75.92 105.601 67.2017 105.431 58.4405L113.834 57.5929C114.806 61.4472 115.827 65.5007 117.02 69.3764C118.213 73.2522 119.45 77.1235 120.859 80.8316C122.205 84.4568 123.798 87.985 125.629 91.3908C127.168 94.4102 129.184 97.1617 131.599 99.5391L132.38 100.19C132.619 100.399 133.088 100.702 133.434 100.958C134.187 101.48 134.885 102.037 135.678 102.526C137.238 103.535 138.797 104.53 140.525 105.464C143.862 107.315 147.362 109.048 150.993 110.636C154.624 112.224 158.317 113.703 162.058 115.076C163.937 115.776 165.829 116.46 167.716 117.087C169.602 117.713 171.579 118.374 173.266 118.904L168.782 135.18Z" fill="#FFC3BD"/>
<path d="M171.531 144.528C164.76 141.21 158.287 137.316 152.184 132.887L154.346 109.641C162.879 111.163 171.498 112.155 180.153 112.608C194.413 113.007 182.168 149.493 171.531 144.528Z" fill="#263238"/>
<path d="M114.319 59.5272L113.676 45.1973L102.22 50.1886C102.22 50.1886 100.492 60.6741 108.444 62.5846L114.319 59.5272Z" fill="#FFC3BD"/>
<path d="M111.474 37.675L102.11 42.7324L102.221 50.1884L113.676 45.1971L111.474 37.675Z" fill="#FFC3BD"/>
<path opacity="0.2" d="M231.906 427.544L234.798 440.742L245.985 439.599L243.093 426.4L231.906 427.544Z" fill="black"/>
<path opacity="0.2" d="M319.203 378.484L311.467 386.659L322.288 394.755L330.01 386.582L319.203 378.484Z" fill="black"/>
<path d="M223.133 107.807C223.078 107.012 222.866 106.236 222.51 105.523C222.153 104.81 221.659 104.175 221.056 103.655C220.453 103.134 219.753 102.737 218.996 102.489C218.239 102.24 217.441 102.143 216.646 102.204C184.651 104.834 164.778 115.881 163.407 116.603C162.896 116.871 162.462 117.266 162.146 117.75C161.829 118.234 161.642 118.79 161.601 119.366C161.079 127.499 160.693 161.402 184.451 212.005L242.789 197.559C241.114 188.905 226.041 149.939 223.133 107.807Z" fill="#263238"/>
<path d="M175.13 111.351C172.095 116.397 171.597 127.371 184.018 134.11C197.234 121.999 203.44 109.779 205.017 103.582C194.812 105.131 184.796 107.734 175.13 111.351Z" fill="white"/>
<path d="M172.916 116.008C172.15 116.085 171.385 115.855 170.789 115.368C170.193 114.881 169.814 114.177 169.737 113.412C169.497 111.029 171.355 108.771 172.966 107.252C178.391 102.33 189.52 97.867 204.379 100.583C205.112 100.746 205.754 101.186 206.169 101.812C206.584 102.437 206.74 103.2 206.605 103.938C206.47 104.677 206.054 105.335 205.444 105.773C204.835 106.211 204.079 106.396 203.335 106.289C186.1 103.142 176.471 111.055 175.559 113.145C175.552 113.865 175.277 114.557 174.789 115.086C174.301 115.615 173.633 115.943 172.916 116.008Z" fill="#407BFF"/>
<path d="M193.224 77.0464C193.631 85.4204 195.686 100.439 202.588 104.381C199.311 109.772 194.865 116.156 185.467 118.84C179.795 120.448 177.602 118.511 177.084 115.835C176.871 114.541 177.028 113.213 177.535 112.004C178.042 110.795 178.88 109.753 179.953 108.998C185.811 104.761 183.984 99.082 181.193 93.8216L193.224 77.0464Z" fill="#FFC3BD"/>
<path d="M178.716 182.336C178.39 182.367 178.062 182.341 177.745 182.259C176.998 182.077 176.354 181.605 175.954 180.948C175.554 180.291 175.431 179.502 175.613 178.755C175.912 177.704 175.989 176.603 175.84 175.521C175.69 174.439 175.318 173.399 174.745 172.469L174.359 171.677C173.768 170.757 173.026 169.944 172.162 169.273C170.336 168.089 168.976 166.309 168.313 164.236C167.649 162.163 167.723 159.925 168.521 157.9C168.793 157.04 168.915 156.14 168.88 155.239C168.5 154.238 167.958 153.307 167.275 152.484C165.911 150.9 165.006 148.974 164.656 146.914C164.601 144.728 165.179 142.573 166.32 140.708C166.75 140.002 167.066 139.231 167.257 138.426C167.186 137.622 166.948 136.841 166.559 136.134C165.699 134.563 165.345 132.766 165.544 130.986C165.931 128.963 166.963 127.119 168.484 125.731C168.914 125.333 169.275 124.868 169.556 124.354C169.692 123.636 169.617 122.894 169.341 122.217C168.733 120.589 168.787 118.788 169.491 117.2C170.341 115.509 170.199 115.115 170.079 114.792C169.882 114.3 169.766 113.78 169.734 113.252C169.657 112.486 169.887 111.721 170.374 111.125C170.861 110.529 171.565 110.15 172.33 110.073C173.096 109.996 173.861 110.226 174.457 110.713C175.054 111.2 175.432 111.903 175.509 112.669L175.518 112.756C176.087 114.346 176.399 116.284 174.757 119.673C174.815 120.009 174.893 120.342 174.989 120.67C175.584 122.214 175.69 123.904 175.291 125.51C174.892 127.116 174.008 128.56 172.759 129.646C171.916 130.547 171.446 131.091 171.315 131.819C171.353 132.488 171.554 133.139 171.9 133.714C172.67 135.196 173.08 136.838 173.099 138.508C172.946 140.199 172.413 141.833 171.539 143.288C170.954 144.2 170.59 145.236 170.473 146.313C170.808 147.3 171.331 148.213 172.013 149.001C173.208 150.448 174.087 152.127 174.596 153.933C174.852 155.663 174.726 157.427 174.228 159.104C173.862 160.178 173.753 161.323 173.909 162.446C174.465 163.402 175.209 164.235 176.096 164.895C177.564 166.066 178.782 167.521 179.678 169.171L180.013 169.896C181.76 172.98 182.217 176.63 181.285 180.049C181.157 180.655 180.838 181.203 180.376 181.614C179.914 182.026 179.332 182.279 178.716 182.336Z" fill="#407BFF"/>
<path d="M222.55 107.384C224.269 108.669 225.706 109.749 227.174 111.001C228.642 112.253 230.077 113.465 231.501 114.721C234.351 117.234 237.07 119.905 239.709 122.644C245.204 128.316 249.964 134.657 253.879 141.516C254.876 143.355 255.778 145.246 256.579 147.179C256.984 148.159 257.35 149.187 257.704 150.23L257.83 150.611L258.028 151.277C258.16 151.716 258.251 152.188 258.347 152.703C258.513 153.659 258.582 154.63 258.552 155.599C258.512 157.346 258.158 159.072 257.505 160.693C256.959 162.043 256.261 163.327 255.426 164.519C254.042 166.464 252.397 168.21 250.539 169.709C247.368 172.273 243.893 174.436 240.192 176.149C238.44 176.996 236.663 177.744 234.863 178.407C233.063 179.07 231.318 179.698 229.345 180.233L225.941 172.511C227.303 171.557 228.762 170.549 230.132 169.536C231.503 168.522 232.841 167.469 234.193 166.413C236.706 164.446 239.038 162.259 241.161 159.877C241.971 158.922 242.663 157.872 243.223 156.752C243.645 155.878 243.547 155.334 243.42 155.522C243.414 155.57 243.419 155.619 243.434 155.666L243.321 155.415C243.038 154.773 242.767 154.114 242.409 153.45C241.732 152.096 240.98 150.779 240.159 149.506C238.421 146.801 236.494 144.222 234.392 141.79C232.285 139.26 229.996 136.808 227.597 134.425C225.198 132.041 222.746 129.707 220.166 127.415C218.899 126.274 217.606 125.165 216.3 124.072C214.994 122.978 213.624 121.833 212.468 120.929L222.55 107.384Z" fill="#FFC3BD"/>
<path d="M218.274 102.288C224.897 102.597 236.783 117.922 236.783 117.922L222.413 141.875C222.413 141.875 212.696 134.324 209.362 127.149C203.043 113.377 205.264 101.705 218.274 102.288Z" fill="#263238"/>
<path d="M215.222 159.241C214.72 159.286 214.215 159.2 213.757 158.99C213.299 158.781 212.903 158.455 212.608 158.046C211.42 156.205 210.77 154.068 210.731 151.877C210.718 150.972 210.549 150.077 210.231 149.229C209.562 148.391 208.755 147.673 207.844 147.107C206.057 146.038 204.596 144.501 203.618 142.663C202.87 140.608 202.741 138.38 203.249 136.254C203.432 135.445 203.491 134.612 203.423 133.786C202.96 132.832 202.339 131.963 201.588 131.214C199.946 129.836 198.871 127.9 198.568 125.777C198.265 123.655 198.756 121.495 199.947 119.713C200.279 119.085 200.53 118.418 200.694 117.727C200.509 116.638 200.136 115.591 199.594 114.629C198.598 113.009 198.122 111.123 198.232 109.224C198.503 106.512 199.598 103.949 201.371 101.878L201.539 101.671C202.027 101.105 202.714 100.749 203.457 100.676C204.2 100.604 204.943 100.82 205.531 101.282C206.118 101.743 206.506 102.413 206.612 103.152C206.718 103.891 206.535 104.643 206.101 105.251L205.802 105.617C204.737 106.874 204.093 108.433 203.962 110.076C204.192 110.784 204.481 111.472 204.826 112.132C205.76 113.805 206.329 115.656 206.497 117.564C206.432 119.168 205.996 120.734 205.223 122.141C204.684 123.056 204.373 124.088 204.316 125.149C204.746 126.008 205.318 126.789 206.008 127.458C207.32 128.789 208.34 130.38 209.002 132.129C209.392 133.782 209.4 135.501 209.028 137.158C208.764 138.211 208.741 139.31 208.958 140.374C209.596 141.204 210.384 141.906 211.282 142.444C212.867 143.45 214.226 144.772 215.276 146.328C216.064 147.888 216.496 149.603 216.541 151.349C216.547 152.484 216.805 153.604 217.295 154.628C217.753 155.245 217.947 156.019 217.835 156.779C217.723 157.54 217.314 158.225 216.698 158.684C216.267 159.002 215.756 159.195 215.222 159.241Z" fill="#407BFF"/>
<path opacity="0.2" d="M188.312 83.8858L181.204 93.8056C181.951 95.1439 182.58 96.5443 183.085 97.9911C186.363 96.6542 190.114 91.7692 189.6 88.1166C189.428 86.6405 188.992 85.2074 188.312 83.8858Z" fill="black"/>
<path d="M168.412 55.6166C165.472 62.1844 168.645 70.79 168.645 70.79C169.664 71.3155 170.805 71.5587 171.95 71.4945C173.095 71.4303 174.202 71.061 175.156 70.4249L172.485 54.0682L168.412 55.6166Z" fill="#263238"/>
<path d="M198.109 68.5462C196.467 79.5918 196.063 86.1372 189.967 91.3462C180.796 99.1842 167.533 92.9091 165.853 81.6008C164.33 71.4142 167.275 55.0743 178.534 51.605C181.01 50.8263 183.643 50.6938 186.183 51.2202C188.724 51.7467 191.088 52.9144 193.05 54.6124C195.012 56.3104 196.507 58.4822 197.392 60.9211C198.278 63.36 198.525 65.985 198.109 68.5462Z" fill="#FFC3BD"/>
<path d="M167.929 84.2502L167.54 84.2895L142.545 81.5751C141.186 81.4279 139.942 80.7468 139.085 79.6818C138.228 78.6168 137.829 77.255 137.976 75.896C138.124 74.537 138.805 73.2922 139.87 72.4353C140.935 71.5785 142.296 71.1798 143.655 71.327C143.903 71.354 144.142 71.4296 144.36 71.5495C144.578 71.6694 144.77 71.8312 144.926 72.0257C145.081 72.2201 145.196 72.4434 145.264 72.6825C145.333 72.9217 145.354 73.172 145.325 73.4191C145.267 73.9171 145.014 74.3719 144.622 74.6845C144.231 74.9972 143.731 75.1424 143.233 75.0886C143.056 75.0642 142.877 75.0775 142.706 75.1274C142.535 75.1773 142.377 75.2628 142.241 75.3783C142.104 75.4878 141.99 75.6233 141.905 75.777C141.821 75.9307 141.767 76.0995 141.748 76.2739C141.72 76.6288 141.823 76.9817 142.038 77.2656C142.267 77.5331 142.585 77.7084 142.933 77.7586L167.928 80.473C168.392 80.5261 168.821 80.7488 169.132 81.0984C169.443 81.4481 169.614 81.9001 169.613 82.368C169.611 82.8358 169.437 83.2867 169.124 83.6342C168.811 83.9818 168.38 84.2016 167.915 84.2516L167.929 84.2502Z" fill="#407BFF"/>
<path d="M167.873 84.6935L164.849 84.3569L165.351 79.931L168.301 80.2605C168.897 80.3263 169.443 80.6262 169.818 81.0942C170.194 81.5623 170.368 82.1602 170.303 82.7566C170.215 83.3256 169.916 83.8407 169.466 84.1995C169.016 84.5583 168.447 84.7347 167.873 84.6935Z" fill="white"/>
<path d="M190.83 63.3017C190.417 59.2014 187.026 56.5246 176.798 58.3585C168.445 59.8428 163.948 56.3295 165.807 50.6145C172.98 53.4787 171.385 48.9434 184.322 47.0696C197.259 45.1958 201.521 49.7099 203.66 57.1801C212.805 68.173 199.568 74.4523 199.568 74.4523L194.671 79.6862C193.584 80.0514 192.418 80.1183 191.297 79.8801C190.175 79.6419 189.137 79.1071 188.292 78.3317C188.292 78.3317 186.273 68.866 190.83 63.3017Z" fill="#263238"/>
<path d="M175.135 45.9397L174.821 46.1464C174.528 46.3421 174.293 46.6113 174.138 46.927C173.982 47.2427 173.913 47.5937 173.937 47.9447C173.96 48.2957 174.076 48.6343 174.272 48.9264C174.468 49.2185 174.737 49.4538 175.053 49.6086L207.079 65.2063C207.38 65.3515 207.713 65.4191 208.046 65.4028C208.38 65.3866 208.705 65.287 208.99 65.1132C209.276 64.9394 209.513 64.6969 209.681 64.4079C209.849 64.1188 209.941 63.7923 209.951 63.4582C209.998 62.5129 209.766 61.5747 209.285 60.7599C208.803 59.9451 208.093 59.2896 207.242 58.8748L179.942 45.5861C179.179 45.2207 178.335 45.0611 177.491 45.1231C176.648 45.1852 175.836 45.4667 175.135 45.9397Z" fill="#407BFF"/>
<path d="M180.765 47.3845L187.335 35.3167C187.523 34.9727 187.835 34.7134 188.208 34.5918C188.581 34.4701 188.986 34.4954 189.34 34.6623L211.907 45.2638C212.104 45.3538 212.28 45.485 212.423 45.6485C212.565 45.8119 212.671 46.0039 212.733 46.2116C212.796 46.4193 212.813 46.6379 212.784 46.8528C212.755 47.0678 212.681 47.274 212.566 47.4579L204.57 60.5737L180.765 47.3845Z" fill="#407BFF"/>
<path d="M180.764 47.3844L183.284 41.5736L208.633 54.8842L204.569 60.5737L180.764 47.3844Z" fill="#407BFF"/>
<path opacity="0.6" d="M180.764 47.3844L183.284 41.5736L208.633 54.8842L204.569 60.5737L180.764 47.3844Z" fill="white"/>
<path d="M200.818 81.6179C198.852 83.2717 196.318 84.0925 193.756 83.9053C190.415 83.6007 190.08 80.2801 192.109 77.6981C193.931 75.3705 197.88 72.7406 200.693 74.3091C203.505 75.8776 203.249 79.5496 200.818 81.6179Z" fill="#FFC3BD"/>
<path d="M230.334 438.597L249.276 436.686C249.276 436.686 239.507 369.621 231.928 335.412C229.624 324.998 229.51 310.425 228.013 294.286C226.137 273.955 224.843 251.727 224.015 234.266C223.151 215.875 222.644 202.61 222.644 202.61L184.452 212.049C184.452 212.049 190.287 308.344 199.698 341.347C209.485 375.625 230.334 438.597 230.334 438.597Z" fill="#407BFF"/>
<path opacity="0.2" d="M228.01 294.242C226.135 273.911 224.84 251.684 224.012 234.222L217.458 227.081C211.673 241.155 220.212 276.215 228.01 294.242Z" fill="black"/>
<path d="M202.651 207.5C202.651 207.5 236.306 300.114 250.841 329.697C266.751 362.074 316.817 396.751 316.817 396.751L327.175 382.755C327.175 382.755 298.956 347.201 277.292 312.445C263.911 265.827 242.848 197.553 242.848 197.553L202.651 207.5Z" fill="#407BFF"/>
<path d="M315.453 398.843L332.125 381.22L326.854 376.254L307.88 395.625L315.453 398.843Z" fill="#263238"/>
<path d="M228 439.269L250.577 436.962L249.827 429.673L224.57 431.871L228 439.269Z" fill="#263238"/>
<path d="M181.266 68.1166C180.522 67.9729 179.74 68.7518 179.503 69.8696L182.156 70.4333C182.393 69.3155 181.997 68.2763 181.266 68.1166Z" fill="#263238"/>
<path d="M169.793 67.13C169.057 67.2043 168.434 68.113 168.549 69.2536L171.252 69.1559C171.18 68.011 170.556 67.1698 169.793 67.13Z" fill="#263238"/>
<path d="M174.008 70.0299C172.688 72.6989 171.01 75.1745 169.018 77.3879C169.601 77.8814 170.283 78.2421 171.019 78.445C171.755 78.6478 172.526 78.6879 173.279 78.5624L174.008 70.0299Z" fill="#ED847E"/>
<path d="M184.817 66.5913C184.91 66.6037 185.004 66.5942 185.092 66.5636C185.221 66.5071 185.322 66.4021 185.375 66.2713C185.427 66.1405 185.426 65.9945 185.371 65.8646C185.065 65.0768 184.573 64.3743 183.938 63.8164C183.303 63.2586 182.543 62.8618 181.723 62.6595C181.654 62.6442 181.583 62.6434 181.514 62.6569C181.446 62.6705 181.38 62.6982 181.323 62.7383C181.265 62.7784 181.216 62.8299 181.18 62.8898C181.143 62.9496 181.119 63.0164 181.109 63.0859C181.096 63.1543 181.097 63.2245 181.112 63.2926C181.126 63.3607 181.154 63.4252 181.194 63.4823C181.233 63.5394 181.284 63.588 181.343 63.6253C181.402 63.6625 181.467 63.6877 181.536 63.6992C182.188 63.8774 182.788 64.2089 183.285 64.6661C183.783 65.1233 184.164 65.6929 184.397 66.3275C184.442 66.4005 184.504 66.4622 184.577 66.5079C184.65 66.5536 184.732 66.5822 184.817 66.5913Z" fill="#263238"/>
<path d="M166.305 65.9506C166.393 65.9565 166.481 65.9407 166.561 65.9047C166.641 65.8686 166.711 65.8133 166.765 65.7437C167.15 65.1986 167.657 64.7516 168.246 64.4388C168.835 64.126 169.49 63.9562 170.157 63.9432C170.299 63.9498 170.437 63.9 170.542 63.8047C170.648 63.7093 170.711 63.5762 170.718 63.4344C170.725 63.2965 170.677 63.1613 170.585 63.0586C170.492 62.9558 170.363 62.8938 170.225 62.8862C169.38 62.8879 168.547 63.0926 167.797 63.4829C167.047 63.8732 166.402 64.4379 165.916 65.1294C165.87 65.183 165.835 65.2454 165.814 65.3126C165.793 65.3799 165.786 65.4508 165.793 65.5209C165.8 65.5911 165.822 65.6591 165.856 65.7208C165.89 65.7825 165.936 65.8367 165.991 65.8801C166.087 65.9319 166.196 65.9563 166.305 65.9506Z" fill="#263238"/>
<path d="M329.571 406.373C330.238 405.628 330.821 404.811 331.308 403.938C331.333 403.892 331.343 403.84 331.338 403.789C331.332 403.737 331.312 403.689 331.279 403.649C331.253 403.603 331.211 403.568 331.161 403.549C331.111 403.53 331.057 403.529 331.006 403.545C330.544 403.592 326.498 404.685 326.096 406.053C326.052 406.203 326.047 406.362 326.083 406.515C326.119 406.667 326.194 406.808 326.301 406.922C326.46 407.131 326.669 407.296 326.91 407.402C327.15 407.508 327.413 407.551 327.674 407.527C328.421 407.374 329.091 406.966 329.571 406.373ZM330.522 404.236C329.479 405.901 328.415 406.913 327.635 406.992C327.458 407.005 327.28 406.972 327.119 406.897C326.958 406.821 326.819 406.705 326.716 406.559C326.678 406.511 326.654 406.453 326.647 406.391C326.641 406.33 326.653 406.268 326.681 406.213C326.815 405.514 328.905 404.69 330.522 404.236Z" fill="#407BFF"/>
<path d="M331.272 404C331.307 403.96 331.332 403.912 331.346 403.861C331.363 403.817 331.37 403.768 331.365 403.721C331.36 403.673 331.344 403.627 331.318 403.587C331.207 403.496 328.761 401.366 327.116 401.546C326.915 401.567 326.72 401.63 326.544 401.73C326.369 401.831 326.216 401.967 326.096 402.13C325.957 402.279 325.872 402.47 325.855 402.673C325.838 402.876 325.891 403.079 326.005 403.248C326.71 404.314 329.976 404.451 331.221 404.063L331.272 404ZM326.529 402.378C326.683 402.216 326.891 402.117 327.114 402.101C328.168 401.994 329.735 403.076 330.494 403.655C329.057 403.873 326.796 403.576 326.368 402.949C326.361 402.877 326.245 402.742 326.452 402.474L326.529 402.378Z" fill="#407BFF"/>
<path d="M236.525 453.504C236.569 453.483 236.607 453.45 236.634 453.409C236.661 453.368 236.676 453.319 236.676 453.27C236.683 453.215 236.671 453.16 236.643 453.112C236.614 453.065 236.57 453.028 236.518 453.009C235.973 452.801 231.252 450.973 229.972 451.875C229.849 451.957 229.75 452.069 229.684 452.201C229.618 452.333 229.587 452.48 229.596 452.628C229.591 452.87 229.646 453.11 229.757 453.326C229.868 453.541 230.031 453.726 230.231 453.862C231.568 454.821 234.728 454.05 236.496 453.507L236.525 453.504ZM230.361 452.259C231.184 451.884 233.717 452.562 235.574 453.192C233.148 453.859 231.275 453.946 230.534 453.394C230.403 453.303 230.297 453.179 230.226 453.036C230.156 452.893 230.123 452.734 230.13 452.574C230.125 452.517 230.135 452.459 230.161 452.407C230.187 452.355 230.227 452.312 230.276 452.282L230.361 452.259Z" fill="#407BFF"/>
<path d="M236.523 453.504L236.595 453.497C236.629 453.464 236.655 453.424 236.671 453.379C236.687 453.335 236.692 453.287 236.686 453.24C236.674 453.124 236.038 450.141 234.502 449.085C234.287 448.937 234.044 448.833 233.789 448.781C233.533 448.729 233.269 448.73 233.013 448.783C232.277 448.857 232.12 449.325 232.106 449.618C232.032 450.909 234.946 453.051 236.369 453.564C236.425 453.559 236.478 453.539 236.523 453.504ZM232.825 449.371L233.099 449.343C233.289 449.302 233.486 449.302 233.676 449.343C233.867 449.384 234.046 449.466 234.202 449.582C235.124 450.468 235.749 451.617 235.992 452.872C234.538 452.188 232.514 450.481 232.566 449.703C232.585 449.599 232.572 449.469 232.825 449.371Z" fill="#407BFF"/>
<path d="M227.221 171.623L216.795 176.117L225.993 183.589C225.993 183.589 235.326 178.375 231.831 174.381L227.221 171.623Z" fill="#FFC3BD"/>
<path d="M213.322 186.064L221.457 189.94L225.994 183.59L216.796 176.117L213.322 186.064Z" fill="#FFC3BD"/>
<path d="M63.3441 105.877C57.3396 105.877 54.5145 99.8358 54.3964 99.5814C54.2936 99.2987 54.3008 98.9876 54.4167 98.7099C54.5326 98.4322 54.7487 98.2083 55.022 98.0825C55.2953 97.9567 55.6059 97.9382 55.8922 98.0308C56.1785 98.1234 56.4195 98.3202 56.5674 98.5822C56.5674 98.6639 58.9565 103.615 63.5258 103.488C63.8261 103.504 64.1091 103.634 64.3186 103.85C64.5282 104.065 64.6489 104.352 64.6569 104.653C64.6649 104.954 64.5596 105.246 64.3619 105.473C64.1641 105.7 63.8884 105.844 63.5893 105.877H63.3441Z" fill="#407BFF"/>
<path d="M141.822 21.9866C141.299 21.9889 140.777 21.9555 140.259 21.8867C140.104 21.8634 139.955 21.8098 139.821 21.729C139.686 21.6481 139.569 21.5416 139.476 21.4155C139.383 21.2894 139.315 21.1462 139.278 20.994C139.24 20.8418 139.232 20.6837 139.255 20.5286C139.279 20.3735 139.332 20.2245 139.413 20.0902C139.494 19.9558 139.6 19.8387 139.727 19.7455C139.853 19.6522 139.996 19.5848 140.148 19.5469C140.3 19.5091 140.458 19.5016 140.613 19.5248C140.668 19.5248 146.136 20.297 148.535 16.3999C148.616 16.2663 148.724 16.1501 148.85 16.058C148.977 15.9658 149.12 15.8995 149.273 15.8628C149.425 15.8261 149.583 15.8197 149.738 15.8441C149.892 15.8685 150.041 15.9231 150.174 16.0048C150.308 16.0865 150.424 16.1937 150.516 16.3204C150.608 16.447 150.675 16.5905 150.711 16.7428C150.748 16.895 150.755 17.053 150.73 17.2077C150.706 17.3624 150.651 17.5108 150.569 17.6444C148.18 21.4234 144.047 21.9866 141.822 21.9866Z" fill="#407BFF"/>
<path opacity="0.6" d="M141.822 21.9866C141.299 21.9889 140.777 21.9555 140.259 21.8867C140.104 21.8634 139.955 21.8098 139.821 21.729C139.686 21.6481 139.569 21.5416 139.476 21.4155C139.383 21.2894 139.315 21.1462 139.278 20.994C139.24 20.8418 139.232 20.6837 139.255 20.5286C139.279 20.3735 139.332 20.2245 139.413 20.0902C139.494 19.9558 139.6 19.8387 139.727 19.7455C139.853 19.6522 139.996 19.5848 140.148 19.5469C140.3 19.5091 140.458 19.5016 140.613 19.5248C140.668 19.5248 146.136 20.297 148.535 16.3999C148.616 16.2663 148.724 16.1501 148.85 16.058C148.977 15.9658 149.12 15.8995 149.273 15.8628C149.425 15.8261 149.583 15.8197 149.738 15.8441C149.892 15.8685 150.041 15.9231 150.174 16.0048C150.308 16.0865 150.424 16.1937 150.516 16.3204C150.608 16.447 150.675 16.5905 150.711 16.7428C150.748 16.895 150.755 17.053 150.73 17.2077C150.706 17.3624 150.651 17.5108 150.569 17.6444C148.18 21.4234 144.047 21.9866 141.822 21.9866Z" fill="white"/>
<path d="M7.01574 67.4789C4.71103 67.4004 2.47279 66.6868 0.547964 65.4168C0.412177 65.3298 0.295492 65.2161 0.204998 65.0826C0.114503 64.9491 0.0520868 64.7986 0.0215403 64.6402C-0.00900624 64.4819 -0.00704502 64.319 0.027303 64.1614C0.061651 64.0038 0.12767 63.8549 0.22135 63.7236C0.31503 63.5923 0.434417 63.4815 0.572259 63.3978C0.710101 63.314 0.863521 63.2592 1.0232 63.2366C1.18288 63.214 1.3455 63.2241 1.50116 63.2663C1.65682 63.3084 1.80229 63.3818 1.92873 63.4819C1.97415 63.4819 6.55245 66.5796 10.4131 64.1178C10.5454 64.0216 10.6959 63.9535 10.8554 63.9177C11.0149 63.8818 11.18 63.879 11.3407 63.9093C11.5013 63.9396 11.6541 64.0024 11.7896 64.094C11.925 64.1855 12.0404 64.3037 12.1285 64.4415C12.2166 64.5792 12.2756 64.7335 12.3018 64.8948C12.3281 65.0562 12.3211 65.2212 12.2813 65.3798C12.2414 65.5383 12.1696 65.6871 12.0702 65.8169C11.9707 65.9466 11.8458 66.0547 11.7031 66.1344C10.3036 67.0267 8.67536 67.4938 7.01574 67.4789Z" fill="#407BFF"/>
<path opacity="0.6" d="M7.01574 67.4789C4.71103 67.4004 2.47279 66.6868 0.547964 65.4168C0.412177 65.3298 0.295492 65.2161 0.204998 65.0826C0.114503 64.9491 0.0520868 64.7986 0.0215403 64.6402C-0.00900624 64.4819 -0.00704502 64.319 0.027303 64.1614C0.061651 64.0038 0.12767 63.8549 0.22135 63.7236C0.31503 63.5923 0.434417 63.4815 0.572259 63.3978C0.710101 63.314 0.863521 63.2592 1.0232 63.2366C1.18288 63.214 1.3455 63.2241 1.50116 63.2663C1.65682 63.3084 1.80229 63.3818 1.92873 63.4819C1.97415 63.4819 6.55245 66.5796 10.4131 64.1178C10.5454 64.0216 10.6959 63.9535 10.8554 63.9177C11.0149 63.8818 11.18 63.879 11.3407 63.9093C11.5013 63.9396 11.6541 64.0024 11.7896 64.094C11.925 64.1855 12.0404 64.3037 12.1285 64.4415C12.2166 64.5792 12.2756 64.7335 12.3018 64.8948C12.3281 65.0562 12.3211 65.2212 12.2813 65.3798C12.2414 65.5383 12.1696 65.6871 12.0702 65.8169C11.9707 65.9466 11.8458 66.0547 11.7031 66.1344C10.3036 67.0267 8.67536 67.4938 7.01574 67.4789Z" fill="white"/>
<path d="M318.623 35.6213C316.322 35.5593 314.082 34.8681 312.146 33.6229C311.886 33.4434 311.708 33.1679 311.65 32.857C311.593 32.5461 311.662 32.2252 311.842 31.965C312.021 31.7049 312.297 31.5266 312.608 31.4695C312.918 31.4125 313.239 31.4812 313.499 31.6607C313.545 31.6607 318.132 34.7493 321.993 32.2966C322.125 32.2125 322.272 32.1552 322.426 32.1279C322.58 32.1007 322.738 32.104 322.89 32.1378C323.043 32.1715 323.188 32.235 323.316 32.3246C323.444 32.4142 323.553 32.5282 323.637 32.66C323.721 32.7918 323.779 32.9389 323.806 33.0928C323.833 33.2468 323.83 33.4046 323.796 33.5573C323.762 33.71 323.699 33.8545 323.609 33.9827C323.52 34.1108 323.406 34.2201 323.274 34.3042C321.884 35.1849 320.268 35.6425 318.623 35.6213Z" fill="#407BFF"/>
<path opacity="0.6" d="M318.623 35.6213C316.322 35.5593 314.082 34.8681 312.146 33.6229C311.886 33.4434 311.708 33.1679 311.65 32.857C311.593 32.5461 311.662 32.2252 311.842 31.965C312.021 31.7049 312.297 31.5266 312.608 31.4695C312.918 31.4125 313.239 31.4812 313.499 31.6607C313.545 31.6607 318.132 34.7493 321.993 32.2966C322.125 32.2125 322.272 32.1552 322.426 32.1279C322.58 32.1007 322.738 32.104 322.89 32.1378C323.043 32.1715 323.188 32.235 323.316 32.3246C323.444 32.4142 323.553 32.5282 323.637 32.66C323.721 32.7918 323.779 32.9389 323.806 33.0928C323.833 33.2468 323.83 33.4046 323.796 33.5573C323.762 33.71 323.699 33.8545 323.609 33.9827C323.52 34.1108 323.406 34.2201 323.274 34.3042C321.884 35.1849 320.268 35.6425 318.623 35.6213Z" fill="white"/>
<path d="M172.534 129.45C166.965 129.45 163.931 124.054 163.795 123.808C163.642 123.531 163.606 123.205 163.693 122.901C163.781 122.597 163.986 122.34 164.263 122.187C164.54 122.034 164.867 121.997 165.171 122.085C165.475 122.173 165.731 122.378 165.884 122.655C165.884 122.728 168.61 127.488 173.152 127.024C173.455 127.014 173.752 127.119 173.981 127.319C174.21 127.518 174.355 127.797 174.386 128.1C174.417 128.402 174.332 128.705 174.149 128.947C173.965 129.189 173.696 129.353 173.397 129.404C173.124 129.431 172.825 129.45 172.534 129.45Z" fill="#407BFF"/>
<path opacity="0.6" d="M172.534 129.45C166.965 129.45 163.931 124.054 163.795 123.808C163.642 123.531 163.606 123.205 163.693 122.901C163.781 122.597 163.986 122.34 164.263 122.187C164.54 122.034 164.867 121.997 165.171 122.085C165.475 122.173 165.731 122.378 165.884 122.655C165.884 122.728 168.61 127.488 173.152 127.024C173.455 127.014 173.752 127.119 173.981 127.319C174.21 127.518 174.355 127.797 174.386 128.1C174.417 128.402 174.332 128.705 174.149 128.947C173.965 129.189 173.696 129.353 173.397 129.404C173.124 129.431 172.825 129.45 172.534 129.45Z" fill="white"/>
<path d="M20.096 153.713C19.8067 153.71 19.5282 153.603 19.3126 153.41C19.097 153.217 18.959 152.952 18.9245 152.665C18.89 152.378 18.9613 152.088 19.1251 151.849C19.2889 151.611 19.5339 151.44 19.8144 151.369C19.8689 151.369 25.2011 149.961 25.9279 145.437C25.9529 145.283 26.0081 145.135 26.0904 145.002C26.1727 144.868 26.2804 144.753 26.4073 144.661C26.5343 144.57 26.678 144.504 26.8303 144.468C26.9826 144.432 27.1405 144.427 27.295 144.452C27.4495 144.477 27.5975 144.532 27.7307 144.614C27.8638 144.696 27.9794 144.804 28.0709 144.931C28.1625 145.058 28.2281 145.202 28.2641 145.354C28.3 145.506 28.3057 145.664 28.2806 145.819C27.3086 151.914 20.6683 153.613 20.3867 153.685C20.2908 153.704 20.1935 153.713 20.096 153.713Z" fill="#407BFF"/>
<path opacity="0.6" d="M20.096 153.713C19.8067 153.71 19.5282 153.603 19.3126 153.41C19.097 153.217 18.959 152.952 18.9245 152.665C18.89 152.378 18.9613 152.088 19.1251 151.849C19.2889 151.611 19.5339 151.44 19.8144 151.369C19.8689 151.369 25.2011 149.961 25.9279 145.437C25.9529 145.283 26.0081 145.135 26.0904 145.002C26.1727 144.868 26.2804 144.753 26.4073 144.661C26.5343 144.57 26.678 144.504 26.8303 144.468C26.9826 144.432 27.1405 144.427 27.295 144.452C27.4495 144.477 27.5975 144.532 27.7307 144.614C27.8638 144.696 27.9794 144.804 28.0709 144.931C28.1625 145.058 28.2281 145.202 28.2641 145.354C28.3 145.506 28.3057 145.664 28.2806 145.819C27.3086 151.914 20.6683 153.613 20.3867 153.685C20.2908 153.704 20.1935 153.713 20.096 153.713Z" fill="black"/>
<path d="M285.348 70.9126C285.051 70.9228 284.76 70.8213 284.534 70.6282C284.308 70.4351 284.163 70.1643 284.126 69.8692C284.09 69.5741 284.165 69.2761 284.337 69.0337C284.51 68.7914 284.766 68.6223 285.057 68.5599C285.112 68.5599 290.444 67.1609 291.171 62.6371C291.186 62.4734 291.234 62.3145 291.313 62.1702C291.392 62.026 291.5 61.8996 291.63 61.7988C291.76 61.698 291.909 61.625 292.068 61.5843C292.228 61.5437 292.394 61.5362 292.556 61.5625C292.718 61.5887 292.874 61.648 293.012 61.7368C293.15 61.8255 293.269 61.9418 293.361 62.0784C293.452 62.2149 293.515 62.3689 293.544 62.5307C293.574 62.6924 293.57 62.8585 293.533 63.0187C292.551 69.114 285.911 70.8127 285.629 70.8763C285.538 70.9017 285.443 70.914 285.348 70.9126Z" fill="#407BFF"/>
<path opacity="0.6" d="M285.348 70.9126C285.051 70.9228 284.76 70.8213 284.534 70.6282C284.308 70.4351 284.163 70.1643 284.126 69.8692C284.09 69.5741 284.165 69.2761 284.337 69.0337C284.51 68.7914 284.766 68.6223 285.057 68.5599C285.112 68.5599 290.444 67.1609 291.171 62.6371C291.186 62.4734 291.234 62.3145 291.313 62.1702C291.392 62.026 291.5 61.8996 291.63 61.7988C291.76 61.698 291.909 61.625 292.068 61.5843C292.228 61.5437 292.394 61.5362 292.556 61.5625C292.718 61.5887 292.874 61.648 293.012 61.7368C293.15 61.8255 293.269 61.9418 293.361 62.0784C293.452 62.2149 293.515 62.3689 293.544 62.5307C293.574 62.6924 293.57 62.8585 293.533 63.0187C292.551 69.114 285.911 70.8127 285.629 70.8763C285.538 70.9017 285.443 70.914 285.348 70.9126Z" fill="black"/>
<path d="M334.156 116.205H333.956C333.666 116.15 326.925 114.915 325.535 108.938C325.499 108.784 325.494 108.624 325.52 108.468C325.547 108.312 325.604 108.163 325.688 108.03C325.773 107.896 325.883 107.78 326.013 107.69C326.143 107.6 326.289 107.536 326.444 107.503C326.598 107.468 326.757 107.464 326.912 107.49C327.068 107.517 327.217 107.574 327.35 107.659C327.483 107.743 327.599 107.853 327.689 107.982C327.78 108.111 327.845 108.257 327.879 108.411C328.915 112.862 334.329 113.861 334.383 113.861C334.669 113.922 334.923 114.086 335.097 114.322C335.271 114.557 335.352 114.848 335.327 115.139C335.301 115.431 335.17 115.703 334.957 115.904C334.745 116.105 334.467 116.222 334.174 116.232L334.156 116.205Z" fill="#407BFF"/>
<path d="M312.863 159.999C310.783 160.032 308.76 159.32 307.158 157.992C307.025 157.896 306.912 157.774 306.828 157.633C306.744 157.492 306.69 157.335 306.67 157.173C306.649 157.01 306.662 156.845 306.709 156.687C306.755 156.53 306.833 156.384 306.939 156.258C307.045 156.132 307.175 156.03 307.322 155.957C307.469 155.884 307.63 155.842 307.794 155.835C307.957 155.827 308.121 155.853 308.275 155.912C308.428 155.97 308.567 156.06 308.684 156.175C312.2 159.1 317.133 156.647 317.187 156.62C317.469 156.475 317.797 156.449 318.098 156.546C318.4 156.643 318.65 156.856 318.795 157.138C318.939 157.42 318.966 157.747 318.869 158.049C318.772 158.35 318.559 158.601 318.277 158.745C316.585 159.551 314.737 159.978 312.863 159.999Z" fill="#407BFF"/>
<path d="M257.188 10.9131C256.981 10.9147 256.778 10.8614 256.598 10.7587C256.353 10.6224 250.421 7.18867 251.148 1.05701C251.184 0.742603 251.343 0.455429 251.591 0.258666C251.839 0.0619039 252.155 -0.0283284 252.469 0.00780984C252.784 0.043948 253.071 0.203499 253.268 0.451369C253.464 0.699239 253.555 1.01512 253.518 1.32952C253.001 5.8715 257.761 8.66028 257.806 8.68753C258.037 8.81823 258.218 9.02256 258.32 9.26798C258.422 9.51341 258.438 9.7858 258.367 10.0418C258.296 10.2978 258.142 10.5226 257.928 10.6805C257.714 10.8384 257.454 10.9203 257.188 10.9131Z" fill="#407BFF"/>
<path d="M19.9051 15.7547C19.7488 15.7613 19.5928 15.737 19.4459 15.6832C19.299 15.6295 19.1641 15.5474 19.049 15.4415C18.9338 15.3356 18.8407 15.2081 18.7748 15.0663C18.7089 14.9244 18.6717 14.7709 18.6651 14.6147C18.6585 14.4584 18.6828 14.3024 18.7366 14.1555C18.7903 14.0086 18.8725 13.8737 18.9783 13.7586C19.0842 13.6434 19.2117 13.5503 19.3536 13.4844C19.4954 13.4186 19.6489 13.3813 19.8051 13.3747C24.3471 12.975 26.1639 7.76083 26.1639 7.70633C26.2694 7.41645 26.4834 7.17887 26.7607 7.04368C27.038 6.9085 27.3569 6.88628 27.6503 6.98171C27.9436 7.07714 28.1884 7.28276 28.3331 7.55521C28.4778 7.82766 28.511 8.14565 28.4258 8.44213C28.3441 8.72373 26.1639 15.2188 20.0141 15.7093L19.9051 15.7547Z" fill="#407BFF"/>
</svg>
