<svg width="24" height="29" viewBox="0 0 24 29" fill="none" xmlns="http://www.w3.org/2000/svg">
<path d="M1.20483 28.1349C1.20483 25.3271 4.11395 18.6294 11.7018 18.6294C19.2887 18.6294 22.0517 24.8586 22.2865 28.1349H1.20483Z" fill="url(#paint0_radial_390_217)"/>
<path d="M1.20483 28.1349C1.20483 25.3271 4.11395 18.6294 11.7018 18.6294C19.2887 18.6294 22.0517 24.8586 22.2865 28.1349H1.20483Z" fill="url(#paint1_radial_390_217)"/>
<path d="M1.20483 28.1349C1.20483 25.3271 4.11395 18.6294 11.7018 18.6294C19.2887 18.6294 22.0517 24.8586 22.2865 28.1349H1.20483Z" fill="url(#paint2_radial_390_217)"/>
<path d="M1.20483 28.1349C1.20483 25.3271 4.11395 18.6294 11.7018 18.6294C19.2887 18.6294 22.0517 24.8586 22.2865 28.1349H1.20483Z" fill="url(#paint3_radial_390_217)"/>
<path d="M1.20483 28.1349C1.20483 25.3271 4.11395 18.6294 11.7018 18.6294C19.2887 18.6294 22.0517 24.8586 22.2865 28.1349H1.20483Z" fill="url(#paint4_radial_390_217)"/>
<path d="M1.20483 28.1349C1.20483 25.3271 4.11395 18.6294 11.7018 18.6294C19.2887 18.6294 22.0517 24.8586 22.2865 28.1349H1.20483Z" fill="url(#paint5_radial_390_217)"/>
<path d="M4.82772 21.0798C2.27992 23.2848 1.20374 26.4277 1.20374 28.135H4.82674L4.82772 21.0798Z" fill="url(#paint6_radial_390_217)"/>
<path d="M4.82772 21.0798C2.27992 23.2848 1.20374 26.4277 1.20374 28.135H4.82674L4.82772 21.0798Z" fill="url(#paint7_radial_390_217)"/>
<path d="M4.82772 21.0798C2.27992 23.2848 1.20374 26.4277 1.20374 28.135H4.82674L4.82772 21.0798Z" fill="url(#paint8_radial_390_217)"/>
<path d="M18.7014 21.0867C21.1129 23.1923 22.1481 26.1871 22.2855 28.135H18.7014V21.0867Z" fill="url(#paint9_radial_390_217)"/>
<g filter="url(#filter0_i_390_217)">
<path d="M11.6578 0.86499C14.4238 0.86499 16.245 1.79022 17.3164 2.58884C17.8228 2.96867 17.5404 3.77703 16.9073 3.77703L11.7358 3.78677L11.6578 0.86499Z" fill="url(#paint10_radial_390_217)"/>
<path d="M11.6578 0.86499C14.4238 0.86499 16.245 1.79022 17.3164 2.58884C17.8228 2.96867 17.5404 3.77703 16.9073 3.77703L11.7358 3.78677L11.6578 0.86499Z" fill="url(#paint11_linear_390_217)"/>
</g>
<path d="M17.4528 9.10441H5.86304L6.03834 8.76354C7.12914 6.65986 9.29126 0.86499 11.6579 0.86499C14.0343 0.86499 16.2061 6.6696 17.2872 8.78302L17.4528 9.10441Z" fill="url(#paint12_radial_390_217)"/>
<path d="M17.4528 9.10441H5.86304L6.03834 8.76354C7.12914 6.65986 9.29126 0.86499 11.6579 0.86499C14.0343 0.86499 16.2061 6.6696 17.2872 8.78302L17.4528 9.10441Z" fill="url(#paint13_linear_390_217)"/>
<path d="M17.4528 9.10441H5.86304L6.03834 8.76354C7.12914 6.65986 9.29126 0.86499 11.6579 0.86499C14.0343 0.86499 16.2061 6.6696 17.2872 8.78302L17.4528 9.10441Z" fill="url(#paint14_radial_390_217)"/>
<path d="M5.63903 8.80247L5.45398 9.17257H17.8618L17.6865 8.82195C17.3806 8.22679 16.9902 7.67897 16.5275 7.1955H6.78826C6.34025 7.67272 5.95068 8.20838 5.63903 8.80247Z" fill="url(#paint15_linear_390_217)"/>
<path d="M5.63903 8.80247L5.45398 9.17257H17.8618L17.6865 8.82195C17.3806 8.22679 16.9902 7.67897 16.5275 7.1955H6.78826C6.34025 7.67272 5.95068 8.20838 5.63903 8.80247Z" fill="url(#paint16_linear_390_217)"/>
<path d="M5.63903 8.80247L5.45398 9.17257H17.8618L17.6865 8.82195C17.3806 8.22679 16.9902 7.67897 16.5275 7.1955H6.78826C6.34025 7.67272 5.95068 8.20838 5.63903 8.80247Z" fill="url(#paint17_linear_390_217)"/>
<path d="M19.1377 16.9153L4.33397 16.9056C1.94785 16.9056 0 14.9577 0 12.5619C0 10.166 1.94785 8.21814 4.34371 8.21814L19.1474 8.22788C21.5433 8.22788 23.4911 10.1757 23.4911 12.5716C23.486 13.7237 23.0254 14.827 22.2098 15.6408C21.3942 16.4546 20.2898 16.9127 19.1377 16.9153Z" fill="url(#paint18_radial_390_217)"/>
<path d="M19.1377 16.9153L4.33397 16.9056C1.94785 16.9056 0 14.9577 0 12.5619C0 10.166 1.94785 8.21814 4.34371 8.21814L19.1474 8.22788C21.5433 8.22788 23.4911 10.1757 23.4911 12.5716C23.486 13.7237 23.0254 14.827 22.2098 15.6408C21.3942 16.4546 20.2898 16.9127 19.1377 16.9153Z" fill="url(#paint19_radial_390_217)"/>
<path d="M19.1377 16.9153L4.33397 16.9056C1.94785 16.9056 0 14.9577 0 12.5619C0 10.166 1.94785 8.21814 4.34371 8.21814L19.1474 8.22788C21.5433 8.22788 23.4911 10.1757 23.4911 12.5716C23.486 13.7237 23.0254 14.827 22.2098 15.6408C21.3942 16.4546 20.2898 16.9127 19.1377 16.9153Z" fill="url(#paint20_radial_390_217)"/>
<path d="M19.1377 16.9153L4.33397 16.9056C1.94785 16.9056 0 14.9577 0 12.5619C0 10.166 1.94785 8.21814 4.34371 8.21814L19.1474 8.22788C21.5433 8.22788 23.4911 10.1757 23.4911 12.5716C23.486 13.7237 23.0254 14.827 22.2098 15.6408C21.3942 16.4546 20.2898 16.9127 19.1377 16.9153Z" fill="url(#paint21_radial_390_217)"/>
<path d="M19.1377 16.9153L4.33397 16.9056C1.94785 16.9056 0 14.9577 0 12.5619C0 10.166 1.94785 8.21814 4.34371 8.21814L19.1474 8.22788C21.5433 8.22788 23.4911 10.1757 23.4911 12.5716C23.486 13.7237 23.0254 14.827 22.2098 15.6408C21.3942 16.4546 20.2898 16.9127 19.1377 16.9153Z" fill="url(#paint22_radial_390_217)"/>
<path d="M19.1377 16.9153L4.33397 16.9056C1.94785 16.9056 0 14.9577 0 12.5619C0 10.166 1.94785 8.21814 4.34371 8.21814L19.1474 8.22788C21.5433 8.22788 23.4911 10.1757 23.4911 12.5716C23.486 13.7237 23.0254 14.827 22.2098 15.6408C21.3942 16.4546 20.2898 16.9127 19.1377 16.9153Z" fill="url(#paint23_radial_390_217)"/>
<path d="M19.1377 16.9153L4.33397 16.9056C1.94785 16.9056 0 14.9577 0 12.5619C0 10.166 1.94785 8.21814 4.34371 8.21814L19.1474 8.22788C21.5433 8.22788 23.4911 10.1757 23.4911 12.5716C23.486 13.7237 23.0254 14.827 22.2098 15.6408C21.3942 16.4546 20.2898 16.9127 19.1377 16.9153Z" fill="url(#paint24_radial_390_217)"/>
<g filter="url(#filter1_f_390_217)">
<path d="M18.6829 16.5062H5.05768C2.84686 16.5062 1.06458 15.0356 1.06458 13.2144C1.06458 11.3931 2.8566 9.92249 5.05768 9.92249L18.6829 9.93222C20.8937 9.93222 22.676 11.4029 22.676 13.2241C22.676 15.0356 20.884 16.5062 18.6829 16.5062Z" fill="url(#paint25_radial_390_217)"/>
<path d="M18.6829 16.5062H5.05768C2.84686 16.5062 1.06458 15.0356 1.06458 13.2144C1.06458 11.3931 2.8566 9.92249 5.05768 9.92249L18.6829 9.93222C20.8937 9.93222 22.676 11.4029 22.676 13.2241C22.676 15.0356 20.884 16.5062 18.6829 16.5062Z" fill="url(#paint26_radial_390_217)"/>
<path d="M18.6829 16.5062H5.05768C2.84686 16.5062 1.06458 15.0356 1.06458 13.2144C1.06458 11.3931 2.8566 9.92249 5.05768 9.92249L18.6829 9.93222C20.8937 9.93222 22.676 11.4029 22.676 13.2241C22.676 15.0356 20.884 16.5062 18.6829 16.5062Z" fill="url(#paint27_radial_390_217)"/>
<path d="M18.6829 16.5062H5.05768C2.84686 16.5062 1.06458 15.0356 1.06458 13.2144C1.06458 11.3931 2.8566 9.92249 5.05768 9.92249L18.6829 9.93222C20.8937 9.93222 22.676 11.4029 22.676 13.2241C22.676 15.0356 20.884 16.5062 18.6829 16.5062Z" fill="url(#paint28_radial_390_217)"/>
<path d="M18.6829 16.5062H5.05768C2.84686 16.5062 1.06458 15.0356 1.06458 13.2144C1.06458 11.3931 2.8566 9.92249 5.05768 9.92249L18.6829 9.93222C20.8937 9.93222 22.676 11.4029 22.676 13.2241C22.676 15.0356 20.884 16.5062 18.6829 16.5062Z" fill="url(#paint29_radial_390_217)"/>
<path d="M5.05766 9.82513L18.6829 9.83487M5.05766 9.82513V9.92253C2.85658 9.92253 1.06456 11.3932 1.06456 13.2144C1.06456 15.0356 2.84684 16.5063 5.05766 16.5063H18.6829C20.884 16.5063 22.676 15.0356 22.676 13.2241C22.676 11.4029 20.8937 9.93227 18.6829 9.93227V9.83487M5.05766 9.82513C2.82055 9.82513 0.967163 11.3221 0.967163 13.2144C0.967163 15.1058 2.81081 16.6037 5.05766 16.6037H18.6829C20.919 16.6037 22.7734 15.1058 22.7734 13.2241C22.7734 11.3318 20.9288 9.83487 18.6829 9.83487" stroke="url(#paint30_linear_390_217)" stroke-width="0.2"/>
</g>
<path d="M6.93437 15.2304C7.36057 15.2304 7.76931 15.0611 8.07068 14.7598C8.37205 14.4584 8.54135 14.0497 8.54135 13.6235C8.54135 13.1973 8.37205 12.7885 8.07068 12.4872C7.76931 12.1858 7.36057 12.0165 6.93437 12.0165C6.50817 12.0165 6.09943 12.1858 5.79807 12.4872C5.4967 12.7885 5.32739 13.1973 5.32739 13.6235C5.32739 14.0497 5.4967 14.4584 5.79807 14.7598C6.09943 15.0611 6.50817 15.2304 6.93437 15.2304Z" fill="url(#paint31_radial_390_217)"/>
<g filter="url(#filter2_f_390_217)">
<path d="M6.93436 14.6948C7.21849 14.6948 7.49098 14.5819 7.69189 14.381C7.89281 14.1801 8.00568 13.9076 8.00568 13.6234C8.00568 13.3393 7.89281 13.0668 7.69189 12.8659C7.49098 12.665 7.21849 12.5521 6.93436 12.5521C6.65022 12.5521 6.37773 12.665 6.17682 12.8659C5.97591 13.0668 5.86304 13.3393 5.86304 13.6234C5.86304 13.9076 5.97591 14.1801 6.17682 14.381C6.37773 14.5819 6.65022 14.6948 6.93436 14.6948Z" fill="#9E7276"/>
</g>
<path d="M16.3815 15.2304C16.8077 15.2304 17.2165 15.0611 17.5178 14.7598C17.8192 14.4584 17.9885 14.0497 17.9885 13.6235C17.9885 13.1973 17.8192 12.7885 17.5178 12.4872C17.2165 12.1858 16.8077 12.0165 16.3815 12.0165C15.9553 12.0165 15.5466 12.1858 15.2452 12.4872C14.9438 12.7885 14.7745 13.1973 14.7745 13.6235C14.7745 14.0497 14.9438 14.4584 15.2452 14.7598C15.5466 15.0611 15.9553 15.2304 16.3815 15.2304Z" fill="url(#paint32_radial_390_217)"/>
<path d="M16.3815 15.2304C16.8077 15.2304 17.2165 15.0611 17.5178 14.7598C17.8192 14.4584 17.9885 14.0497 17.9885 13.6235C17.9885 13.1973 17.8192 12.7885 17.5178 12.4872C17.2165 12.1858 16.8077 12.0165 16.3815 12.0165C15.9553 12.0165 15.5466 12.1858 15.2452 12.4872C14.9438 12.7885 14.7745 13.1973 14.7745 13.6235C14.7745 14.0497 14.9438 14.4584 15.2452 14.7598C15.5466 15.0611 15.9553 15.2304 16.3815 15.2304Z" fill="url(#paint33_radial_390_217)"/>
<g filter="url(#filter3_f_390_217)">
<path d="M16.3814 14.6948C16.6655 14.6948 16.938 14.5819 17.1389 14.381C17.3398 14.1801 17.4527 13.9076 17.4527 13.6234C17.4527 13.3393 17.3398 13.0668 17.1389 12.8659C16.938 12.665 16.6655 12.5521 16.3814 12.5521C16.0972 12.5521 15.8248 12.665 15.6238 12.8659C15.4229 13.0668 15.3101 13.3393 15.3101 13.6234C15.3101 13.9076 15.4229 14.1801 15.6238 14.381C15.8248 14.5819 16.0972 14.6948 16.3814 14.6948Z" fill="#AF8680"/>
</g>
<g filter="url(#filter4_i_390_217)">
<path d="M16.7039 12.0963C16.7039 12.0866 16.7039 12.0866 16.7039 12.0963L16.7136 11.9931C16.7526 10.9763 16.4575 10.276 14.7249 10.1192C12.9913 9.96242 10.3519 9.90983 8.56576 10.1192C6.78055 10.3276 6.5322 10.9948 6.63057 12.0495L6.92469 16.3894C7.17986 18.2252 8.81021 19.5897 10.7435 19.5897H12.5998C14.534 19.5897 16.1634 18.2165 16.4185 16.3894L16.7039 12.0963Z" fill="url(#paint34_radial_390_217)"/>
<path d="M16.7039 12.0963C16.7039 12.0866 16.7039 12.0866 16.7039 12.0963L16.7136 11.9931C16.7526 10.9763 16.4575 10.276 14.7249 10.1192C12.9913 9.96242 10.3519 9.90983 8.56576 10.1192C6.78055 10.3276 6.5322 10.9948 6.63057 12.0495L6.92469 16.3894C7.17986 18.2252 8.81021 19.5897 10.7435 19.5897H12.5998C14.534 19.5897 16.1634 18.2165 16.4185 16.3894L16.7039 12.0963Z" fill="url(#paint35_radial_390_217)"/>
<path d="M16.7039 12.0963C16.7039 12.0866 16.7039 12.0866 16.7039 12.0963L16.7136 11.9931C16.7526 10.9763 16.4575 10.276 14.7249 10.1192C12.9913 9.96242 10.3519 9.90983 8.56576 10.1192C6.78055 10.3276 6.5322 10.9948 6.63057 12.0495L6.92469 16.3894C7.17986 18.2252 8.81021 19.5897 10.7435 19.5897H12.5998C14.534 19.5897 16.1634 18.2165 16.4185 16.3894L16.7039 12.0963Z" fill="url(#paint36_radial_390_217)"/>
<path d="M16.7039 12.0963C16.7039 12.0866 16.7039 12.0866 16.7039 12.0963L16.7136 11.9931C16.7526 10.9763 16.4575 10.276 14.7249 10.1192C12.9913 9.96242 10.3519 9.90983 8.56576 10.1192C6.78055 10.3276 6.5322 10.9948 6.63057 12.0495L6.92469 16.3894C7.17986 18.2252 8.81021 19.5897 10.7435 19.5897H12.5998C14.534 19.5897 16.1634 18.2165 16.4185 16.3894L16.7039 12.0963Z" fill="url(#paint37_radial_390_217)"/>
</g>
<g filter="url(#filter5_ii_390_217)">
<path d="M8.3739 11.3883C8.3739 11.3883 9.07805 10.8302 10.052 10.9471" stroke="#A1A3AD" stroke-width="0.95" stroke-miterlimit="10" stroke-linecap="round" stroke-linejoin="round"/>
</g>
<g filter="url(#filter6_ii_390_217)">
<path d="M15.2118 11.3883C15.2118 11.3883 14.5232 10.8302 13.5493 10.9471" stroke="#A1A3AD" stroke-width="0.95" stroke-miterlimit="10" stroke-linecap="round" stroke-linejoin="round"/>
</g>
<path d="M15.724 28.135C16.1555 27.4483 17.0515 25.5804 17.1235 23.6023C17.2151 21.1149 17.2609 15.0103 16.6824 12.1713C16.5168 14.2361 14.7637 17.0565 11.6569 17.3117C8.55104 17.0565 6.79798 14.2361 6.63241 12.1713C6.05487 15.0103 6.10064 21.1149 6.19122 23.6023C6.26426 25.5804 7.16028 27.4483 7.59173 28.135H15.724Z" fill="url(#paint38_linear_390_217)"/>
<path d="M15.724 28.135C16.1555 27.4483 17.0515 25.5804 17.1235 23.6023C17.2151 21.1149 17.2609 15.0103 16.6824 12.1713C16.5168 14.2361 14.7637 17.0565 11.6569 17.3117C8.55104 17.0565 6.79798 14.2361 6.63241 12.1713C6.05487 15.0103 6.10064 21.1149 6.19122 23.6023C6.26426 25.5804 7.16028 27.4483 7.59173 28.135H15.724Z" fill="url(#paint39_radial_390_217)"/>
<path d="M15.724 28.135C16.1555 27.4483 17.0515 25.5804 17.1235 23.6023C17.2151 21.1149 17.2609 15.0103 16.6824 12.1713C16.5168 14.2361 14.7637 17.0565 11.6569 17.3117C8.55104 17.0565 6.79798 14.2361 6.63241 12.1713C6.05487 15.0103 6.10064 21.1149 6.19122 23.6023C6.26426 25.5804 7.16028 27.4483 7.59173 28.135H15.724Z" fill="url(#paint40_radial_390_217)"/>
<path d="M15.724 28.135C16.1555 27.4483 17.0515 25.5804 17.1235 23.6023C17.2151 21.1149 17.2609 15.0103 16.6824 12.1713C16.5168 14.2361 14.7637 17.0565 11.6569 17.3117C8.55104 17.0565 6.79798 14.2361 6.63241 12.1713C6.05487 15.0103 6.10064 21.1149 6.19122 23.6023C6.26426 25.5804 7.16028 27.4483 7.59173 28.135H15.724Z" fill="url(#paint41_radial_390_217)"/>
<path fill-rule="evenodd" clip-rule="evenodd" d="M9.90092 14.0578C9.9572 14.0068 10.0312 13.9797 10.1071 13.9822C10.183 13.9848 10.255 14.0168 10.3077 14.0716C10.3604 14.1263 10.3897 14.1994 10.3894 14.2754C10.3891 14.3514 10.3592 14.4242 10.3061 14.4786L10.3051 14.4795L10.3022 14.4825L10.2944 14.4893C10.2589 14.5223 10.2215 14.5532 10.1824 14.5818C10.0822 14.6583 9.97598 14.7267 9.86489 14.7863C9.51672 14.9768 9.12403 15.0709 8.72734 15.059C8.64985 15.0562 8.57666 15.0227 8.52388 14.9659C8.47109 14.9091 8.44303 14.8336 8.44588 14.7561C8.44872 14.6786 8.48222 14.6055 8.53903 14.5527C8.59583 14.4999 8.67128 14.4718 8.74877 14.4747C9.09061 14.4873 9.38085 14.3831 9.58829 14.2711C9.69452 14.2142 9.79469 14.1466 9.88729 14.0695L9.89995 14.0588L9.90092 14.0578Z" fill="#DD9892"/>
<path fill-rule="evenodd" clip-rule="evenodd" d="M13.5902 14.0578C13.5344 14.0039 13.4595 13.9744 13.3819 13.9758C13.3044 13.9772 13.2306 14.0093 13.1767 14.0651C13.1229 14.1209 13.0934 14.1958 13.0948 14.2733C13.0961 14.3509 13.1283 14.4247 13.184 14.4785L13.186 14.4795L13.1889 14.4824L13.1957 14.4892C13.2312 14.5223 13.2686 14.5532 13.3077 14.5818C13.3827 14.6392 13.4899 14.7132 13.6262 14.7863C13.896 14.9314 14.2895 15.0765 14.7638 15.059C14.8412 15.056 14.9144 15.0224 14.9671 14.9655C15.0198 14.9086 15.0477 14.8331 15.0447 14.7556C15.0418 14.6781 15.0081 14.605 14.9512 14.5523C14.8943 14.4996 14.8189 14.4717 14.7414 14.4746C14.4484 14.4827 14.1586 14.4125 13.9018 14.2711C13.7959 14.2141 13.6961 14.1466 13.6038 14.0695L13.5912 14.0588L13.5892 14.0568L13.5902 14.0578Z" fill="#F5B3A8"/>
<g filter="url(#filter7_f_390_217)">
<path fill-rule="evenodd" clip-rule="evenodd" d="M11.4398 15.5655C11.5206 15.5024 11.6203 15.4681 11.7229 15.4683C11.8255 15.4685 11.925 15.503 12.0056 15.5665L14.4307 17.3147C14.7024 17.5163 14.795 17.9633 14.6382 18.3129C14.4814 18.6635 14.1346 18.7824 13.8629 18.5798L11.8333 17.1238C11.8005 17.1 11.7611 17.087 11.7206 17.0867C11.6801 17.0863 11.6405 17.0986 11.6073 17.1218L9.5231 18.5798C9.2504 18.7804 8.90369 18.6596 8.74786 18.31C8.59203 17.9594 8.6865 17.5124 8.95823 17.3117L11.4398 15.5655Z" fill="url(#paint42_linear_390_217)"/>
</g>
<path d="M14.047 12.2814C14.6839 12.2814 15.2206 12.7196 15.3666 13.3128C15.3764 13.3522 15.3771 13.3933 15.3686 13.433C15.3601 13.4727 15.3426 13.5099 15.3175 13.5419C15.2924 13.5738 15.2604 13.5996 15.2239 13.6173C15.1873 13.6349 15.1472 13.6441 15.1066 13.6439H12.9328C12.8999 13.644 12.8675 13.6369 12.8377 13.623C12.8079 13.6092 12.7815 13.5889 12.7604 13.5637C12.7393 13.5385 12.724 13.509 12.7156 13.4773C12.7072 13.4455 12.7059 13.4123 12.7117 13.38C12.7726 13.0705 12.939 12.7919 13.1826 12.5915C13.4261 12.3911 13.7316 12.2815 14.047 12.2814Z" fill="white"/>
<path d="M13.8454 12.5463C13.979 12.5463 14.1109 12.5772 14.2307 12.6365C14.3505 12.6958 14.455 12.782 14.536 12.8883C14.617 12.9946 14.6725 13.1182 14.698 13.2494C14.7234 13.3806 14.7183 13.5159 14.6829 13.6449H13.0039C12.9693 13.5157 12.9648 13.3803 12.9908 13.2491C13.0168 13.1179 13.0727 12.9944 13.154 12.8883C13.2353 12.7821 13.34 12.696 13.4598 12.6367C13.5797 12.5774 13.7116 12.5465 13.8454 12.5463Z" fill="url(#paint43_radial_390_217)"/>
<path d="M13.3477 13.415C13.3477 13.3497 13.3605 13.285 13.3856 13.2247C13.4106 13.1644 13.4473 13.1096 13.4935 13.0634C13.5397 13.0173 13.5946 12.9807 13.655 12.9558C13.7153 12.9309 13.78 12.9182 13.8453 12.9183C13.931 12.9178 14.0153 12.9395 14.0901 12.9812C14.1649 13.0229 14.2276 13.0832 14.2722 13.1563C14.3168 13.2295 14.3417 13.3129 14.3446 13.3984C14.3474 13.484 14.3281 13.5689 14.2885 13.6448H13.4071C13.3674 13.5748 13.3463 13.4954 13.3477 13.415Z" fill="black"/>
<g filter="url(#filter8_f_390_217)">
<path d="M13.782 12.7303C13.8443 12.8131 13.7138 12.9134 13.5677 13.0235C13.4197 13.1335 13.3106 13.2114 13.2493 13.1287C13.1869 13.0459 13.2561 12.8891 13.4031 12.779C13.5502 12.669 13.7197 12.6466 13.782 12.7303Z" fill="#C7A7A3"/>
<path d="M13.782 12.7303C13.8443 12.8131 13.7138 12.9134 13.5677 13.0235C13.4197 13.1335 13.3106 13.2114 13.2493 13.1287C13.1869 13.0459 13.2561 12.8891 13.4031 12.779C13.5502 12.669 13.7197 12.6466 13.782 12.7303Z" fill="url(#paint44_radial_390_217)"/>
</g>
<g filter="url(#filter9_f_390_217)">
<path d="M14.6197 13.3011C14.594 13.1308 14.5153 12.9731 14.3947 12.8502L14.1415 13.1277L14.2554 13.3508L14.6197 13.3011Z" fill="url(#paint45_linear_390_217)"/>
</g>
<path d="M22.7859 21.3603C23.0354 21.3611 23.2745 21.4605 23.451 21.637C23.6274 21.8134 23.7269 22.0525 23.7277 22.3021V24.4584H21.8441V22.3021C21.8464 22.053 21.9464 21.8148 22.1225 21.6387C22.2986 21.4625 22.5368 21.3626 22.7859 21.3603Z" fill="url(#paint46_radial_390_217)"/>
<path d="M22.7859 21.3603C23.0354 21.3611 23.2745 21.4605 23.451 21.637C23.6274 21.8134 23.7269 22.0525 23.7277 22.3021V24.4584H21.8441V22.3021C21.8464 22.053 21.9464 21.8148 22.1225 21.6387C22.2986 21.4625 22.5368 21.3626 22.7859 21.3603Z" fill="url(#paint47_radial_390_217)"/>
<path d="M9.3897 12.2814C8.75372 12.2814 8.21709 12.7196 8.071 13.3128C8.06102 13.3522 8.06021 13.3934 8.06864 13.4332C8.07708 13.4729 8.09452 13.5103 8.11964 13.5422C8.14475 13.5742 8.17687 13.6 8.21352 13.6176C8.25017 13.6353 8.29037 13.6442 8.33104 13.6439H10.5039C10.5368 13.6441 10.5694 13.6371 10.5993 13.6233C10.6292 13.6095 10.6557 13.5893 10.6769 13.5641C10.6981 13.5389 10.7135 13.5093 10.722 13.4775C10.7305 13.4457 10.7318 13.4124 10.7259 13.38C10.6645 13.0706 10.4978 12.7921 10.2542 12.5919C10.0105 12.3916 9.70507 12.2819 9.3897 12.2814Z" fill="white"/>
<path d="M9.59126 12.5463C9.45765 12.5465 9.32589 12.5775 9.2062 12.6369C9.08651 12.6963 8.98211 12.7824 8.90111 12.8887C8.8201 12.9949 8.76466 13.1184 8.7391 13.2495C8.71353 13.3807 8.71852 13.516 8.75368 13.6449H10.4337C10.4541 13.5699 10.4645 13.4927 10.4649 13.415C10.4631 13.1843 10.3703 12.9637 10.2067 12.801C10.0431 12.6383 9.82195 12.5468 9.59126 12.5463Z" fill="url(#paint48_radial_390_217)"/>
<path d="M10.0898 13.415C10.09 13.3496 10.0772 13.2847 10.0521 13.2243C10.0271 13.1639 9.99032 13.109 9.94397 13.0628C9.89761 13.0166 9.84257 12.9801 9.78203 12.9553C9.72148 12.9305 9.65662 12.9179 9.5912 12.9183C9.50564 12.918 9.42145 12.9398 9.34679 12.9815C9.27213 13.0233 9.20953 13.0837 9.16505 13.1568C9.12057 13.2298 9.09572 13.3132 9.09292 13.3987C9.09011 13.4842 9.10944 13.569 9.14903 13.6448H10.0304C10.0683 13.5741 10.0893 13.4952 10.0898 13.415Z" fill="black"/>
<g filter="url(#filter10_f_390_217)">
<path d="M10.3859 13.3127C10.3859 13.0322 10.157 12.8452 10.0957 12.7888L9.81519 13.0605L9.98757 13.4111L10.3859 13.3127Z" fill="url(#paint49_linear_390_217)"/>
</g>
<g filter="url(#filter11_f_390_217)">
<path d="M9.41909 13.0869C9.60446 12.9887 9.71451 12.8332 9.66491 12.7396C9.6153 12.6459 9.42482 12.6496 9.23945 12.7478C9.05408 12.846 8.94402 13.0016 8.99363 13.0952C9.04323 13.1888 9.23372 13.1851 9.41909 13.0869Z" fill="#C7A7A3" fill-opacity="0.9"/>
<path d="M9.41909 13.0869C9.60446 12.9887 9.71451 12.8332 9.66491 12.7396C9.6153 12.6459 9.42482 12.6496 9.23945 12.7478C9.05408 12.846 8.94402 13.0016 8.99363 13.0952C9.04323 13.1888 9.23372 13.1851 9.41909 13.0869Z" fill="url(#paint50_radial_390_217)"/>
</g>
<g filter="url(#filter12_i_390_217)">
<path d="M22.6545 3.66116C22.6086 3.63689 22.5573 3.62485 22.5054 3.6262C22.4535 3.62755 22.4029 3.64225 22.3583 3.66887C22.3138 3.6955 22.2769 3.73315 22.2511 3.77821C22.2254 3.82326 22.2117 3.87418 22.2113 3.92607V5.51747C22.2118 5.62075 22.1919 5.7231 22.1526 5.81863C22.1134 5.91415 22.0556 6.00096 21.9826 6.07403C21.9096 6.1471 21.8229 6.205 21.7274 6.24437C21.6319 6.28374 21.5296 6.30382 21.4263 6.30343C21.2253 6.29963 21.0337 6.21748 20.8924 6.07449C20.751 5.93151 20.6711 5.73898 20.6696 5.53792V3.92607C20.6692 3.87432 20.6555 3.82355 20.6298 3.77862C20.6041 3.7337 20.5673 3.69613 20.5229 3.66953C20.4785 3.64294 20.428 3.6282 20.3762 3.62673C20.3245 3.62527 20.2733 3.63712 20.2274 3.66116C19.8244 3.87888 19.487 4.20055 19.2503 4.59276C19.0136 4.98496 18.8863 5.43339 18.8815 5.89146C18.8717 6.88292 19.4512 7.7575 20.2868 8.18993C20.3842 8.23862 20.4436 8.33699 20.4436 8.4451V24.0737C20.4436 24.6337 20.9053 25.0954 21.4653 25.0954C22.0253 25.0954 22.4869 24.6327 22.4869 24.0727V8.42659C22.4865 8.37363 22.501 8.32163 22.5287 8.27651C22.5565 8.23139 22.5963 8.19498 22.6437 8.17142C23.052 7.9536 23.3935 7.62916 23.6319 7.23265C23.8703 6.83613 23.9968 6.38238 23.9978 5.91969C23.9988 5.45701 23.8743 5.00272 23.6376 4.60517C23.4008 4.20763 23.0607 3.88172 22.6535 3.66214L22.6545 3.66116Z" fill="url(#paint51_linear_390_217)"/>
<path d="M22.6545 3.66116C22.6086 3.63689 22.5573 3.62485 22.5054 3.6262C22.4535 3.62755 22.4029 3.64225 22.3583 3.66887C22.3138 3.6955 22.2769 3.73315 22.2511 3.77821C22.2254 3.82326 22.2117 3.87418 22.2113 3.92607V5.51747C22.2118 5.62075 22.1919 5.7231 22.1526 5.81863C22.1134 5.91415 22.0556 6.00096 21.9826 6.07403C21.9096 6.1471 21.8229 6.205 21.7274 6.24437C21.6319 6.28374 21.5296 6.30382 21.4263 6.30343C21.2253 6.29963 21.0337 6.21748 20.8924 6.07449C20.751 5.93151 20.6711 5.73898 20.6696 5.53792V3.92607C20.6692 3.87432 20.6555 3.82355 20.6298 3.77862C20.6041 3.7337 20.5673 3.69613 20.5229 3.66953C20.4785 3.64294 20.428 3.6282 20.3762 3.62673C20.3245 3.62527 20.2733 3.63712 20.2274 3.66116C19.8244 3.87888 19.487 4.20055 19.2503 4.59276C19.0136 4.98496 18.8863 5.43339 18.8815 5.89146C18.8717 6.88292 19.4512 7.7575 20.2868 8.18993C20.3842 8.23862 20.4436 8.33699 20.4436 8.4451V24.0737C20.4436 24.6337 20.9053 25.0954 21.4653 25.0954C22.0253 25.0954 22.4869 24.6327 22.4869 24.0727V8.42659C22.4865 8.37363 22.501 8.32163 22.5287 8.27651C22.5565 8.23139 22.5963 8.19498 22.6437 8.17142C23.052 7.9536 23.3935 7.62916 23.6319 7.23265C23.8703 6.83613 23.9968 6.38238 23.9978 5.91969C23.9988 5.45701 23.8743 5.00272 23.6376 4.60517C23.4008 4.20763 23.0607 3.88172 22.6535 3.66214L22.6545 3.66116Z" fill="url(#paint52_radial_390_217)"/>
<path d="M22.6545 3.66116C22.6086 3.63689 22.5573 3.62485 22.5054 3.6262C22.4535 3.62755 22.4029 3.64225 22.3583 3.66887C22.3138 3.6955 22.2769 3.73315 22.2511 3.77821C22.2254 3.82326 22.2117 3.87418 22.2113 3.92607V5.51747C22.2118 5.62075 22.1919 5.7231 22.1526 5.81863C22.1134 5.91415 22.0556 6.00096 21.9826 6.07403C21.9096 6.1471 21.8229 6.205 21.7274 6.24437C21.6319 6.28374 21.5296 6.30382 21.4263 6.30343C21.2253 6.29963 21.0337 6.21748 20.8924 6.07449C20.751 5.93151 20.6711 5.73898 20.6696 5.53792V3.92607C20.6692 3.87432 20.6555 3.82355 20.6298 3.77862C20.6041 3.7337 20.5673 3.69613 20.5229 3.66953C20.4785 3.64294 20.428 3.6282 20.3762 3.62673C20.3245 3.62527 20.2733 3.63712 20.2274 3.66116C19.8244 3.87888 19.487 4.20055 19.2503 4.59276C19.0136 4.98496 18.8863 5.43339 18.8815 5.89146C18.8717 6.88292 19.4512 7.7575 20.2868 8.18993C20.3842 8.23862 20.4436 8.33699 20.4436 8.4451V24.0737C20.4436 24.6337 20.9053 25.0954 21.4653 25.0954C22.0253 25.0954 22.4869 24.6327 22.4869 24.0727V8.42659C22.4865 8.37363 22.501 8.32163 22.5287 8.27651C22.5565 8.23139 22.5963 8.19498 22.6437 8.17142C23.052 7.9536 23.3935 7.62916 23.6319 7.23265C23.8703 6.83613 23.9968 6.38238 23.9978 5.91969C23.9988 5.45701 23.8743 5.00272 23.6376 4.60517C23.4008 4.20763 23.0607 3.88172 22.6535 3.66214L22.6545 3.66116Z" fill="url(#paint53_radial_390_217)"/>
<path d="M22.6545 3.66116C22.6086 3.63689 22.5573 3.62485 22.5054 3.6262C22.4535 3.62755 22.4029 3.64225 22.3583 3.66887C22.3138 3.6955 22.2769 3.73315 22.2511 3.77821C22.2254 3.82326 22.2117 3.87418 22.2113 3.92607V5.51747C22.2118 5.62075 22.1919 5.7231 22.1526 5.81863C22.1134 5.91415 22.0556 6.00096 21.9826 6.07403C21.9096 6.1471 21.8229 6.205 21.7274 6.24437C21.6319 6.28374 21.5296 6.30382 21.4263 6.30343C21.2253 6.29963 21.0337 6.21748 20.8924 6.07449C20.751 5.93151 20.6711 5.73898 20.6696 5.53792V3.92607C20.6692 3.87432 20.6555 3.82355 20.6298 3.77862C20.6041 3.7337 20.5673 3.69613 20.5229 3.66953C20.4785 3.64294 20.428 3.6282 20.3762 3.62673C20.3245 3.62527 20.2733 3.63712 20.2274 3.66116C19.8244 3.87888 19.487 4.20055 19.2503 4.59276C19.0136 4.98496 18.8863 5.43339 18.8815 5.89146C18.8717 6.88292 19.4512 7.7575 20.2868 8.18993C20.3842 8.23862 20.4436 8.33699 20.4436 8.4451V24.0737C20.4436 24.6337 20.9053 25.0954 21.4653 25.0954C22.0253 25.0954 22.4869 24.6327 22.4869 24.0727V8.42659C22.4865 8.37363 22.501 8.32163 22.5287 8.27651C22.5565 8.23139 22.5963 8.19498 22.6437 8.17142C23.052 7.9536 23.3935 7.62916 23.6319 7.23265C23.8703 6.83613 23.9968 6.38238 23.9978 5.91969C23.9988 5.45701 23.8743 5.00272 23.6376 4.60517C23.4008 4.20763 23.0607 3.88172 22.6535 3.66214L22.6545 3.66116Z" fill="url(#paint54_radial_390_217)"/>
</g>
<path d="M21.4458 7.46817C22.1232 7.46817 22.7729 7.19908 23.2519 6.72009C23.7309 6.2411 24 5.59144 24 4.91405C24 4.23665 23.7309 3.587 23.2519 3.10801C22.7729 2.62902 22.1232 2.35992 21.4458 2.35992C20.7685 2.35992 20.1188 2.62902 19.6398 3.10801C19.1608 3.587 18.8917 4.23665 18.8917 4.91405C18.8917 5.59144 19.1608 6.2411 19.6398 6.72009C20.1188 7.19908 20.7685 7.46817 21.4458 7.46817Z" fill="url(#paint55_radial_390_217)"/>
<path d="M21.4458 7.46817C22.1232 7.46817 22.7729 7.19908 23.2519 6.72009C23.7309 6.2411 24 5.59144 24 4.91405C24 4.23665 23.7309 3.587 23.2519 3.10801C22.7729 2.62902 22.1232 2.35992 21.4458 2.35992C20.7685 2.35992 20.1188 2.62902 19.6398 3.10801C19.1608 3.587 18.8917 4.23665 18.8917 4.91405C18.8917 5.59144 19.1608 6.2411 19.6398 6.72009C20.1188 7.19908 20.7685 7.46817 21.4458 7.46817Z" fill="url(#paint56_radial_390_217)"/>
<path d="M21.3786 4.31074C21.3218 4.20837 21.2864 4.09547 21.2748 3.97897C21.2631 3.86246 21.2754 3.7448 21.3108 3.6332C21.3462 3.5216 21.404 3.4184 21.4807 3.32993C21.5574 3.24147 21.6514 3.1696 21.7569 3.11873C21.8623 3.06786 21.9771 3.03906 22.094 3.0341C22.211 3.02914 22.3278 3.04811 22.4372 3.08987C22.5466 3.13162 22.6463 3.19528 22.7302 3.27693C22.8141 3.35858 22.8805 3.4565 22.9252 3.56471L23.046 3.85689C23.1291 4.05558 23.1328 4.27857 23.0564 4.47994C22.98 4.68131 22.8294 4.84573 22.6354 4.93934C22.4414 5.03295 22.219 5.04863 22.0138 4.98315C21.8086 4.91766 21.6364 4.776 21.5325 4.58733L21.3796 4.31074H21.3786Z" fill="url(#paint57_radial_390_217)"/>
<g filter="url(#filter13_f_390_217)">
<path d="M21.8306 8.69635V24.0279" stroke="url(#paint58_linear_390_217)" stroke-width="0.5" stroke-linecap="round"/>
</g>
<path d="M12.9222 17.1101C11.8333 17.5172 10.8555 17.2795 10.5029 17.1101L11.7048 16.1284L12.9222 17.1101Z" fill="#86014D"/>
<g filter="url(#filter14_ii_390_217)">
<path fill-rule="evenodd" clip-rule="evenodd" d="M11.3668 15.1914C11.4778 15.1273 11.6038 15.0936 11.732 15.0936C11.8602 15.0936 11.9862 15.1273 12.0972 15.1914L15.2245 16.9396C15.3076 16.9877 15.3805 17.0517 15.4389 17.128C15.4973 17.2042 15.5401 17.2912 15.5649 17.384C15.5897 17.4768 15.5959 17.5735 15.5833 17.6687C15.5707 17.764 15.5394 17.8557 15.4914 17.9389C15.4433 18.022 15.3793 18.0949 15.303 18.1533C15.2268 18.2117 15.1398 18.2545 15.047 18.2793C14.9542 18.304 14.8575 18.3103 14.7622 18.2977C14.667 18.2851 14.5752 18.2538 14.4921 18.2057L11.8236 16.7205C11.7948 16.7046 11.7624 16.6963 11.7296 16.6963C11.6967 16.6963 11.6644 16.7046 11.6356 16.7205L8.89398 18.2057C8.81065 18.2535 8.71874 18.2844 8.62347 18.2966C8.52821 18.3089 8.43146 18.3022 8.33877 18.2771C8.24607 18.252 8.15923 18.2088 8.08321 18.1501C8.00719 18.0914 7.94347 18.0183 7.8957 17.935C7.84793 17.8517 7.81704 17.7597 7.8048 17.6645C7.79255 17.5692 7.79919 17.4725 7.82433 17.3798C7.84947 17.2871 7.89263 17.2002 7.95133 17.1242C8.01003 17.0482 8.08313 16.9845 8.16646 16.9367L11.3678 15.1905L11.3668 15.1914Z" fill="url(#paint59_radial_390_217)"/>
<path fill-rule="evenodd" clip-rule="evenodd" d="M11.3668 15.1914C11.4778 15.1273 11.6038 15.0936 11.732 15.0936C11.8602 15.0936 11.9862 15.1273 12.0972 15.1914L15.2245 16.9396C15.3076 16.9877 15.3805 17.0517 15.4389 17.128C15.4973 17.2042 15.5401 17.2912 15.5649 17.384C15.5897 17.4768 15.5959 17.5735 15.5833 17.6687C15.5707 17.764 15.5394 17.8557 15.4914 17.9389C15.4433 18.022 15.3793 18.0949 15.303 18.1533C15.2268 18.2117 15.1398 18.2545 15.047 18.2793C14.9542 18.304 14.8575 18.3103 14.7622 18.2977C14.667 18.2851 14.5752 18.2538 14.4921 18.2057L11.8236 16.7205C11.7948 16.7046 11.7624 16.6963 11.7296 16.6963C11.6967 16.6963 11.6644 16.7046 11.6356 16.7205L8.89398 18.2057C8.81065 18.2535 8.71874 18.2844 8.62347 18.2966C8.52821 18.3089 8.43146 18.3022 8.33877 18.2771C8.24607 18.252 8.15923 18.2088 8.08321 18.1501C8.00719 18.0914 7.94347 18.0183 7.8957 17.935C7.84793 17.8517 7.81704 17.7597 7.8048 17.6645C7.79255 17.5692 7.79919 17.4725 7.82433 17.3798C7.84947 17.2871 7.89263 17.2002 7.95133 17.1242C8.01003 17.0482 8.08313 16.9845 8.16646 16.9367L11.3678 15.1905L11.3668 15.1914Z" fill="url(#paint60_radial_390_217)"/>
<path fill-rule="evenodd" clip-rule="evenodd" d="M11.3668 15.1914C11.4778 15.1273 11.6038 15.0936 11.732 15.0936C11.8602 15.0936 11.9862 15.1273 12.0972 15.1914L15.2245 16.9396C15.3076 16.9877 15.3805 17.0517 15.4389 17.128C15.4973 17.2042 15.5401 17.2912 15.5649 17.384C15.5897 17.4768 15.5959 17.5735 15.5833 17.6687C15.5707 17.764 15.5394 17.8557 15.4914 17.9389C15.4433 18.022 15.3793 18.0949 15.303 18.1533C15.2268 18.2117 15.1398 18.2545 15.047 18.2793C14.9542 18.304 14.8575 18.3103 14.7622 18.2977C14.667 18.2851 14.5752 18.2538 14.4921 18.2057L11.8236 16.7205C11.7948 16.7046 11.7624 16.6963 11.7296 16.6963C11.6967 16.6963 11.6644 16.7046 11.6356 16.7205L8.89398 18.2057C8.81065 18.2535 8.71874 18.2844 8.62347 18.2966C8.52821 18.3089 8.43146 18.3022 8.33877 18.2771C8.24607 18.252 8.15923 18.2088 8.08321 18.1501C8.00719 18.0914 7.94347 18.0183 7.8957 17.935C7.84793 17.8517 7.81704 17.7597 7.8048 17.6645C7.79255 17.5692 7.79919 17.4725 7.82433 17.3798C7.84947 17.2871 7.89263 17.2002 7.95133 17.1242C8.01003 17.0482 8.08313 16.9845 8.16646 16.9367L11.3678 15.1905L11.3668 15.1914Z" fill="url(#paint61_radial_390_217)"/>
</g>
<path fill-rule="evenodd" clip-rule="evenodd" d="M11.3668 15.1914C11.4778 15.1273 11.6038 15.0936 11.732 15.0936C11.8602 15.0936 11.9862 15.1273 12.0972 15.1914L15.2245 16.9396C15.3076 16.9877 15.3805 17.0517 15.4389 17.128C15.4973 17.2042 15.5401 17.2912 15.5649 17.384C15.5897 17.4768 15.5959 17.5735 15.5833 17.6687C15.5707 17.764 15.5394 17.8557 15.4914 17.9389C15.4433 18.022 15.3793 18.0949 15.303 18.1533C15.2268 18.2117 15.1398 18.2545 15.047 18.2793C14.9542 18.304 14.8575 18.3103 14.7622 18.2977C14.667 18.2851 14.5752 18.2538 14.4921 18.2057L11.8236 16.7205C11.7948 16.7046 11.7624 16.6963 11.7296 16.6963C11.6967 16.6963 11.6644 16.7046 11.6356 16.7205L8.89398 18.2057C8.81065 18.2535 8.71874 18.2844 8.62347 18.2966C8.52821 18.3089 8.43146 18.3022 8.33877 18.2771C8.24607 18.252 8.15923 18.2088 8.08321 18.1501C8.00719 18.0914 7.94347 18.0183 7.8957 17.935C7.84793 17.8517 7.81704 17.7597 7.8048 17.6645C7.79255 17.5692 7.79919 17.4725 7.82433 17.3798C7.84947 17.2871 7.89263 17.2002 7.95133 17.1242C8.01003 17.0482 8.08313 16.9845 8.16646 16.9367L11.3678 15.1905L11.3668 15.1914Z" fill="url(#paint62_linear_390_217)"/>
<g filter="url(#filter15_f_390_217)">
<path fill-rule="evenodd" clip-rule="evenodd" d="M12.4936 15.4057L12.0748 15.172C11.9703 15.1116 11.8518 15.0797 11.7311 15.0795C11.6105 15.0794 11.4918 15.1109 11.3872 15.171L10.9343 15.4184C10.9701 15.5052 11.0309 15.5795 11.1089 15.6319C11.1869 15.6842 11.2787 15.7123 11.3726 15.7125H12.0563C12.1516 15.7112 12.2442 15.6813 12.3222 15.6265C12.4002 15.5718 12.4599 15.4949 12.4936 15.4057Z" fill="#9B7768"/>
</g>
<path d="M11.3511 13.3507L10.8671 14.9966C10.7648 15.3375 11.0063 15.6784 11.3511 15.6784H12.0776C12.4127 15.6784 12.6552 15.3375 12.5617 14.9966L12.0776 13.3507C11.9569 12.9904 11.4631 12.9904 11.3511 13.3507Z" fill="#A07A6C"/>
<path d="M11.3511 13.3507L10.8671 14.9966C10.7648 15.3375 11.0063 15.6784 11.3511 15.6784H12.0776C12.4127 15.6784 12.6552 15.3375 12.5617 14.9966L12.0776 13.3507C11.9569 12.9904 11.4631 12.9904 11.3511 13.3507Z" fill="url(#paint63_linear_390_217)"/>
<path d="M11.3511 13.3507L10.8671 14.9966C10.7648 15.3375 11.0063 15.6784 11.3511 15.6784H12.0776C12.4127 15.6784 12.6552 15.3375 12.5617 14.9966L12.0776 13.3507C11.9569 12.9904 11.4631 12.9904 11.3511 13.3507Z" fill="url(#paint64_linear_390_217)"/>
<path d="M11.3511 13.3507L10.8671 14.9966C10.7648 15.3375 11.0063 15.6784 11.3511 15.6784H12.0776C12.4127 15.6784 12.6552 15.3375 12.5617 14.9966L12.0776 13.3507C11.9569 12.9904 11.4631 12.9904 11.3511 13.3507Z" fill="url(#paint65_linear_390_217)"/>
<path d="M11.3511 13.3507L10.8671 14.9966C10.7648 15.3375 11.0063 15.6784 11.3511 15.6784H12.0776C12.4127 15.6784 12.6552 15.3375 12.5617 14.9966L12.0776 13.3507C11.9569 12.9904 11.4631 12.9904 11.3511 13.3507Z" fill="url(#paint66_radial_390_217)"/>
<path d="M11.3511 13.3507L10.8671 14.9966C10.7648 15.3375 11.0063 15.6784 11.3511 15.6784H12.0776C12.4127 15.6784 12.6552 15.3375 12.5617 14.9966L12.0776 13.3507C11.9569 12.9904 11.4631 12.9904 11.3511 13.3507Z" fill="#EAB9A7"/>
<path d="M11.3511 13.3507L10.8671 14.9966C10.7648 15.3375 11.0063 15.6784 11.3511 15.6784H12.0776C12.4127 15.6784 12.6552 15.3375 12.5617 14.9966L12.0776 13.3507C11.9569 12.9904 11.4631 12.9904 11.3511 13.3507Z" fill="url(#paint67_linear_390_217)"/>
<path d="M11.3511 13.3507L10.8671 14.9966C10.7648 15.3375 11.0063 15.6784 11.3511 15.6784H12.0776C12.4127 15.6784 12.6552 15.3375 12.5617 14.9966L12.0776 13.3507C11.9569 12.9904 11.4631 12.9904 11.3511 13.3507Z" fill="url(#paint68_radial_390_217)"/>
<path d="M11.3511 13.3507L10.8671 14.9966C10.7648 15.3375 11.0063 15.6784 11.3511 15.6784H12.0776C12.4127 15.6784 12.6552 15.3375 12.5617 14.9966L12.0776 13.3507C11.9569 12.9904 11.4631 12.9904 11.3511 13.3507Z" fill="url(#paint69_radial_390_217)"/>
<g filter="url(#filter16_i_390_217)">
<path d="M19.1542 23.5828C19.1537 23.3946 19.2279 23.2138 19.3604 23.0802C19.4929 22.9465 19.6731 22.8709 19.8613 22.8699H22.5591C22.869 22.8699 23.1663 22.993 23.3855 23.2122C23.6047 23.4314 23.7278 23.7286 23.7278 24.0386V27.161C23.7278 27.4193 23.6252 27.667 23.4425 27.8497C23.2599 28.0323 23.0122 28.1349 22.7539 28.1349H19.8613C19.7 28.1353 19.5434 28.0808 19.417 27.9805C19.2907 27.8802 19.2022 27.74 19.166 27.5828C19.1298 27.4256 19.148 27.2608 19.2177 27.1153C19.2874 26.9699 19.4045 26.8524 19.5496 26.7821C19.4309 26.7226 19.3311 26.6312 19.2614 26.5182C19.1917 26.4052 19.1547 26.2751 19.1547 26.1423C19.1547 26.0095 19.1917 25.8793 19.2614 25.7663C19.3311 25.6533 19.4309 25.5619 19.5496 25.5024C19.4309 25.4429 19.3311 25.3515 19.2614 25.2385C19.1917 25.1255 19.1547 24.9953 19.1547 24.8625C19.1547 24.7297 19.1917 24.5996 19.2614 24.4866C19.3311 24.3736 19.4309 24.2822 19.5496 24.2227C19.4309 24.1632 19.331 24.0719 19.2611 23.9588C19.1913 23.8458 19.1543 23.7156 19.1542 23.5828Z" fill="url(#paint70_linear_390_217)"/>
<path d="M19.1542 23.5828C19.1537 23.3946 19.2279 23.2138 19.3604 23.0802C19.4929 22.9465 19.6731 22.8709 19.8613 22.8699H22.5591C22.869 22.8699 23.1663 22.993 23.3855 23.2122C23.6047 23.4314 23.7278 23.7286 23.7278 24.0386V27.161C23.7278 27.4193 23.6252 27.667 23.4425 27.8497C23.2599 28.0323 23.0122 28.1349 22.7539 28.1349H19.8613C19.7 28.1353 19.5434 28.0808 19.417 27.9805C19.2907 27.8802 19.2022 27.74 19.166 27.5828C19.1298 27.4256 19.148 27.2608 19.2177 27.1153C19.2874 26.9699 19.4045 26.8524 19.5496 26.7821C19.4309 26.7226 19.3311 26.6312 19.2614 26.5182C19.1917 26.4052 19.1547 26.2751 19.1547 26.1423C19.1547 26.0095 19.1917 25.8793 19.2614 25.7663C19.3311 25.6533 19.4309 25.5619 19.5496 25.5024C19.4309 25.4429 19.3311 25.3515 19.2614 25.2385C19.1917 25.1255 19.1547 24.9953 19.1547 24.8625C19.1547 24.7297 19.1917 24.5996 19.2614 24.4866C19.3311 24.3736 19.4309 24.2822 19.5496 24.2227C19.4309 24.1632 19.331 24.0719 19.2611 23.9588C19.1913 23.8458 19.1543 23.7156 19.1542 23.5828Z" fill="url(#paint71_radial_390_217)"/>
<path d="M19.1542 23.5828C19.1537 23.3946 19.2279 23.2138 19.3604 23.0802C19.4929 22.9465 19.6731 22.8709 19.8613 22.8699H22.5591C22.869 22.8699 23.1663 22.993 23.3855 23.2122C23.6047 23.4314 23.7278 23.7286 23.7278 24.0386V27.161C23.7278 27.4193 23.6252 27.667 23.4425 27.8497C23.2599 28.0323 23.0122 28.1349 22.7539 28.1349H19.8613C19.7 28.1353 19.5434 28.0808 19.417 27.9805C19.2907 27.8802 19.2022 27.74 19.166 27.5828C19.1298 27.4256 19.148 27.2608 19.2177 27.1153C19.2874 26.9699 19.4045 26.8524 19.5496 26.7821C19.4309 26.7226 19.3311 26.6312 19.2614 26.5182C19.1917 26.4052 19.1547 26.2751 19.1547 26.1423C19.1547 26.0095 19.1917 25.8793 19.2614 25.7663C19.3311 25.6533 19.4309 25.5619 19.5496 25.5024C19.4309 25.4429 19.3311 25.3515 19.2614 25.2385C19.1917 25.1255 19.1547 24.9953 19.1547 24.8625C19.1547 24.7297 19.1917 24.5996 19.2614 24.4866C19.3311 24.3736 19.4309 24.2822 19.5496 24.2227C19.4309 24.1632 19.331 24.0719 19.2611 23.9588C19.1913 23.8458 19.1543 23.7156 19.1542 23.5828Z" fill="url(#paint72_radial_390_217)"/>
<path d="M19.1542 23.5828C19.1537 23.3946 19.2279 23.2138 19.3604 23.0802C19.4929 22.9465 19.6731 22.8709 19.8613 22.8699H22.5591C22.869 22.8699 23.1663 22.993 23.3855 23.2122C23.6047 23.4314 23.7278 23.7286 23.7278 24.0386V27.161C23.7278 27.4193 23.6252 27.667 23.4425 27.8497C23.2599 28.0323 23.0122 28.1349 22.7539 28.1349H19.8613C19.7 28.1353 19.5434 28.0808 19.417 27.9805C19.2907 27.8802 19.2022 27.74 19.166 27.5828C19.1298 27.4256 19.148 27.2608 19.2177 27.1153C19.2874 26.9699 19.4045 26.8524 19.5496 26.7821C19.4309 26.7226 19.3311 26.6312 19.2614 26.5182C19.1917 26.4052 19.1547 26.2751 19.1547 26.1423C19.1547 26.0095 19.1917 25.8793 19.2614 25.7663C19.3311 25.6533 19.4309 25.5619 19.5496 25.5024C19.4309 25.4429 19.3311 25.3515 19.2614 25.2385C19.1917 25.1255 19.1547 24.9953 19.1547 24.8625C19.1547 24.7297 19.1917 24.5996 19.2614 24.4866C19.3311 24.3736 19.4309 24.2822 19.5496 24.2227C19.4309 24.1632 19.331 24.0719 19.2611 23.9588C19.1913 23.8458 19.1543 23.7156 19.1542 23.5828Z" fill="url(#paint73_radial_390_217)"/>
<path d="M19.1542 23.5828C19.1537 23.3946 19.2279 23.2138 19.3604 23.0802C19.4929 22.9465 19.6731 22.8709 19.8613 22.8699H22.5591C22.869 22.8699 23.1663 22.993 23.3855 23.2122C23.6047 23.4314 23.7278 23.7286 23.7278 24.0386V27.161C23.7278 27.4193 23.6252 27.667 23.4425 27.8497C23.2599 28.0323 23.0122 28.1349 22.7539 28.1349H19.8613C19.7 28.1353 19.5434 28.0808 19.417 27.9805C19.2907 27.8802 19.2022 27.74 19.166 27.5828C19.1298 27.4256 19.148 27.2608 19.2177 27.1153C19.2874 26.9699 19.4045 26.8524 19.5496 26.7821C19.4309 26.7226 19.3311 26.6312 19.2614 26.5182C19.1917 26.4052 19.1547 26.2751 19.1547 26.1423C19.1547 26.0095 19.1917 25.8793 19.2614 25.7663C19.3311 25.6533 19.4309 25.5619 19.5496 25.5024C19.4309 25.4429 19.3311 25.3515 19.2614 25.2385C19.1917 25.1255 19.1547 24.9953 19.1547 24.8625C19.1547 24.7297 19.1917 24.5996 19.2614 24.4866C19.3311 24.3736 19.4309 24.2822 19.5496 24.2227C19.4309 24.1632 19.331 24.0719 19.2611 23.9588C19.1913 23.8458 19.1543 23.7156 19.1542 23.5828Z" fill="url(#paint74_radial_390_217)"/>
</g>
<path d="M19.1542 23.5828C19.1537 23.3946 19.2279 23.2138 19.3604 23.0802C19.4929 22.9465 19.6731 22.8709 19.8613 22.8699H22.5591C22.869 22.8699 23.1663 22.993 23.3855 23.2122C23.6047 23.4314 23.7278 23.7286 23.7278 24.0386V27.161C23.7278 27.4193 23.6252 27.667 23.4425 27.8497C23.2599 28.0323 23.0122 28.1349 22.7539 28.1349H19.8613C19.7 28.1353 19.5434 28.0808 19.417 27.9805C19.2907 27.8802 19.2022 27.74 19.166 27.5828C19.1298 27.4256 19.148 27.2608 19.2177 27.1153C19.2874 26.9699 19.4045 26.8524 19.5496 26.7821C19.4309 26.7226 19.3311 26.6312 19.2614 26.5182C19.1917 26.4052 19.1547 26.2751 19.1547 26.1423C19.1547 26.0095 19.1917 25.8793 19.2614 25.7663C19.3311 25.6533 19.4309 25.5619 19.5496 25.5024C19.4309 25.4429 19.3311 25.3515 19.2614 25.2385C19.1917 25.1255 19.1547 24.9953 19.1547 24.8625C19.1547 24.7297 19.1917 24.5996 19.2614 24.4866C19.3311 24.3736 19.4309 24.2822 19.5496 24.2227C19.4309 24.1632 19.331 24.0719 19.2611 23.9588C19.1913 23.8458 19.1543 23.7156 19.1542 23.5828Z" fill="url(#paint75_linear_390_217)"/>
<g filter="url(#filter17_f_390_217)">
<path d="M19.6606 24.2178H21.4108" stroke="url(#paint76_linear_390_217)" stroke-width="0.1" stroke-linecap="round"/>
</g>
<g filter="url(#filter18_f_390_217)">
<path d="M19.5847 25.4878H21.3339" stroke="url(#paint77_linear_390_217)" stroke-width="0.1" stroke-linecap="round"/>
</g>
<g filter="url(#filter19_f_390_217)">
<path d="M19.6606 26.7588H21.4108" stroke="url(#paint78_linear_390_217)" stroke-width="0.1" stroke-linecap="round"/>
</g>
<defs>
<filter id="filter0_i_390_217" x="11.6578" y="0.61499" width="6.16919" height="3.17175" filterUnits="userSpaceOnUse" color-interpolation-filters="sRGB">
<feFlood flood-opacity="0" result="BackgroundImageFix"/>
<feBlend mode="normal" in="SourceGraphic" in2="BackgroundImageFix" result="shape"/>
<feColorMatrix in="SourceAlpha" type="matrix" values="0 0 0 0 0 0 0 0 0 0 0 0 0 0 0 0 0 0 127 0" result="hardAlpha"/>
<feOffset dx="0.25" dy="-0.25"/>
<feGaussianBlur stdDeviation="0.25"/>
<feComposite in2="hardAlpha" operator="arithmetic" k2="-1" k3="1"/>
<feColorMatrix type="matrix" values="0 0 0 0 0.305882 0 0 0 0 0.521569 0 0 0 0 0.878431 0 0 0 1 0"/>
<feBlend mode="normal" in2="shape" result="effect1_innerShadow_390_217"/>
</filter>
<filter id="filter1_f_390_217" x="0.617188" y="9.47516" width="22.5062" height="7.47852" filterUnits="userSpaceOnUse" color-interpolation-filters="sRGB">
<feFlood flood-opacity="0" result="BackgroundImageFix"/>
<feBlend mode="normal" in="SourceGraphic" in2="BackgroundImageFix" result="shape"/>
<feGaussianBlur stdDeviation="0.125" result="effect1_foregroundBlur_390_217"/>
</filter>
<filter id="filter2_f_390_217" x="5.66304" y="12.3521" width="2.5427" height="2.54264" filterUnits="userSpaceOnUse" color-interpolation-filters="sRGB">
<feFlood flood-opacity="0" result="BackgroundImageFix"/>
<feBlend mode="normal" in="SourceGraphic" in2="BackgroundImageFix" result="shape"/>
<feGaussianBlur stdDeviation="0.1" result="effect1_foregroundBlur_390_217"/>
</filter>
<filter id="filter3_f_390_217" x="15.1101" y="12.3521" width="2.5427" height="2.54264" filterUnits="userSpaceOnUse" color-interpolation-filters="sRGB">
<feFlood flood-opacity="0" result="BackgroundImageFix"/>
<feBlend mode="normal" in="SourceGraphic" in2="BackgroundImageFix" result="shape"/>
<feGaussianBlur stdDeviation="0.1" result="effect1_foregroundBlur_390_217"/>
</filter>
<filter id="filter4_i_390_217" x="6.61218" y="9.9812" width="10.8546" height="10.3585" filterUnits="userSpaceOnUse" color-interpolation-filters="sRGB">
<feFlood flood-opacity="0" result="BackgroundImageFix"/>
<feBlend mode="normal" in="SourceGraphic" in2="BackgroundImageFix" result="shape"/>
<feColorMatrix in="SourceAlpha" type="matrix" values="0 0 0 0 0 0 0 0 0 0 0 0 0 0 0 0 0 0 127 0" result="hardAlpha"/>
<feOffset dx="0.75" dy="0.75"/>
<feGaussianBlur stdDeviation="0.5"/>
<feComposite in2="hardAlpha" operator="arithmetic" k2="-1" k3="1"/>
<feColorMatrix type="matrix" values="0 0 0 0 0.756863 0 0 0 0 0.545098 0 0 0 0 0.592157 0 0 0 1 0"/>
<feBlend mode="normal" in2="shape" result="effect1_innerShadow_390_217"/>
</filter>
<filter id="filter5_ii_390_217" x="7.89893" y="10.3559" width="2.82805" height="1.75735" filterUnits="userSpaceOnUse" color-interpolation-filters="sRGB">
<feFlood flood-opacity="0" result="BackgroundImageFix"/>
<feBlend mode="normal" in="SourceGraphic" in2="BackgroundImageFix" result="shape"/>
<feColorMatrix in="SourceAlpha" type="matrix" values="0 0 0 0 0 0 0 0 0 0 0 0 0 0 0 0 0 0 127 0" result="hardAlpha"/>
<feOffset dx="0.2" dy="-0.1"/>
<feGaussianBlur stdDeviation="0.2"/>
<feComposite in2="hardAlpha" operator="arithmetic" k2="-1" k3="1"/>
<feColorMatrix type="matrix" values="0 0 0 0 0.423529 0 0 0 0 0.396078 0 0 0 0 0.4 0 0 0 1 0"/>
<feBlend mode="normal" in2="shape" result="effect1_innerShadow_390_217"/>
<feColorMatrix in="SourceAlpha" type="matrix" values="0 0 0 0 0 0 0 0 0 0 0 0 0 0 0 0 0 0 127 0" result="hardAlpha"/>
<feOffset dy="0.25"/>
<feGaussianBlur stdDeviation="0.25"/>
<feComposite in2="hardAlpha" operator="arithmetic" k2="-1" k3="1"/>
<feColorMatrix type="matrix" values="0 0 0 0 0.4 0 0 0 0 0.443137 0 0 0 0 0.615686 0 0 0 1 0"/>
<feBlend mode="normal" in2="effect1_innerShadow_390_217" result="effect2_innerShadow_390_217"/>
</filter>
<filter id="filter6_ii_390_217" x="13.0742" y="10.3559" width="2.81255" height="1.75735" filterUnits="userSpaceOnUse" color-interpolation-filters="sRGB">
<feFlood flood-opacity="0" result="BackgroundImageFix"/>
<feBlend mode="normal" in="SourceGraphic" in2="BackgroundImageFix" result="shape"/>
<feColorMatrix in="SourceAlpha" type="matrix" values="0 0 0 0 0 0 0 0 0 0 0 0 0 0 0 0 0 0 127 0" result="hardAlpha"/>
<feOffset dx="0.2" dy="-0.1"/>
<feGaussianBlur stdDeviation="0.2"/>
<feComposite in2="hardAlpha" operator="arithmetic" k2="-1" k3="1"/>
<feColorMatrix type="matrix" values="0 0 0 0 0.423529 0 0 0 0 0.396078 0 0 0 0 0.4 0 0 0 1 0"/>
<feBlend mode="normal" in2="shape" result="effect1_innerShadow_390_217"/>
<feColorMatrix in="SourceAlpha" type="matrix" values="0 0 0 0 0 0 0 0 0 0 0 0 0 0 0 0 0 0 127 0" result="hardAlpha"/>
<feOffset dy="0.25"/>
<feGaussianBlur stdDeviation="0.25"/>
<feComposite in2="hardAlpha" operator="arithmetic" k2="-1" k3="1"/>
<feColorMatrix type="matrix" values="0 0 0 0 0.4 0 0 0 0 0.443137 0 0 0 0 0.615686 0 0 0 1 0"/>
<feBlend mode="normal" in2="effect1_innerShadow_390_217" result="effect2_innerShadow_390_217"/>
</filter>
<filter id="filter7_f_390_217" x="7.92273" y="14.7183" width="7.54175" height="4.71021" filterUnits="userSpaceOnUse" color-interpolation-filters="sRGB">
<feFlood flood-opacity="0" result="BackgroundImageFix"/>
<feBlend mode="normal" in="SourceGraphic" in2="BackgroundImageFix" result="shape"/>
<feGaussianBlur stdDeviation="0.375" result="effect1_foregroundBlur_390_217"/>
</filter>
<filter id="filter8_f_390_217" x="13.1263" y="12.5796" width="0.771655" height="0.683704" filterUnits="userSpaceOnUse" color-interpolation-filters="sRGB">
<feFlood flood-opacity="0" result="BackgroundImageFix"/>
<feBlend mode="normal" in="SourceGraphic" in2="BackgroundImageFix" result="shape"/>
<feGaussianBlur stdDeviation="0.05" result="effect1_foregroundBlur_390_217"/>
</filter>
<filter id="filter9_f_390_217" x="13.9415" y="12.6502" width="0.878149" height="0.90061" filterUnits="userSpaceOnUse" color-interpolation-filters="sRGB">
<feFlood flood-opacity="0" result="BackgroundImageFix"/>
<feBlend mode="normal" in="SourceGraphic" in2="BackgroundImageFix" result="shape"/>
<feGaussianBlur stdDeviation="0.1" result="effect1_foregroundBlur_390_217"/>
</filter>
<filter id="filter10_f_390_217" x="9.61519" y="12.5888" width="0.970679" height="1.02231" filterUnits="userSpaceOnUse" color-interpolation-filters="sRGB">
<feFlood flood-opacity="0" result="BackgroundImageFix"/>
<feBlend mode="normal" in="SourceGraphic" in2="BackgroundImageFix" result="shape"/>
<feGaussianBlur stdDeviation="0.1" result="effect1_foregroundBlur_390_217"/>
</filter>
<filter id="filter11_f_390_217" x="8.88169" y="12.5717" width="0.895068" height="0.691394" filterUnits="userSpaceOnUse" color-interpolation-filters="sRGB">
<feFlood flood-opacity="0" result="BackgroundImageFix"/>
<feBlend mode="normal" in="SourceGraphic" in2="BackgroundImageFix" result="shape"/>
<feGaussianBlur stdDeviation="0.05" result="effect1_foregroundBlur_390_217"/>
</filter>
<filter id="filter12_i_390_217" x="18.8813" y="3.6261" width="5.36646" height="21.4692" filterUnits="userSpaceOnUse" color-interpolation-filters="sRGB">
<feFlood flood-opacity="0" result="BackgroundImageFix"/>
<feBlend mode="normal" in="SourceGraphic" in2="BackgroundImageFix" result="shape"/>
<feColorMatrix in="SourceAlpha" type="matrix" values="0 0 0 0 0 0 0 0 0 0 0 0 0 0 0 0 0 0 127 0" result="hardAlpha"/>
<feOffset dx="0.25"/>
<feGaussianBlur stdDeviation="0.5"/>
<feComposite in2="hardAlpha" operator="arithmetic" k2="-1" k3="1"/>
<feColorMatrix type="matrix" values="0 0 0 0 0.74902 0 0 0 0 0.45098 0 0 0 0 0.364706 0 0 0 1 0"/>
<feBlend mode="normal" in2="shape" result="effect1_innerShadow_390_217"/>
</filter>
<filter id="filter13_f_390_217" x="20.9306" y="7.79635" width="1.8" height="17.1315" filterUnits="userSpaceOnUse" color-interpolation-filters="sRGB">
<feFlood flood-opacity="0" result="BackgroundImageFix"/>
<feBlend mode="normal" in="SourceGraphic" in2="BackgroundImageFix" result="shape"/>
<feGaussianBlur stdDeviation="0.325" result="effect1_foregroundBlur_390_217"/>
</filter>
<filter id="filter14_ii_390_217" x="7.79883" y="14.9436" width="7.79077" height="3.36045" filterUnits="userSpaceOnUse" color-interpolation-filters="sRGB">
<feFlood flood-opacity="0" result="BackgroundImageFix"/>
<feBlend mode="normal" in="SourceGraphic" in2="BackgroundImageFix" result="shape"/>
<feColorMatrix in="SourceAlpha" type="matrix" values="0 0 0 0 0 0 0 0 0 0 0 0 0 0 0 0 0 0 127 0" result="hardAlpha"/>
<feOffset/>
<feGaussianBlur stdDeviation="0.2"/>
<feComposite in2="hardAlpha" operator="arithmetic" k2="-1" k3="1"/>
<feColorMatrix type="matrix" values="0 0 0 0 0.698039 0 0 0 0 0.647059 0 0 0 0 0.662745 0 0 0 1 0"/>
<feBlend mode="normal" in2="shape" result="effect1_innerShadow_390_217"/>
<feColorMatrix in="SourceAlpha" type="matrix" values="0 0 0 0 0 0 0 0 0 0 0 0 0 0 0 0 0 0 127 0" result="hardAlpha"/>
<feOffset dy="-0.15"/>
<feGaussianBlur stdDeviation="0.15"/>
<feComposite in2="hardAlpha" operator="arithmetic" k2="-1" k3="1"/>
<feColorMatrix type="matrix" values="0 0 0 0 0.623529 0 0 0 0 0.552941 0 0 0 0 0.67451 0 0 0 1 0"/>
<feBlend mode="normal" in2="effect1_innerShadow_390_217" result="effect2_innerShadow_390_217"/>
</filter>
<filter id="filter15_f_390_217" x="10.8343" y="14.9795" width="1.7592" height="0.832996" filterUnits="userSpaceOnUse" color-interpolation-filters="sRGB">
<feFlood flood-opacity="0" result="BackgroundImageFix"/>
<feBlend mode="normal" in="SourceGraphic" in2="BackgroundImageFix" result="shape"/>
<feGaussianBlur stdDeviation="0.05" result="effect1_foregroundBlur_390_217"/>
</filter>
<filter id="filter16_i_390_217" x="19.1478" y="22.7199" width="4.77996" height="5.41508" filterUnits="userSpaceOnUse" color-interpolation-filters="sRGB">
<feFlood flood-opacity="0" result="BackgroundImageFix"/>
<feBlend mode="normal" in="SourceGraphic" in2="BackgroundImageFix" result="shape"/>
<feColorMatrix in="SourceAlpha" type="matrix" values="0 0 0 0 0 0 0 0 0 0 0 0 0 0 0 0 0 0 127 0" result="hardAlpha"/>
<feOffset dx="0.2" dy="-0.15"/>
<feGaussianBlur stdDeviation="0.5"/>
<feComposite in2="hardAlpha" operator="arithmetic" k2="-1" k3="1"/>
<feColorMatrix type="matrix" values="0 0 0 0 0.768627 0 0 0 0 0.52549 0 0 0 0 0.592157 0 0 0 1 0"/>
<feBlend mode="normal" in2="shape" result="effect1_innerShadow_390_217"/>
</filter>
<filter id="filter17_f_390_217" x="19.5106" y="24.0678" width="2.05022" height="0.299976" filterUnits="userSpaceOnUse" color-interpolation-filters="sRGB">
<feFlood flood-opacity="0" result="BackgroundImageFix"/>
<feBlend mode="normal" in="SourceGraphic" in2="BackgroundImageFix" result="shape"/>
<feGaussianBlur stdDeviation="0.05" result="effect1_foregroundBlur_390_217"/>
</filter>
<filter id="filter18_f_390_217" x="19.4347" y="25.3378" width="2.04924" height="0.299976" filterUnits="userSpaceOnUse" color-interpolation-filters="sRGB">
<feFlood flood-opacity="0" result="BackgroundImageFix"/>
<feBlend mode="normal" in="SourceGraphic" in2="BackgroundImageFix" result="shape"/>
<feGaussianBlur stdDeviation="0.05" result="effect1_foregroundBlur_390_217"/>
</filter>
<filter id="filter19_f_390_217" x="19.5106" y="26.6088" width="2.05022" height="0.299976" filterUnits="userSpaceOnUse" color-interpolation-filters="sRGB">
<feFlood flood-opacity="0" result="BackgroundImageFix"/>
<feBlend mode="normal" in="SourceGraphic" in2="BackgroundImageFix" result="shape"/>
<feGaussianBlur stdDeviation="0.05" result="effect1_foregroundBlur_390_217"/>
</filter>
<radialGradient id="paint0_radial_390_217" cx="0" cy="0" r="1" gradientUnits="userSpaceOnUse" gradientTransform="translate(17.2574 19.9477) rotate(123.947) scale(9.86919 21.8865)">
<stop stop-color="#42B8FE"/>
<stop offset="1" stop-color="#2A87F2"/>
</radialGradient>
<radialGradient id="paint1_radial_390_217" cx="0" cy="0" r="1" gradientUnits="userSpaceOnUse" gradientTransform="translate(7.7915 21.7742) rotate(90) scale(8.0349 2.52612)">
<stop offset="0.594" stop-color="#226BD5"/>
<stop offset="1" stop-color="#226BD5" stop-opacity="0"/>
</radialGradient>
<radialGradient id="paint2_radial_390_217" cx="0" cy="0" r="1" gradientUnits="userSpaceOnUse" gradientTransform="translate(4.80836 28.1349) scale(0.852186 10.9263)">
<stop stop-color="#2088EA"/>
<stop offset="1" stop-color="#2088EA" stop-opacity="0"/>
</radialGradient>
<radialGradient id="paint3_radial_390_217" cx="0" cy="0" r="1" gradientUnits="userSpaceOnUse" gradientTransform="translate(15.6745 23.3822) rotate(90) scale(6.9749 2.34351)">
<stop offset="0.249" stop-color="#3084EB"/>
<stop offset="1" stop-color="#3084EB" stop-opacity="0"/>
</radialGradient>
<radialGradient id="paint4_radial_390_217" cx="0" cy="0" r="1" gradientUnits="userSpaceOnUse" gradientTransform="translate(18.9001 23.6003) rotate(180) scale(1.09567 10.2262)">
<stop stop-color="#49BCFF"/>
<stop offset="1" stop-color="#49BCFF" stop-opacity="0"/>
</radialGradient>
<radialGradient id="paint5_radial_390_217" cx="0" cy="0" r="1" gradientUnits="userSpaceOnUse" gradientTransform="translate(10.5915 28.1349) rotate(-114.983) scale(9.36795 19.4535)">
<stop offset="0.603" stop-color="#3C79AE" stop-opacity="0"/>
<stop offset="1" stop-color="#458CD0"/>
</radialGradient>
<radialGradient id="paint6_radial_390_217" cx="0" cy="0" r="1" gradientUnits="userSpaceOnUse" gradientTransform="translate(4.82772 28.135) rotate(180) scale(3.62262 10.7436)">
<stop offset="0.291" stop-color="#3596F4"/>
<stop offset="1" stop-color="#2B84E7"/>
</radialGradient>
<radialGradient id="paint7_radial_390_217" cx="0" cy="0" r="1" gradientUnits="userSpaceOnUse" gradientTransform="translate(5.41694 28.5917) rotate(-169.762) scale(4.28083 10.0343)">
<stop offset="0.622" stop-color="#5B8FC2" stop-opacity="0"/>
<stop offset="1" stop-color="#4E85B1"/>
</radialGradient>
<radialGradient id="paint8_radial_390_217" cx="0" cy="0" r="1" gradientUnits="userSpaceOnUse" gradientTransform="translate(4.82772 23.5604) rotate(-90) scale(3.64252 0.470738)">
<stop stop-color="#278CE6"/>
<stop offset="1" stop-color="#278CE6" stop-opacity="0"/>
</radialGradient>
<radialGradient id="paint9_radial_390_217" cx="0" cy="0" r="1" gradientUnits="userSpaceOnUse" gradientTransform="translate(18.9225 21.6467) rotate(84.117) scale(6.5226 2.17056)">
<stop stop-color="#4ABFFF"/>
<stop offset="1" stop-color="#2E8CED"/>
</radialGradient>
<radialGradient id="paint10_radial_390_217" cx="0" cy="0" r="1" gradientUnits="userSpaceOnUse" gradientTransform="translate(13.0418 1.99085) rotate(10.704) scale(5.07976 1.48969)">
<stop offset="0.17" stop-color="#4CDBFF"/>
<stop offset="1" stop-color="#2BBBFF"/>
</radialGradient>
<linearGradient id="paint11_linear_390_217" x1="15.051" y1="3.98448" x2="15.3704" y2="2.66091" gradientUnits="userSpaceOnUse">
<stop stop-color="#2CAAFC"/>
<stop offset="1" stop-color="#2CAAFC" stop-opacity="0"/>
</linearGradient>
<radialGradient id="paint12_radial_390_217" cx="0" cy="0" r="1" gradientUnits="userSpaceOnUse" gradientTransform="translate(13.9252 2.63072) rotate(150.716) scale(5.1644 7.7022)">
<stop offset="0.063" stop-color="#4BDAFF"/>
<stop offset="1" stop-color="#2CB1F7"/>
</radialGradient>
<linearGradient id="paint13_linear_390_217" x1="13.3165" y1="7.19552" x2="13.3165" y2="6.03946" gradientUnits="userSpaceOnUse">
<stop stop-color="#50B2E2"/>
<stop offset="1" stop-color="#50B2E2" stop-opacity="0"/>
</linearGradient>
<radialGradient id="paint14_radial_390_217" cx="0" cy="0" r="1" gradientUnits="userSpaceOnUse" gradientTransform="translate(14.6858 6.25178) rotate(-168.989) scale(6.63529 12.3808)">
<stop offset="0.613" stop-color="#2FA9E7" stop-opacity="0"/>
<stop offset="1" stop-color="#4991BB"/>
</radialGradient>
<linearGradient id="paint15_linear_390_217" x1="10.2126" y1="8.56484" x2="16.1165" y2="8.4129" gradientUnits="userSpaceOnUse">
<stop stop-color="#423851"/>
<stop offset="1" stop-color="#584D65"/>
</linearGradient>
<linearGradient id="paint16_linear_390_217" x1="17.6992" y1="7.95613" x2="15.1728" y2="7.95613" gradientUnits="userSpaceOnUse">
<stop stop-color="#665D70"/>
<stop offset="1" stop-color="#665D70" stop-opacity="0"/>
</linearGradient>
<linearGradient id="paint17_linear_390_217" x1="5.8903" y1="8.18403" x2="8.05144" y2="9.17257" gradientUnits="userSpaceOnUse">
<stop stop-color="#57515F"/>
<stop offset="1" stop-color="#423952" stop-opacity="0"/>
</linearGradient>
<radialGradient id="paint18_radial_390_217" cx="0" cy="0" r="1" gradientUnits="userSpaceOnUse" gradientTransform="translate(11.7456 8.00193) rotate(90) scale(8.91295 24.0739)">
<stop stop-color="#35ACFA"/>
<stop offset="0.652" stop-color="#3171DA"/>
</radialGradient>
<radialGradient id="paint19_radial_390_217" cx="0" cy="0" r="1" gradientUnits="userSpaceOnUse" gradientTransform="translate(9.08771 7.65911) rotate(90) scale(2.57839 16.7782)">
<stop offset="0.167" stop-color="#2FB4F5"/>
<stop offset="1" stop-color="#359CF2" stop-opacity="0"/>
</radialGradient>
<radialGradient id="paint20_radial_390_217" cx="0" cy="0" r="1" gradientUnits="userSpaceOnUse" gradientTransform="translate(21.7049 9.34303) rotate(180) scale(8.45715 2.72956)">
<stop offset="0.254" stop-color="#3DA9F9"/>
<stop offset="1" stop-color="#3DA9F9" stop-opacity="0"/>
</radialGradient>
<radialGradient id="paint21_radial_390_217" cx="0" cy="0" r="1" gradientUnits="userSpaceOnUse" gradientTransform="translate(20.8459 8.21814) rotate(180) scale(9.90104 1.52217)">
<stop offset="0.083" stop-color="#2D6BA6"/>
<stop offset="1" stop-color="#2FA3F0" stop-opacity="0"/>
</radialGradient>
<radialGradient id="paint22_radial_390_217" cx="0" cy="0" r="1" gradientUnits="userSpaceOnUse" gradientTransform="translate(20.6745 10.5117) rotate(-90) scale(5.01928 1.25482)">
<stop offset="0.051" stop-color="#2E74CB"/>
<stop offset="1" stop-color="#2E74CB" stop-opacity="0"/>
</radialGradient>
<radialGradient id="paint23_radial_390_217" cx="0" cy="0" r="1" gradientUnits="userSpaceOnUse" gradientTransform="translate(6.56032 16.7518) rotate(-119.268) scale(3.1749 6.49987)">
<stop stop-color="#104E9B"/>
<stop offset="1" stop-color="#104E9B" stop-opacity="0"/>
</radialGradient>
<radialGradient id="paint24_radial_390_217" cx="0" cy="0" r="1" gradientUnits="userSpaceOnUse" gradientTransform="translate(17.181 16.6309) scale(3.7131 1.73481)">
<stop stop-color="#1868C3"/>
<stop offset="1" stop-color="#1868C3" stop-opacity="0"/>
</radialGradient>
<radialGradient id="paint25_radial_390_217" cx="0" cy="0" r="1" gradientUnits="userSpaceOnUse" gradientTransform="translate(20.0805 16.2063) rotate(-143.559) scale(10.2066 12.932)">
<stop offset="0.23" stop-color="#257BD2"/>
<stop offset="1" stop-color="#2E65D4"/>
</radialGradient>
<radialGradient id="paint26_radial_390_217" cx="0" cy="0" r="1" gradientUnits="userSpaceOnUse" gradientTransform="translate(16.8549 11.7924) scale(1.16414 0.565199)">
<stop stop-color="#215A98"/>
<stop offset="1" stop-color="#215A98" stop-opacity="0"/>
</radialGradient>
<radialGradient id="paint27_radial_390_217" cx="0" cy="0" r="1" gradientUnits="userSpaceOnUse" gradientTransform="translate(7.17597 11.9755) rotate(180) scale(1.56741 0.791316)">
<stop stop-color="#14488D"/>
<stop offset="1" stop-color="#14488D" stop-opacity="0"/>
</radialGradient>
<radialGradient id="paint28_radial_390_217" cx="0" cy="0" r="1" gradientUnits="userSpaceOnUse" gradientTransform="translate(6.65767 15.7493) rotate(-177.049) scale(2.95613 4.47901)">
<stop offset="0.113" stop-color="#1956AE"/>
<stop offset="1" stop-color="#1956AE" stop-opacity="0"/>
</radialGradient>
<radialGradient id="paint29_radial_390_217" cx="0" cy="0" r="1" gradientUnits="userSpaceOnUse" gradientTransform="translate(1.78941 15.8719) rotate(-50.886) scale(3.42526 3.57308)">
<stop stop-color="#3171DB"/>
<stop offset="1" stop-color="#3171DB" stop-opacity="0"/>
</radialGradient>
<linearGradient id="paint30_linear_390_217" x1="11.8703" y1="9.92253" x2="11.8703" y2="15.2324" gradientUnits="userSpaceOnUse">
<stop stop-color="#4478E6"/>
<stop offset="1" stop-color="#4478E6" stop-opacity="0"/>
</linearGradient>
<radialGradient id="paint31_radial_390_217" cx="0" cy="0" r="1" gradientUnits="userSpaceOnUse" gradientTransform="translate(5.4173 13.2827) rotate(18.583) scale(1.86234)">
<stop stop-color="#9F7484"/>
<stop offset="1" stop-color="#A5797C"/>
</radialGradient>
<radialGradient id="paint32_radial_390_217" cx="0" cy="0" r="1" gradientUnits="userSpaceOnUse" gradientTransform="translate(16.0699 12.522) rotate(60.898) scale(3.10006)">
<stop stop-color="#AE8483"/>
<stop offset="0.818" stop-color="#B79392"/>
</radialGradient>
<radialGradient id="paint33_radial_390_217" cx="0" cy="0" r="1" gradientUnits="userSpaceOnUse" gradientTransform="translate(17.3253 13.2884) rotate(161.566) scale(0.649646 0.960056)">
<stop offset="0.493" stop-color="#B58F91"/>
<stop offset="1" stop-color="#B58F91" stop-opacity="0"/>
</radialGradient>
<radialGradient id="paint34_radial_390_217" cx="0" cy="0" r="1" gradientUnits="userSpaceOnUse" gradientTransform="translate(14.7237 14.2426) rotate(175.38) scale(6.74348 7.1647)">
<stop offset="0.099" stop-color="#FCC9B3"/>
<stop offset="1" stop-color="#D4A594"/>
</radialGradient>
<radialGradient id="paint35_radial_390_217" cx="0" cy="0" r="1" gradientUnits="userSpaceOnUse" gradientTransform="translate(9.57302 12.4634) rotate(-135.278) scale(1.75574 1.42853)">
<stop offset="0.138" stop-color="#CC968F"/>
<stop offset="1" stop-color="#CC968F" stop-opacity="0"/>
</radialGradient>
<radialGradient id="paint36_radial_390_217" cx="0" cy="0" r="1" gradientUnits="userSpaceOnUse" gradientTransform="translate(14.2476 12.5521) rotate(-90) scale(1.21741 1.5536)">
<stop stop-color="#E0AB9F"/>
<stop offset="1" stop-color="#E0AB9F" stop-opacity="0"/>
</radialGradient>
<radialGradient id="paint37_radial_390_217" cx="0" cy="0" r="1" gradientUnits="userSpaceOnUse" gradientTransform="translate(12.8773 10.8331) rotate(-39.9908) scale(2.04277 1.4956)">
<stop offset="0.098" stop-color="#CD9C90"/>
<stop offset="1" stop-color="#CD9C90" stop-opacity="0"/>
</radialGradient>
<linearGradient id="paint38_linear_390_217" x1="6.14739" y1="23.3997" x2="17.1898" y2="23.3997" gradientUnits="userSpaceOnUse">
<stop stop-color="#BFB9CA"/>
<stop offset="0.232" stop-color="#C9C1D3"/>
<stop offset="0.416" stop-color="#E8E0F3"/>
<stop offset="0.64" stop-color="#F4ECFC"/>
<stop offset="1" stop-color="#E0D5E0"/>
</linearGradient>
<radialGradient id="paint39_radial_390_217" cx="0" cy="0" r="1" gradientUnits="userSpaceOnUse" gradientTransform="translate(17.1904 12.3958) rotate(108.857) scale(5.76741 5.8472)">
<stop offset="0.462" stop-color="#D0CFE4"/>
<stop offset="1" stop-color="#D0CFE4" stop-opacity="0"/>
</radialGradient>
<radialGradient id="paint40_radial_390_217" cx="0" cy="0" r="1" gradientUnits="userSpaceOnUse" gradientTransform="translate(11.7932 13.2397) rotate(90) scale(4.85308 5.02205)">
<stop offset="0.849" stop-color="#EEEAF3"/>
<stop offset="0.937" stop-color="#E3DEE6" stop-opacity="0"/>
</radialGradient>
<radialGradient id="paint41_radial_390_217" cx="0" cy="0" r="1" gradientUnits="userSpaceOnUse" gradientTransform="translate(16.7447 28.3979) rotate(-94.0222) scale(7.31614 3.53754)">
<stop offset="0.279" stop-color="#CCC0D0"/>
<stop offset="1" stop-color="#E9DFEC" stop-opacity="0"/>
</radialGradient>
<linearGradient id="paint42_linear_390_217" x1="13.1744" y1="17.7578" x2="9.46954" y2="17.7578" gradientUnits="userSpaceOnUse">
<stop stop-color="#A899B6"/>
<stop offset="1" stop-color="#B0A3BD"/>
</linearGradient>
<radialGradient id="paint43_radial_390_217" cx="0" cy="0" r="1" gradientUnits="userSpaceOnUse" gradientTransform="translate(13.8434 13.0099) rotate(90) scale(0.790166 1.25684)">
<stop offset="0.802" stop-color="#7D574A"/>
<stop offset="1" stop-color="#664944"/>
</radialGradient>
<radialGradient id="paint44_radial_390_217" cx="0" cy="0" r="1" gradientUnits="userSpaceOnUse" gradientTransform="translate(13.6214 13.0934) rotate(-127.812) scale(0.368427 0.507231)">
<stop offset="0.766" stop-color="#FFE6E2" stop-opacity="0"/>
<stop offset="0.966" stop-color="#FFE6E2"/>
</radialGradient>
<linearGradient id="paint45_linear_390_217" x1="14.6012" y1="13.0634" x2="14.2963" y2="13.2514" gradientUnits="userSpaceOnUse">
<stop stop-color="#B4948D"/>
<stop offset="1" stop-color="#B4948D" stop-opacity="0"/>
</linearGradient>
<radialGradient id="paint46_radial_390_217" cx="0" cy="0" r="1" gradientUnits="userSpaceOnUse" gradientTransform="translate(24.2517 22.2612) rotate(154.424) scale(2.30558 2.26204)">
<stop offset="0.524" stop-color="#FBC4A9"/>
<stop offset="1" stop-color="#EDA886"/>
</radialGradient>
<radialGradient id="paint47_radial_390_217" cx="0" cy="0" r="1" gradientUnits="userSpaceOnUse" gradientTransform="translate(23.6089 21.6856) rotate(-33.9438) scale(0.953869 0.730984)">
<stop offset="0.132" stop-color="#FFDFC5"/>
<stop offset="1" stop-color="#FFDFC5" stop-opacity="0"/>
</radialGradient>
<radialGradient id="paint48_radial_390_217" cx="0" cy="0" r="1" gradientUnits="userSpaceOnUse" gradientTransform="translate(9.59418 13.0099) rotate(90) scale(0.790205 1.25691)">
<stop offset="0.802" stop-color="#7D574A"/>
<stop offset="1" stop-color="#664944"/>
</radialGradient>
<linearGradient id="paint49_linear_390_217" x1="10.3177" y1="13.0634" x2="10.0129" y2="13.2514" gradientUnits="userSpaceOnUse">
<stop stop-color="#B4948D"/>
<stop offset="1" stop-color="#B4948D" stop-opacity="0"/>
</linearGradient>
<radialGradient id="paint50_radial_390_217" cx="0" cy="0" r="1" gradientUnits="userSpaceOnUse" gradientTransform="translate(9.45998 13.1953) rotate(-118.811) scale(0.481256 0.578505)">
<stop offset="0.766" stop-color="#FFE6E2" stop-opacity="0"/>
<stop offset="0.966" stop-color="#FFE6E2"/>
</radialGradient>
<linearGradient id="paint51_linear_390_217" x1="20.131" y1="8.79668" x2="23.9995" y2="8.79668" gradientUnits="userSpaceOnUse">
<stop stop-color="#D98350"/>
<stop offset="1" stop-color="#E4A771"/>
</linearGradient>
<radialGradient id="paint52_radial_390_217" cx="0" cy="0" r="1" gradientUnits="userSpaceOnUse" gradientTransform="translate(18.68 5.6383) rotate(50.631) scale(4.64575 4.805)">
<stop offset="0.217" stop-color="#BA756C"/>
<stop offset="1" stop-color="#BA756C" stop-opacity="0"/>
</radialGradient>
<radialGradient id="paint53_radial_390_217" cx="0" cy="0" r="1" gradientUnits="userSpaceOnUse" gradientTransform="translate(21.4409 5.77167) rotate(90) scale(2.03258 2.60093)">
<stop offset="0.759" stop-color="#BA795B"/>
<stop offset="1" stop-color="#BA795B" stop-opacity="0"/>
</radialGradient>
<radialGradient id="paint54_radial_390_217" cx="0" cy="0" r="1" gradientUnits="userSpaceOnUse" gradientTransform="translate(24.9482 6.24116) rotate(145.359) scale(3.92691 2.63435)">
<stop stop-color="#CC8C6F"/>
<stop offset="1" stop-color="#CC8C6F" stop-opacity="0"/>
</radialGradient>
<radialGradient id="paint55_radial_390_217" cx="0" cy="0" r="1" gradientUnits="userSpaceOnUse" gradientTransform="translate(23.0883 4.17574) rotate(144.673) scale(4.00136 4.4878)">
<stop stop-color="#4DDCFF"/>
<stop offset="1" stop-color="#2F85FE"/>
</radialGradient>
<radialGradient id="paint56_radial_390_217" cx="0" cy="0" r="1" gradientUnits="userSpaceOnUse" gradientTransform="translate(22.4558 5.91963) rotate(-133.348) scale(4.51668 4.56007)">
<stop offset="0.691" stop-color="#39A1FF" stop-opacity="0"/>
<stop offset="0.913" stop-color="#4093BE"/>
</radialGradient>
<radialGradient id="paint57_radial_390_217" cx="0" cy="0" r="1" gradientUnits="userSpaceOnUse" gradientTransform="translate(22.6703 5.02992) rotate(-111.272) scale(2.15763 2.85185)">
<stop offset="0.052" stop-color="white" stop-opacity="0"/>
<stop offset="1" stop-color="white"/>
</radialGradient>
<linearGradient id="paint58_linear_390_217" x1="-nan" y1="-nan" x2="-nan" y2="-nan" gradientUnits="userSpaceOnUse">
<stop stop-color="#E3A984"/>
<stop offset="1" stop-color="#E3A984" stop-opacity="0"/>
</linearGradient>
<radialGradient id="paint59_radial_390_217" cx="0" cy="0" r="1" gradientUnits="userSpaceOnUse" gradientTransform="translate(11.695 17.8483) rotate(-90) scale(2.1609 4.98391)">
<stop offset="0.514" stop-color="#D4D0DB"/>
<stop offset="1" stop-color="#C7C2CD"/>
</radialGradient>
<radialGradient id="paint60_radial_390_217" cx="0" cy="0" r="1" gradientUnits="userSpaceOnUse" gradientTransform="translate(8.97871 18.3041) rotate(-30.121) scale(3.39547 1.29728)">
<stop stop-color="#DBD5E2"/>
<stop offset="1" stop-color="#DBD5E2" stop-opacity="0"/>
</radialGradient>
<radialGradient id="paint61_radial_390_217" cx="0" cy="0" r="1" gradientUnits="userSpaceOnUse" gradientTransform="translate(15.3394 18.0304) rotate(-145.751) scale(1.73053 2.49864)">
<stop stop-color="#DDDAE3"/>
<stop offset="1" stop-color="#DDDAE3" stop-opacity="0"/>
</radialGradient>
<linearGradient id="paint62_linear_390_217" x1="13.9389" y1="15.7787" x2="13.3" y2="16.9348" gradientUnits="userSpaceOnUse">
<stop offset="0.182" stop-color="#D7D4DA"/>
<stop offset="1" stop-color="#D7D4DA" stop-opacity="0"/>
</linearGradient>
<linearGradient id="paint63_linear_390_217" x1="12.4643" y1="14.7921" x2="11.4446" y2="14.9148" gradientUnits="userSpaceOnUse">
<stop offset="0.175" stop-color="#BB9481"/>
<stop offset="1" stop-color="#A27C6E" stop-opacity="0"/>
</linearGradient>
<linearGradient id="paint64_linear_390_217" x1="11.8926" y1="15.6784" x2="11.8926" y2="14.8223" gradientUnits="userSpaceOnUse">
<stop offset="0.147" stop-color="#96676D"/>
<stop offset="1" stop-color="#A17B6D" stop-opacity="0"/>
</linearGradient>
<linearGradient id="paint65_linear_390_217" x1="10.8437" y1="14.685" x2="11.8098" y2="14.761" gradientUnits="userSpaceOnUse">
<stop stop-color="#805B52"/>
<stop offset="1" stop-color="#A17B6D" stop-opacity="0"/>
</linearGradient>
<radialGradient id="paint66_radial_390_217" cx="0" cy="0" r="1" gradientUnits="userSpaceOnUse" gradientTransform="translate(12.0153 15.1875) rotate(90) scale(0.190792 0.585983)">
<stop stop-color="#B88F82"/>
<stop offset="1" stop-color="#B88F82" stop-opacity="0"/>
</radialGradient>
<linearGradient id="paint67_linear_390_217" x1="10.8437" y1="14.7152" x2="11.4709" y2="14.8009" gradientUnits="userSpaceOnUse">
<stop stop-color="#DDA798"/>
<stop offset="1" stop-color="#DDA798" stop-opacity="0"/>
</linearGradient>
<radialGradient id="paint68_radial_390_217" cx="0" cy="0" r="1" gradientUnits="userSpaceOnUse" gradientTransform="translate(12.3172 15.0746) rotate(-101.299) scale(2.29272 0.609305)">
<stop stop-color="#FBCABB"/>
<stop offset="1" stop-color="#FBCABB" stop-opacity="0"/>
</radialGradient>
<radialGradient id="paint69_radial_390_217" cx="0" cy="0" r="1" gradientUnits="userSpaceOnUse" gradientTransform="translate(11.7124 15.6784) rotate(-90) scale(0.62455 1.74738)">
<stop offset="0.25" stop-color="#DFA59E"/>
<stop offset="1" stop-color="#DFA59E" stop-opacity="0"/>
</radialGradient>
<linearGradient id="paint70_linear_390_217" x1="23.421" y1="26.2484" x2="19.1542" y2="26.2484" gradientUnits="userSpaceOnUse">
<stop offset="0.146" stop-color="#FFDEC2"/>
<stop offset="0.861" stop-color="#EEB6A5"/>
</linearGradient>
<radialGradient id="paint71_radial_390_217" cx="0" cy="0" r="1" gradientUnits="userSpaceOnUse" gradientTransform="translate(21.7351 23.5623) rotate(90) scale(0.780797 1.4347)">
<stop offset="0.106" stop-color="#FFD1BB"/>
<stop offset="1" stop-color="#FFD1BB" stop-opacity="0"/>
</radialGradient>
<radialGradient id="paint72_radial_390_217" cx="0" cy="0" r="1" gradientUnits="userSpaceOnUse" gradientTransform="translate(21.7351 24.8236) rotate(90) scale(0.836974 1.53791)">
<stop offset="0.109" stop-color="#FFD1BB"/>
<stop offset="1" stop-color="#FFD1BB" stop-opacity="0"/>
</radialGradient>
<radialGradient id="paint73_radial_390_217" cx="0" cy="0" r="1" gradientUnits="userSpaceOnUse" gradientTransform="translate(21.7351 26.041) rotate(90) scale(0.70001 1.28625)">
<stop offset="0.109" stop-color="#FFD1BB"/>
<stop offset="1" stop-color="#FFD1BB" stop-opacity="0"/>
</radialGradient>
<radialGradient id="paint74_radial_390_217" cx="0" cy="0" r="1" gradientUnits="userSpaceOnUse" gradientTransform="translate(21.7351 27.3558) rotate(90) scale(0.778538 1.82972)">
<stop offset="0.186" stop-color="#FFD1BB"/>
<stop offset="1" stop-color="#FFD1BB" stop-opacity="0"/>
</radialGradient>
<linearGradient id="paint75_linear_390_217" x1="24.0804" y1="26.525" x2="21.7371" y2="26.525" gradientUnits="userSpaceOnUse">
<stop stop-color="#FFDFBF"/>
<stop offset="1" stop-color="#FFDFBF" stop-opacity="0"/>
</linearGradient>
<linearGradient id="paint76_linear_390_217" x1="-nan" y1="-nan" x2="-nan" y2="-nan" gradientUnits="userSpaceOnUse">
<stop stop-color="#CA8B73"/>
<stop offset="1" stop-color="#CA8B73" stop-opacity="0"/>
</linearGradient>
<linearGradient id="paint77_linear_390_217" x1="-nan" y1="-nan" x2="-nan" y2="-nan" gradientUnits="userSpaceOnUse">
<stop stop-color="#CA8B73"/>
<stop offset="1" stop-color="#CA8B73" stop-opacity="0"/>
</linearGradient>
<linearGradient id="paint78_linear_390_217" x1="-nan" y1="-nan" x2="-nan" y2="-nan" gradientUnits="userSpaceOnUse">
<stop stop-color="#CA8B73"/>
<stop offset="1" stop-color="#CA8B73" stop-opacity="0"/>
</linearGradient>
</defs>
</svg>
