<svg width="32" height="32" viewBox="0 0 32 32" fill="none" xmlns="http://www.w3.org/2000/svg">
<path d="M16 32C24.8362 32 32 24.8362 32 16C32 7.16385 24.8362 0 16 0C7.16385 0 0 7.16385 0 16C0 24.8362 7.16385 32 16 32ZM13.2838 9.48538C13.1647 9.37223 13.0695 9.23638 13.0037 9.08585C12.938 8.93531 12.903 8.77312 12.9009 8.60886C12.8988 8.4446 12.9296 8.28157 12.9915 8.1294C13.0534 7.97722 13.1451 7.83898 13.2613 7.72282C13.3774 7.60666 13.5157 7.51492 13.6679 7.45303C13.82 7.39113 13.9831 7.36033 14.1473 7.36243C14.3116 7.36454 14.4738 7.39951 14.6243 7.46527C14.7748 7.53104 14.9107 7.62629 15.0238 7.74538L22.4085 15.13C22.6391 15.3608 22.7687 15.6737 22.7687 16C22.7687 16.3263 22.6391 16.6392 22.4085 16.87L15.0238 24.2546C14.7912 24.4757 14.4813 24.5971 14.1604 24.593C13.8394 24.5889 13.5328 24.4596 13.3058 24.2326C13.0789 24.0057 12.9496 23.699 12.9455 23.3781C12.9413 23.0572 13.0628 22.7473 13.2838 22.5146L19.7977 16L13.2838 9.48538Z" fill="#3754C1"/>
</svg>
