<svg width="124" height="275" viewBox="0 0 124 275" fill="none" xmlns="http://www.w3.org/2000/svg">
<path d="M0.501953 273.895V20.4974L95.0029 19.9968L95.501 273.895H0.501953Z" fill="#EF5656" stroke="black"/>
<path d="M1.53809 19.4997L27.6632 0.5H121.439L94.8405 19.4788L1.53809 19.4997Z" fill="#EF5656" stroke="black"/>
<path d="M96.4962 273.532L95.501 20.0059L122.502 0.963142L122.999 254.625L96.4962 273.532Z" fill="#EF5656" stroke="black"/>
<path d="M43.255 224.736C39.3307 224.736 35.8357 224.061 32.7699 222.712C29.7216 221.346 27.3127 219.471 25.5433 217.089C23.7914 214.689 22.8892 211.921 22.8366 208.785H34.294C34.3641 210.099 34.7933 211.255 35.5817 212.254C36.3875 213.235 37.4562 213.997 38.7876 214.54C40.1191 215.083 41.617 215.354 43.2812 215.354C45.0156 215.354 46.5485 215.048 47.88 214.435C49.2114 213.821 50.2538 212.972 51.0071 211.886C51.7604 210.799 52.1371 209.547 52.1371 208.128C52.1371 206.691 51.7341 205.421 50.9283 204.317C50.1399 203.196 49.0012 202.32 47.5121 201.69C46.0405 201.059 44.2886 200.744 42.2564 200.744H37.2372V192.387H42.2564C43.9732 192.387 45.4886 192.089 46.8026 191.494C48.134 190.898 49.1676 190.075 49.9034 189.023C50.6392 187.955 51.0071 186.711 51.0071 185.292C51.0071 183.943 50.683 182.76 50.0348 181.744C49.4041 180.711 48.5107 179.905 47.3544 179.327C46.2157 178.749 44.8842 178.46 43.3601 178.46C41.8184 178.46 40.4081 178.74 39.1293 179.3C37.8504 179.844 36.8255 180.623 36.0547 181.639C35.2839 182.655 34.8722 183.847 34.8196 185.213H23.9141C23.9666 182.112 24.8513 179.379 26.5682 177.014C28.285 174.649 30.5975 172.801 33.5057 171.469C36.4313 170.12 39.7337 169.446 43.4126 169.446C47.1267 169.446 50.3764 170.12 53.1619 171.469C55.9474 172.818 58.111 174.64 59.6527 176.935C61.2119 179.213 61.9827 181.771 61.9652 184.609C61.9827 187.622 61.0455 190.136 59.1534 192.151C57.2789 194.165 54.835 195.444 51.8217 195.987V196.408C55.781 196.916 58.7943 198.291 60.8615 200.533C62.9463 202.758 63.9799 205.544 63.9624 208.89C63.9799 211.956 63.0952 214.68 61.3082 217.062C59.5388 219.445 57.0949 221.32 53.9766 222.686C50.8582 224.053 47.2843 224.736 43.255 224.736Z" fill="#FDFDFD"/>
</svg>
