<svg width="124" height="357" viewBox="0 0 124 357" fill="none" xmlns="http://www.w3.org/2000/svg">
<rect x="0.5" y="26.5" width="95" height="330" fill="#3754C1" stroke="black"/>
<path d="M1.28996 25.5L28.6938 0.5H122.727L95.8037 25.5H1.28996Z" fill="#3754C1" stroke="black"/>
<path d="M96.5 355.899V26.218L123.5 1.14661V332.307L96.5 355.899Z" fill="#3754C1" stroke="black"/>
<path d="M25.3622 307V298.801L44.5192 281.063C46.1484 279.487 47.5149 278.067 48.6186 276.806C49.7398 275.545 50.5895 274.31 51.1676 273.101C51.7457 271.875 52.0348 270.552 52.0348 269.133C52.0348 267.556 51.6757 266.198 50.9574 265.06C50.2391 263.903 49.2581 263.019 48.0142 262.406C46.7704 261.775 45.3601 261.46 43.7834 261.46C42.1366 261.46 40.7 261.792 39.4737 262.458C38.2474 263.124 37.3014 264.079 36.6357 265.322C35.9699 266.566 35.6371 268.047 35.6371 269.763H24.8366C24.8366 266.242 25.6338 263.185 27.228 260.592C28.8222 258 31.0559 255.994 33.929 254.575C36.8021 253.156 40.1132 252.446 43.8622 252.446C47.7164 252.446 51.0713 253.129 53.9268 254.496C56.8 255.845 59.0336 257.719 60.6278 260.119C62.2221 262.519 63.0192 265.27 63.0192 268.371C63.0192 270.403 62.6162 272.409 61.8104 274.388C61.022 276.368 59.6117 278.567 57.5795 280.984C55.5473 283.384 52.683 286.266 48.9865 289.63L41.1293 297.33V297.697H63.7287V307H25.3622Z" fill="#FDFDFD"/>
</svg>
