<svg width="32" height="32" viewBox="0 0 32 32" fill="none" xmlns="http://www.w3.org/2000/svg">
<path d="M28 15.9999C28.004 18.3823 27.2954 20.7114 25.9653 22.6879C24.8685 24.3238 23.3854 25.6643 21.6473 26.5908C19.9092 27.5173 17.9696 28.0013 16 27.9999C14.0304 28.0013 12.0908 27.5173 10.3527 26.5908C8.61457 25.6643 7.13153 24.3238 6.03467 22.6879C4.99031 21.1311 4.3252 19.3513 4.09267 17.4912C3.86015 15.631 4.06666 13.7422 4.69566 11.9763C5.32467 10.2103 6.35866 8.61629 7.71476 7.32198C9.07085 6.02766 10.7113 5.06906 12.5047 4.52302C14.298 3.97698 16.1944 3.8587 18.0417 4.17764C19.889 4.49659 21.6358 5.2439 23.1423 6.35966C24.6487 7.47542 25.8728 8.9286 26.7164 10.6027C27.5599 12.2768 27.9996 14.1253 28 15.9999Z" stroke="black"/>
<path d="M18.0002 11.9998C18.0002 12.5303 17.7895 13.039 17.4144 13.4141C17.0393 13.7891 16.5306 13.9998 16.0002 13.9998V15.3332C16.4379 15.3332 16.8714 15.247 17.2758 15.0794C17.6802 14.9119 18.0477 14.6664 18.3572 14.3569C18.6667 14.0473 18.9123 13.6799 19.0798 13.2754C19.2473 12.871 19.3335 12.4376 19.3335 11.9998H18.0002ZM16.0002 13.9998C15.4697 13.9998 14.961 13.7891 14.586 13.4141C14.2109 13.039 14.0002 12.5303 14.0002 11.9998H12.6668C12.6668 12.4376 12.7531 12.871 12.9206 13.2754C13.0881 13.6799 13.3336 14.0473 13.6432 14.3569C14.2683 14.982 15.1161 15.3332 16.0002 15.3332V13.9998ZM14.0002 11.9998C14.0002 11.4694 14.2109 10.9607 14.586 10.5856C14.961 10.2106 15.4697 9.99984 16.0002 9.99984V8.6665C15.1161 8.6665 14.2683 9.01769 13.6432 9.64281C13.018 10.2679 12.6668 11.1158 12.6668 11.9998H14.0002ZM16.0002 9.99984C16.5306 9.99984 17.0393 10.2106 17.4144 10.5856C17.7895 10.9607 18.0002 11.4694 18.0002 11.9998H19.3335C19.3335 11.1158 18.9823 10.2679 18.3572 9.64281C17.7321 9.01769 16.8842 8.6665 16.0002 8.6665V9.99984ZM6.88817 23.8078L6.24817 23.6185L6.14551 23.9665L6.38151 24.2425L6.88817 23.8078ZM25.1122 23.8078L25.6188 24.2425L25.8548 23.9665L25.7508 23.6185L25.1122 23.8078ZM12.0002 20.6665H20.0002V19.3332H12.0002V20.6665ZM12.0002 19.3332C10.7081 19.3334 9.45056 19.7506 8.41451 20.5226C7.37845 21.2947 6.61783 22.3804 6.24817 23.6185L7.52684 23.9985C7.81465 23.0357 8.4054 22.1914 9.2113 21.5911C10.0172 20.9909 10.9953 20.6666 12.0002 20.6665V19.3332ZM16.0002 27.3332C14.3645 27.3349 12.748 26.9818 11.2621 26.2981C9.77617 25.6144 8.45629 24.6165 7.39351 23.3732L6.38151 24.2425C7.56958 25.6315 9.04476 26.7463 10.7053 27.5101C12.3659 28.2739 14.1724 28.6684 16.0002 28.6665V27.3332ZM20.0002 20.6665C21.0052 20.6667 21.9834 20.9911 22.7894 21.5917C23.5953 22.1922 24.1859 23.0368 24.4735 23.9998L25.7508 23.6185C25.3812 22.3804 24.6219 21.2947 23.5858 20.5226C22.5498 19.7506 21.2923 19.3334 20.0002 19.3332V20.6665ZM24.6068 23.3732C23.5441 24.6165 22.2242 25.6144 20.7383 26.2981C19.2524 26.9818 17.6358 27.3349 16.0002 27.3332V28.6665C17.828 28.6684 19.6344 28.2739 21.295 27.5101C22.9556 26.7463 24.4308 25.6315 25.6188 24.2425L24.6055 23.3745L24.6068 23.3732Z" fill="black"/>
</svg>
