<?xml version="1.0" standalone="no"?>
<!DOCTYPE svg PUBLIC "-//W3C//DTD SVG 20010904//EN"
 "http://www.w3.org/TR/2001/REC-SVG-20010904/DTD/svg10.dtd">
<svg version="1.0" xmlns="http://www.w3.org/2000/svg"
 width="4267.000000pt" height="2263.000000pt" viewBox="0 0 4267.000000 2263.000000"
 preserveAspectRatio="xMidYMid meet">

<g transform="translate(0.000000,2263.000000) scale(0.100000,-0.100000)"
fill="#000000" stroke="none">
<path d="M32240 17971 c-156 -35 -262 -79 -396 -166 -352 -228 -554 -646 -514
-1064 71 -749 810 -1226 1526 -986 272 91 524 314 658 583 69 137 116 344 116
507 -1 517 -349 970 -851 1111 -82 23 -118 27 -274 30 -150 3 -194 1 -265 -15z"/>
<path d="M29035 15679 c-1095 -85 -1972 -921 -2111 -2011 -22 -176 -15 -522
14 -678 44 -235 101 -409 203 -619 113 -235 229 -400 413 -590 350 -361 768
-584 1261 -672 170 -31 511 -38 694 -14 435 55 855 239 1191 523 52 44 473
459 935 921 l840 841 -845 846 c-465 465 -888 882 -940 926 -140 117 -285 210
-465 298 -288 141 -529 205 -855 230 -148 11 -187 11 -335 -1z"/>
<path d="M35555 15680 c-470 -42 -889 -209 -1265 -506 -47 -37 -474 -456 -950
-930 l-865 -864 461 -462 c528 -531 551 -559 632 -790 45 -126 62 -232 62
-378 0 -245 -65 -455 -203 -660 -38 -56 -286 -311 -957 -985 -687 -690 -918
-927 -954 -982 -267 -409 -250 -960 43 -1337 22 -28 238 -249 481 -491 l440
-440 2456 2455 c1351 1350 2499 2505 2551 2565 557 642 713 1558 402 2348
-277 701 -870 1218 -1603 1397 -224 55 -514 79 -731 60z"/>
<path d="M4750 11294 c-45 -20 -86 -59 -113 -109 l-22 -40 -3 -2140 c-1 -1429
1 -2191 8 -2295 66 -967 735 -1777 1663 -2015 213 -54 335 -69 562 -69 296 0
548 46 810 149 617 241 1100 749 1305 1373 84 256 114 444 113 712 -1 345 -70
649 -219 960 -257 537 -732 957 -1296 1145 -247 82 -449 115 -715 115 -447 0
-866 -127 -1237 -374 l-126 -84 0 1261 c0 1258 0 1261 -21 1304 -25 51 -76 96
-128 112 -25 7 -130 11 -292 11 -204 -1 -261 -4 -289 -16z m2415 -3117 c125
-33 184 -55 309 -119 371 -191 637 -554 713 -971 25 -137 22 -363 -6 -497 -56
-264 -169 -482 -349 -671 -194 -205 -438 -341 -715 -401 -146 -31 -398 -31
-544 0 -422 91 -777 370 -957 753 -56 119 -79 188 -107 319 -28 135 -30 360
-6 497 76 422 343 782 724 976 142 72 254 109 433 141 14 2 111 3 215 1 165
-2 203 -6 290 -28z"/>
<path d="M9854 11296 c-51 -23 -102 -74 -121 -124 -17 -45 -18 -176 -18 -3137
0 -3375 -4 -3131 58 -3202 61 -69 79 -73 377 -73 297 0 318 5 374 71 55 65 56
73 56 411 l0 313 367 367 368 368 715 -714 715 -714 85 -40 c141 -66 146 -67
625 -67 237 0 442 3 457 8 38 10 61 47 52 83 -4 21 -297 320 -1020 1044
l-1014 1015 1025 1025 c563 563 1030 1037 1036 1053 15 36 -1 74 -37 87 -15 6
-205 10 -474 10 -426 0 -451 -1 -516 -21 -160 -49 -98 8 -1286 -1178 l-1098
-1096 -2 2191 -3 2190 -28 42 c-15 23 -46 54 -69 69 l-41 28 -276 2 c-215 2
-283 0 -307 -11z"/>
<path d="M14853 11289 c-48 -24 -89 -68 -110 -116 -20 -48 -20 -6228 0 -6276
21 -49 67 -98 112 -118 36 -17 69 -19 305 -19 298 0 316 4 377 73 57 65 63
106 63 436 l0 296 362 362 363 363 715 -713 c775 -774 745 -747 910 -799 74
-23 81 -23 520 -23 413 0 448 1 473 18 34 22 41 39 33 75 -5 18 -330 350
-1022 1042 l-1014 1015 1021 1020 c561 561 1027 1032 1035 1047 21 40 17 64
-12 87 -26 21 -36 21 -486 21 l-459 0 -77 -26 c-42 -14 -102 -39 -132 -56 -42
-24 -314 -289 -1142 -1117 l-1088 -1086 0 2142 c0 1490 -3 2157 -11 2192 -13
63 -43 107 -97 146 l-44 30 -276 3 c-265 2 -279 2 -319 -19z"/>
<path d="M19769 11282 c-39 -20 -62 -41 -84 -77 l-30 -48 0 -2271 0 -2271 23
-130 c153 -842 722 -1498 1529 -1758 687 -223 1451 -87 2036 360 543 417 867
1076 867 1766 0 604 -247 1184 -682 1603 -182 175 -352 294 -580 404 -314 152
-613 220 -968 220 -260 0 -467 -33 -705 -111 -200 -66 -476 -210 -617 -321
l-38 -30 0 1242 c0 872 -3 1254 -11 1285 -14 55 -70 122 -123 146 -36 17 -70
19 -302 19 l-262 0 -53 -28z m2342 -3088 c184 -31 371 -107 539 -219 106 -70
283 -250 358 -363 150 -226 219 -437 228 -707 11 -299 -58 -552 -219 -797
-183 -281 -472 -490 -791 -572 -699 -182 -1416 211 -1641 898 -95 291 -84 640
29 921 126 313 374 578 676 725 101 49 245 95 355 114 112 20 350 20 466 0z"/>
<path d="M26600 9065 c-378 -53 -725 -192 -1025 -410 -496 -362 -816 -892
-905 -1497 -19 -125 -20 -192 -20 -1181 0 -1147 -3 -1086 58 -1151 58 -62 80
-66 372 -66 237 0 269 2 305 19 49 23 88 63 112 116 17 37 18 107 24 1100 6
1170 2 1098 71 1293 167 473 581 825 1067 906 120 20 337 21 459 1 499 -81
934 -459 1086 -943 61 -194 59 -154 65 -1292 6 -994 7 -1047 25 -1083 10 -20
32 -49 50 -64 60 -51 76 -53 358 -53 234 0 267 2 304 19 57 26 111 92 124 155
8 36 10 344 8 1081 -5 1142 -3 1108 -73 1382 -204 795 -830 1417 -1630 1618
-71 18 -186 40 -253 49 -150 19 -446 20 -582 1z"/>
<path d="M10204 3826 c-45 -45 -47 -95 -5 -137 64 -64 181 -21 181 66 0 47
-13 71 -50 90 -49 25 -88 19 -126 -19z"/>
<path d="M12454 3826 c-45 -45 -47 -95 -5 -137 64 -64 181 -21 181 66 0 47
-13 71 -50 90 -49 25 -88 19 -126 -19z"/>
<path d="M8760 3225 l0 -605 80 0 80 0 0 605 0 605 -80 0 -80 0 0 -605z"/>
<path d="M12900 3225 l0 -605 80 0 80 0 0 119 0 119 86 81 c47 45 88 81 92 80
4 0 78 -90 165 -200 l159 -199 94 0 c52 0 94 2 94 5 0 2 -88 116 -195 252
-107 136 -195 251 -195 255 0 3 82 85 181 182 l181 176 -98 -1 -99 0 -230
-213 -230 -213 -3 383 -2 384 -80 0 -80 0 0 -605z"/>
<path d="M13910 3225 l0 -605 80 0 80 0 0 605 0 605 -80 0 -80 0 0 -605z"/>
<path d="M2730 3405 c0 -406 7 -470 61 -578 80 -157 250 -239 468 -224 102 7
187 34 258 83 58 40 88 76 126 150 50 98 57 169 57 569 l0 365 -79 0 -80 0 -3
-387 c-4 -444 -6 -455 -84 -541 -60 -68 -124 -92 -239 -92 -185 0 -284 85
-314 270 -6 36 -11 216 -11 408 l0 342 -80 0 -80 0 0 -365z"/>
<path d="M4030 3195 l0 -575 80 0 80 0 0 174 0 174 218 4 c246 5 301 16 398
83 184 127 208 436 44 589 -113 106 -202 126 -560 126 l-260 0 0 -575z m595
412 c63 -21 119 -67 147 -120 29 -55 31 -175 4 -227 -62 -120 -145 -150 -416
-150 l-170 0 0 261 0 261 193 -4 c139 -4 206 -10 242 -21z"/>
<path d="M5000 3700 l0 -70 195 0 195 0 0 -505 0 -505 80 0 80 0 0 505 0 505
200 0 200 0 0 70 0 70 -475 0 -475 0 0 -70z"/>
<path d="M6560 3196 l0 -576 315 0 c343 0 424 9 516 55 57 30 122 101 137 153
21 68 15 180 -12 237 -26 57 -88 117 -139 136 l-35 12 58 56 c48 46 61 66 75
115 46 161 -32 304 -194 358 -61 21 -89 22 -393 26 l-328 3 0 -575z m662 412
c97 -45 131 -135 87 -225 -48 -96 -107 -113 -389 -113 l-200 0 0 186 0 186
223 -4 c215 -3 224 -4 279 -30z m-27 -479 c86 -15 135 -45 163 -99 43 -86 15
-194 -62 -237 -61 -33 -144 -43 -369 -43 l-207 0 0 195 0 195 207 0 c113 0
234 -5 268 -11z"/>
<path d="M11120 3195 l0 -575 280 0 c327 0 390 9 519 71 194 95 301 274 301
504 0 230 -107 409 -301 504 -129 62 -192 71 -519 71 l-280 0 0 -575z m649
406 c90 -31 165 -84 211 -148 58 -81 75 -140 75 -258 0 -118 -17 -177 -75
-258 -46 -64 -121 -117 -211 -148 -56 -20 -89 -23 -276 -27 l-213 -4 0 437 0
437 213 -4 c187 -4 220 -7 276 -27z"/>
<path d="M16490 3195 l0 -575 80 0 80 0 0 148 0 147 108 107 107 107 218 -255
217 -254 96 0 c76 0 94 3 86 13 -5 6 -121 146 -256 311 -135 164 -246 304
-245 310 0 6 107 124 238 261 l239 250 -92 3 -91 3 -95 -98 c-53 -54 -193
-199 -313 -323 l-217 -224 0 322 0 322 -80 0 -80 0 0 -575z"/>
<path d="M17660 3195 l0 -575 80 0 80 0 0 148 0 147 108 107 107 107 218 -255
217 -254 96 0 c76 0 94 3 86 13 -5 6 -121 146 -256 311 -135 164 -246 304
-245 310 0 6 107 124 238 261 l239 250 -92 3 -91 3 -95 -98 c-53 -54 -193
-199 -313 -323 l-217 -224 0 322 0 322 -80 0 -80 0 0 -575z"/>
<path d="M18840 3196 l0 -576 315 0 c343 0 424 9 516 55 57 30 122 101 137
153 21 68 15 180 -12 237 -26 57 -88 117 -139 136 l-35 12 58 56 c48 46 61 66
75 115 46 161 -32 304 -194 358 -61 21 -89 22 -393 26 l-328 3 0 -575z m662
412 c97 -45 131 -135 87 -225 -48 -96 -107 -113 -389 -113 l-200 0 0 186 0
186 223 -4 c215 -3 224 -4 279 -30z m-27 -479 c86 -15 135 -45 163 -99 43 -86
15 -194 -62 -237 -61 -33 -144 -43 -369 -43 l-207 0 0 195 0 195 207 0 c113 0
234 -5 268 -11z"/>
<path d="M20520 3196 l0 -576 315 0 c343 0 424 9 516 55 57 30 122 101 137
153 21 68 15 180 -12 237 -26 57 -88 117 -139 136 l-35 12 58 56 c48 46 61 66
75 115 46 161 -32 304 -194 358 -61 21 -89 22 -393 26 l-328 3 0 -575z m662
412 c97 -45 131 -135 87 -225 -48 -96 -107 -113 -389 -113 l-200 0 0 186 0
186 223 -4 c215 -3 224 -4 279 -30z m-27 -479 c86 -15 135 -45 163 -99 43 -86
15 -194 -62 -237 -61 -33 -144 -43 -369 -43 l-207 0 0 195 0 195 207 0 c113 0
234 -5 268 -11z"/>
<path d="M15370 3585 l0 -95 -70 0 -70 0 0 -65 0 -65 69 0 69 0 4 -282 c3
-273 4 -285 27 -331 43 -87 132 -137 246 -137 61 0 145 23 173 48 20 17 20 17
-4 70 l-24 53 -32 -18 c-45 -23 -136 -23 -172 0 -51 34 -56 63 -56 342 l0 255
125 0 125 0 0 65 0 65 -125 0 -125 0 0 95 0 95 -80 0 -80 0 0 -95z"/>
<path d="M7995 3494 c-94 -15 -255 -83 -255 -108 0 -6 14 -35 31 -64 28 -50
32 -53 47 -38 10 8 44 27 76 42 70 32 218 45 280 24 79 -26 135 -103 136 -187
l0 -41 -187 -4 c-229 -6 -275 -17 -344 -87 -73 -72 -90 -172 -45 -266 29 -62
55 -87 128 -120 137 -62 335 -37 427 55 l31 32 0 -56 0 -56 75 0 75 0 0 283
c0 309 -8 373 -53 450 -55 93 -147 137 -297 142 -52 2 -108 1 -125 -1z m315
-552 c0 -60 -4 -74 -28 -108 -81 -112 -289 -139 -379 -49 -29 29 -33 39 -33
87 0 57 16 86 60 109 41 21 88 27 238 28 l142 1 0 -68z"/>
<path d="M9435 3494 c-94 -15 -255 -83 -255 -108 0 -6 14 -35 31 -64 28 -50
32 -53 47 -38 10 8 44 27 76 42 70 32 218 45 280 24 79 -26 135 -103 136 -187
l0 -41 -187 -4 c-229 -6 -275 -17 -344 -87 -73 -72 -90 -172 -45 -266 29 -62
55 -87 128 -120 137 -62 335 -37 427 55 l31 32 0 -56 0 -56 75 0 75 0 0 283
c0 309 -8 373 -53 450 -55 93 -147 137 -297 142 -52 2 -108 1 -125 -1z m315
-552 c0 -60 -4 -74 -28 -108 -81 -112 -289 -139 -379 -49 -29 29 -33 39 -33
87 0 57 16 86 60 109 41 21 88 27 238 28 l142 1 0 -68z"/>
<path d="M14585 3494 c-94 -15 -255 -83 -255 -108 0 -6 14 -35 31 -64 28 -50
32 -53 47 -38 10 8 44 27 76 42 70 32 218 45 280 24 79 -26 135 -103 136 -187
l0 -41 -187 -4 c-229 -6 -275 -17 -344 -87 -73 -72 -90 -172 -45 -266 29 -62
55 -87 128 -120 137 -62 335 -37 427 55 l31 32 0 -56 0 -56 75 0 75 0 0 283
c0 309 -8 373 -53 450 -55 93 -147 137 -297 142 -52 2 -108 1 -125 -1z m315
-552 c0 -60 -4 -74 -28 -108 -81 -112 -289 -139 -379 -49 -29 29 -33 39 -33
87 0 57 16 86 60 109 41 21 88 27 238 28 l142 1 0 -68z"/>
<path d="M21955 3494 c-94 -15 -255 -83 -255 -108 0 -6 14 -35 31 -64 28 -50
32 -53 47 -38 10 8 44 27 76 42 70 32 218 45 280 24 79 -26 135 -103 136 -187
l0 -41 -187 -4 c-229 -6 -275 -17 -344 -87 -73 -72 -90 -172 -45 -266 29 -62
55 -87 128 -120 137 -62 335 -37 427 55 l31 32 0 -56 0 -56 75 0 75 0 0 283
c0 309 -8 373 -53 450 -55 93 -147 137 -297 142 -52 2 -108 1 -125 -1z m315
-552 c0 -60 -4 -74 -28 -108 -81 -112 -289 -139 -379 -49 -29 29 -33 39 -33
87 0 57 16 86 60 109 41 21 88 27 238 28 l142 1 0 -68z"/>
<path d="M23062 3485 c-69 -19 -105 -39 -153 -82 l-39 -35 0 61 0 61 -75 0
-75 0 0 -435 0 -435 79 0 80 0 3 278 3 277 27 52 c59 112 188 159 326 118 62
-19 115 -75 131 -140 7 -27 11 -150 11 -314 l0 -271 80 0 80 0 0 280 c0 295
-6 352 -46 431 -29 59 -101 123 -162 144 -66 23 -204 29 -270 10z"/>
<path d="M26187 3489 c-56 -13 -117 -47 -159 -87 l-38 -36 0 62 0 62 -75 0
-75 0 0 -435 0 -435 80 0 80 0 0 258 c0 287 6 329 61 395 40 49 99 78 168 84
104 10 180 -28 224 -111 21 -39 22 -54 25 -333 l3 -293 80 0 79 0 0 258 c0
287 6 329 61 395 40 49 99 78 168 84 75 7 134 -11 181 -53 65 -59 70 -88 70
-406 l0 -278 80 0 80 0 0 280 c0 168 -4 300 -11 332 -17 77 -52 140 -104 186
-67 58 -128 77 -250 76 -125 -1 -192 -24 -268 -94 l-54 -49 -56 54 c-44 43
-69 58 -122 74 -70 22 -161 26 -228 10z"/>
<path d="M27785 3494 c-94 -15 -255 -83 -255 -108 0 -6 14 -35 31 -64 28 -50
32 -53 47 -38 10 8 44 27 76 42 70 32 218 45 280 24 79 -26 135 -103 136 -187
l0 -41 -187 -4 c-229 -6 -275 -17 -344 -87 -73 -72 -90 -172 -45 -266 29 -62
55 -87 128 -120 137 -62 335 -37 427 55 l31 32 0 -56 0 -56 75 0 75 0 0 283
c0 309 -8 373 -53 450 -55 93 -147 137 -297 142 -52 2 -108 1 -125 -1z m315
-552 c0 -60 -4 -74 -28 -108 -81 -112 -289 -139 -379 -49 -29 29 -33 39 -33
87 0 57 16 86 60 109 41 21 88 27 238 28 l142 1 0 -68z"/>
<path d="M28693 3485 c-103 -28 -167 -74 -204 -147 -26 -51 -26 -155 0 -206
41 -80 99 -110 286 -147 155 -30 182 -39 212 -67 25 -24 31 -75 12 -110 -40
-75 -284 -79 -438 -6 -25 12 -49 24 -52 25 -4 2 -21 -21 -38 -52 -38 -67 -36
-71 47 -108 137 -62 336 -73 471 -26 144 49 217 184 166 307 -37 86 -104 123
-301 163 -153 30 -193 45 -218 81 -32 45 -9 115 45 143 80 42 234 37 337 -10
30 -14 56 -25 58 -25 4 0 64 116 64 123 0 11 -102 47 -172 61 -94 19 -205 20
-275 1z"/>
<path d="M10200 3055 l0 -435 80 0 80 0 0 435 0 435 -80 0 -80 0 0 -435z"/>
<path d="M12450 3055 l0 -435 80 0 80 0 0 435 0 435 -80 0 -80 0 0 -435z"/>
<path d="M23673 3483 c2 -5 89 -201 193 -437 l188 -429 -40 -76 c-47 -90 -80
-114 -159 -113 -50 0 -102 19 -135 48 -14 12 -20 5 -49 -48 -33 -59 -33 -62
-15 -76 72 -54 203 -75 298 -48 69 20 139 80 178 153 22 40 295 656 424 956
l33 77 -77 0 -77 0 -144 -338 c-79 -185 -147 -340 -151 -345 -3 -4 -74 148
-156 338 l-149 345 -83 0 c-46 0 -81 -3 -79 -7z"/>
<path d="M24722 3183 c3 -297 4 -310 27 -367 48 -120 156 -192 307 -203 116
-9 216 23 294 94 l40 35 0 -61 0 -61 75 0 75 0 0 435 0 435 -79 0 -80 0 -3
-272 -3 -273 -28 -57 c-31 -64 -78 -104 -145 -124 -123 -37 -243 3 -295 99
-21 40 -22 54 -25 335 l-3 292 -80 0 -80 0 3 -307z"/>
</g>
</svg>
